<?xml version="1.0" encoding="utf-8"?>
<!-- Generator: Adobe Illustrator 16.0.0, SVG Export Plug-In . SVG Version: 6.00 Build 0)  -->
<!DOCTYPE svg PUBLIC "-//W3C//DTD SVG 1.1//EN" "http://www.w3.org/Graphics/SVG/1.1/DTD/svg11.dtd">
<svg version="1.1" xmlns="http://www.w3.org/2000/svg" xmlns:xlink="http://www.w3.org/1999/xlink" x="0px" y="0px"
	 width="130.75px" height="141.145px" viewBox="0 0 130.75 141.145" enable-background="new 0 0 130.75 141.145"
	 xml:space="preserve">
<g id="Layer_2">
</g>
<g id="Layer_1_copy_3">
	<g id="Layer_4_copy_2_1_">
	</g>
	<g id="Background_copy">
		<g id="Layer_4_copy_2">
		</g>
	</g>
</g>
<g id="Layer_1_copy">
	<g id="Layer_4">
	</g>
	<g id="Background">
		<g id="Layer_4_copy">
		</g>
	</g>
</g>
<g id="Layer_1_copy_2">
	<g id="Layer_8">
	</g>
</g>
<g id="Layer_1_copy_4">
	<g id="Layer_21">
	</g>
	<g id="ciudad">
		<g id="Layer_11_copy">
		</g>
		<g id="Layer_12_copy">
		</g>
	</g>
</g>
<g id="Layer_1_copy_5">
	<g id="Layer_21_copy" display="none">
		<rect x="-22" y="-9.939" display="inline" fill="#296B90" width="384" height="167.333"/>
	</g>
	<g id="ciudad_copy">
		<g id="Layer_11_copy_2">
		</g>
		<g id="Layer_12_copy_2">
		</g>
	</g>
	<g>
		<polygon fill="#3FA6DD" points="65.521,3.238 65.521,3.238 65.521,3.238 2.053,25.872 11.733,109.791 65.521,139.581 
			65.521,139.581 65.521,139.581 119.308,109.791 128.988,25.872 		"/>
		<polygon fill="#5FBCEA" points="65.521,3.238 65.521,18.373 65.521,18.304 65.521,87.361 65.521,87.361 65.521,139.581 
			65.521,139.581 119.308,109.791 128.988,25.872 		"/>
		<path fill="#FFFFFF" d="M65.521,18.304l-39.676,88.963l0,0h14.793l0,0l7.976-19.907h33.677l7.976,19.907l0,0h14.792l0,0
			L65.521,18.304L65.521,18.304L65.521,18.304L65.521,18.304L65.521,18.304z M77.11,75.091H53.931l11.589-27.883L77.11,75.091z"/>
	</g>
	<g id="Layer_9">
	</g>
</g>
<g id="Layer_1">
	<g id="Layer_10">
	</g>
	<g id="Layer_11">
	</g>
	<g id="Layer_12">
	</g>
	<g id="Layer_9_copy">
	</g>
</g>
</svg>
