<?xml version="1.0" encoding="utf-8"?>
<!-- Generator: Adobe Illustrator 16.0.0, SVG Export Plug-In . SVG Version: 6.00 Build 0)  -->
<!DOCTYPE svg PUBLIC "-//W3C//DTD SVG 1.1//EN" "http://www.w3.org/Graphics/SVG/1.1/DTD/svg11.dtd">
<svg version="1.1" xmlns="http://www.w3.org/2000/svg" xmlns:xlink="http://www.w3.org/1999/xlink" x="0px" y="0px"
	 width="303.938px" height="329.946px" viewBox="0 0 303.938 329.946" enable-background="new 0 0 303.938 329.946"
	 xml:space="preserve">
<g id="Background">
	<g>
		<g>
			<defs>
				<rect id="SVGID_1_" x="-107.317" y="-672.062" width="500" height="500"/>
			</defs>
			<clipPath id="SVGID_2_">
				<use xlink:href="#SVGID_1_"  overflow="visible"/>
			</clipPath>
		</g>
	</g>
	<g>
		<rect x="-107.317" y="-672.062" fill="#4C37A8" width="500" height="500"/>
		<g>
			<defs>
				<rect id="SVGID_3_" x="-107.317" y="-672.062" width="500" height="500"/>
			</defs>
			<clipPath id="SVGID_4_">
				<use xlink:href="#SVGID_3_"  overflow="visible"/>
			</clipPath>
			
				<linearGradient id="SVGID_5_" gradientUnits="userSpaceOnUse" x1="24.9575" y1="-535.9043" x2="644.1567" y2="-535.9043" gradientTransform="matrix(0.9342 0.3566 -0.3566 0.9342 -149.5818 -96.6756)">
				<stop  offset="0" style="stop-color:#4F2280"/>
				<stop  offset="1" style="stop-color:#D4145A"/>
			</linearGradient>
			<path clip-path="url(#SVGID_4_)" fill="url(#SVGID_5_)" d="M244.518-812.053c-17.318,5.758-84.055,27.948-125.349,95.058
				c-8.783,14.274-50.078,81.387-28.023,145.021c29.181,84.197,138.094,72.352,181.713,152.781
				c37.507,69.16-55.142,127.604-23.161,209.08c16.695,42.533,59.621,80.18,101.465,86.456
				c130.592,19.589,387.41-245.872,307.942-474.885C601.26-765.244,384.037-858.442,244.518-812.053z"/>
			
				<linearGradient id="SVGID_6_" gradientUnits="userSpaceOnUse" x1="-376.1802" y1="-162.0361" x2="142.7778" y2="36.0714" gradientTransform="matrix(0.8665 0.4992 0.4992 -0.8665 170.7189 -522.7943)">
				<stop  offset="0" style="stop-color:#4F2280"/>
				<stop  offset="1" style="stop-color:#D4145A"/>
			</linearGradient>
			<path clip-path="url(#SVGID_4_)" fill="url(#SVGID_6_)" d="M26.023-229.339c-8.498,0-17.054-0.302-25.666-0.912
				c-80.674-5.716-154.307-37.753-196.968-85.7l0,0c-43.684-49.096-53.966-97.859-54.899-130.122
				c-1.602-55.316,13.761-99.871,43.26-125.458c31.553-27.369,67.694-24.749,105.957-21.973
				c34.468,2.499,70.108,5.084,103.422-15.396c29.827-18.336,33.344-49.013,37.067-81.492c3.748-32.693,7.623-66.499,38.383-91.074
				c32.564-26.017,83.245-35.391,117.883-21.804c25.237,9.898,49.495,34.333,70.15,70.661
				c20.304,35.71,35.339,79.631,43.481,127.014c9.928,57.776,8.626,115.457-3.764,166.805
				c-14.283,59.194-42.229,107.153-83.064,142.546C171.529-253.135,101.446-229.339,26.023-229.339z M-195.863-316.615
				c42.491,47.756,115.872,79.669,196.292,85.367c84.785,6.006,165.042-17.958,220.183-65.75
				c76.024-65.893,108.359-181.192,86.497-308.426c-8.123-47.27-23.118-91.078-43.366-126.689
				c-20.54-36.127-44.623-60.41-69.646-70.225c-34.334-13.466-84.586-4.157-116.894,21.654
				c-30.438,24.317-34.289,57.915-38.014,90.406c-3.751,32.727-7.295,63.639-37.537,82.229
				c-33.587,20.648-69.391,18.052-104.018,15.541c-38.049-2.757-73.989-5.366-105.229,21.732
				c-29.268,25.386-44.509,69.662-42.915,124.672C-249.581-414.006-239.347-365.486-195.863-316.615z"/>
		</g>
	</g>
	<g>
		<g>
			<defs>
				<rect id="SVGID_7_" x="-107.317" y="-672.062" width="500" height="500"/>
			</defs>
			<clipPath id="SVGID_8_">
				<use xlink:href="#SVGID_7_"  overflow="visible"/>
			</clipPath>
		</g>
	</g>
</g>
<g id="Objects">
	<g>
		<g>
			<g>
				<g>
					<path fill="#FFF8FA" d="M43.242,31.855C36.309,37.528,9.589,59.387,2.401,97.391c-1.529,8.084-8.718,46.089,12.536,71.41
						c28.122,33.502,75.993,9.004,110.075,38.252c29.308,25.148-2.948,68.17,25.98,99.935
						c15.103,16.581,41.377,26.331,61.665,21.884C275.973,314.993,347.274,148.3,270.741,57.19
						C215.032-9.129,99.102-13.841,43.242,31.855z"/>
				</g>
				<path fill="#FFE9E9" d="M146.302,307.334c-1.885,0-3.749-0.055-5.599-0.167l0.024-0.398l-0.026,0.398
					c-32.036-1.943-52.398-15.28-63.838-26.126c-19.62-18.598-29.657-39.326-28.261-58.367
					c1.493-20.379,14.909-31.929,29.113-44.155c12.754-10.979,25.942-22.332,30.397-40.823c3.982-16.525-5.334-28.309-15.198-40.784
					C82.941,84.297,72.63,71.255,74.813,52.114c2.309-20.246,16.639-40.976,33.332-48.219
					c24.601-10.674,67.776,1.076,107.437,29.239c51.517,36.583,80.111,87.77,76.49,136.927
					c-2.627,35.658-22.198,71.712-53.697,98.918C210.263,293.26,176.275,307.334,146.302,307.334z M129.391,0.785
					c-7.873,0-14.957,1.252-20.928,3.843c-16.452,7.139-30.578,27.593-32.857,47.577C73.46,71.019,83.668,83.93,93.541,96.416
					c9.987,12.631,19.421,24.563,15.348,41.467c-4.516,18.741-17.803,30.179-30.653,41.24
					c-14.075,12.116-27.369,23.56-28.838,43.608c-1.377,18.798,8.571,39.3,28.015,57.729c11.345,10.756,31.542,23.98,63.337,25.909
					l-0.022,0.398l0.024-0.398c31.082,1.888,67.377-12.321,97.101-37.995c31.34-27.068,50.812-62.924,53.423-98.373
					c3.6-48.874-24.869-99.797-76.156-136.217C185.349,12.646,153.629,0.785,129.391,0.785z"/>
			</g>
			<g>
				<path fill="#FF6666" d="M88.462,75.659c4.484,4.561,11.053,6.396,17.027,3.074c4.58-2.543,7.333-7.299,7.867-12.283
					c-3.724,1.889-8.199,3.802-12.978,5.531C96.211,73.489,92.135,74.743,88.462,75.659z"/>
				<path fill="#FF6666" d="M112.305,58.712c-0.078-0.205-0.163-0.403-0.26-0.6c-0.151-0.348-0.326-0.685-0.508-1.015
					c-4.069-7.32-13.544-9.562-21.061-5.39c-6.329,3.519-8.462,10.02-6.544,16.354c0.054,0.215,0.126,0.42,0.199,0.633
					c0.337,0.979,0.77,1.949,1.297,2.904c0.717,1.29,1.564,2.471,2.528,3.523c3.743-0.916,7.92-2.199,12.2-3.744
					c4.909-1.775,9.49-3.737,13.261-5.67C113.568,63.33,113.211,60.933,112.305,58.712z"/>
				<g>
					<path fill="#FBC96B" d="M122.976,58.452c-0.5-1.383-3.367-1.652-8.517-0.795c-0.774,0.129-1.579,0.281-2.414,0.455
						c0.097,0.196,0.182,0.395,0.26,0.6c0.778-0.162,1.532-0.302,2.257-0.42c0.958-0.16,1.818-0.277,2.578-0.354
						c1.739-0.174,2.993-0.151,3.835,0.004c0.848,0.146,1.281,0.42,1.396,0.731c0.276,0.76-1.087,2.556-5.759,5.288
						c-0.981,0.576-2.047,1.153-3.194,1.746c-3.771,1.933-8.352,3.895-13.261,5.67c-4.28,1.545-8.457,2.828-12.2,3.744
						c-1.853,0.456-3.592,0.816-5.185,1.086c-5.34,0.889-7.534,0.385-7.811-0.381c-0.446-1.24,3.003-3.992,9.17-7.133
						c-0.073-0.213-0.146-0.418-0.199-0.633c-6.059,3.059-10.253,6.105-9.574,7.987c0.402,1.122,2.358,1.507,5.815,1.161
						c0.818-0.082,1.717-0.203,2.7-0.367c1.715-0.287,3.593-0.682,5.588-1.184c3.673-0.916,7.749-2.17,11.917-3.678
						c4.778-1.729,9.254-3.643,12.978-5.531c1.291-0.646,2.491-1.295,3.583-1.934c4.189-2.453,6.241-4.395,6.104-5.768
						C123.034,58.646,123.011,58.546,122.976,58.452z"/>
				</g>
			</g>
			<path fill="#EF5B5B" d="M89.595,58.636c-0.81,0.35-1.634-0.145-1.974-0.934c-0.341-0.788-0.093-1.628,0.718-1.978
				c0.81-0.35,1.754-0.024,2.094,0.765C90.774,57.278,90.406,58.286,89.595,58.636z"/>
			<path fill="#EF5B5B" d="M86.959,60.163c-0.431,0.186-0.869-0.076-1.05-0.496c-0.182-0.42-0.049-0.867,0.382-1.053
				s0.933-0.013,1.114,0.406C87.586,59.44,87.39,59.978,86.959,60.163z"/>
			<path fill="#EF5B5B" d="M106.303,76.855c-0.431,0.187-0.869-0.076-1.05-0.496c-0.182-0.419-0.049-0.866,0.382-1.052
				c0.431-0.187,0.934-0.014,1.114,0.406S106.735,76.67,106.303,76.855z"/>
			<path fill="#FFFFFF" d="M181.641,73.63c-0.263,0-0.507,0.076-0.719,0.2l-4.735-4.735c0.118-0.209,0.19-0.447,0.19-0.703
				c0-0.793-0.643-1.436-1.435-1.436c-0.793,0-1.436,0.643-1.436,1.436c0,0.256,0.073,0.494,0.19,0.702l-4.744,4.745
				c-0.215-0.13-0.465-0.209-0.734-0.209c-0.257,0-0.494,0.073-0.702,0.191l-4.728-4.728c0.118-0.208,0.19-0.446,0.19-0.702
				c0-0.793-0.643-1.436-1.435-1.436c-0.793,0-1.436,0.643-1.436,1.436c0,0.792,0.643,1.435,1.436,1.435
				c0.257,0,0.494-0.073,0.702-0.19l4.728,4.727c-0.118,0.209-0.19,0.446-0.19,0.703c0,0.793,0.643,1.436,1.435,1.436
				c0.793,0,1.436-0.643,1.436-1.436c0-0.244-0.066-0.471-0.174-0.672l4.759-4.758c0.208,0.117,0.446,0.19,0.703,0.19
				s0.494-0.073,0.703-0.19l4.742,4.742c-0.112,0.205-0.183,0.438-0.183,0.688c0,0.793,0.643,1.436,1.436,1.436
				s1.436-0.643,1.436-1.436S182.434,73.63,181.641,73.63z"/>
			<g>
				<path fill="#DA4444" d="M231.813,102.554v108.67c0,1.8-1.46,3.26-3.26,3.26h-59.74c-1.8,0-3.26-1.46-3.26-3.26v-108.67
					c0-1.801,1.46-3.271,3.26-3.271h59.74C230.353,99.283,231.813,100.753,231.813,102.554z"/>
			</g>
			<g>
				<path fill="#FBC96B" d="M225.773,107.093v94.171c0,0.97-0.79,1.76-1.77,1.76h-50.641c-0.979,0-1.77-0.79-1.77-1.76v-94.171
					c0-0.969,0.79-1.76,1.77-1.76h50.641C224.983,105.333,225.773,106.124,225.773,107.093z"/>
			</g>
			<g>
				<path fill="#FF6666" d="M198.683,211.679L198.683,211.679c-1.693,0-3.067-1.373-3.067-3.066l0,0
					c0-1.694,1.374-3.067,3.067-3.067l0,0c1.694,0,3.067,1.373,3.067,3.067l0,0C201.75,210.306,200.377,211.679,198.683,211.679z"/>
			</g>
			<linearGradient id="SVGID_9_" gradientUnits="userSpaceOnUse" x1="198.6831" y1="140.7334" x2="198.6831" y2="113.6175">
				<stop  offset="0" style="stop-color:#4F2280"/>
				<stop  offset="1" style="stop-color:#D4145A"/>
			</linearGradient>
			<path opacity="0.33" fill="url(#SVGID_9_)" d="M225.773,107.093v28.721h-54.18v-28.721c0-0.969,0.79-1.76,1.77-1.76h50.641
				C224.983,105.333,225.773,106.124,225.773,107.093z"/>
			<linearGradient id="SVGID_10_" gradientUnits="userSpaceOnUse" x1="198.6831" y1="140.7334" x2="198.6831" y2="113.6179">
				<stop  offset="0" style="stop-color:#4F2280"/>
				<stop  offset="1" style="stop-color:#D4145A"/>
			</linearGradient>
			<circle opacity="0.33" fill="url(#SVGID_10_)" cx="198.683" cy="135.813" r="12.5"/>
			<g>
				<path fill="#FFFFFF" d="M200.706,136.235c0.618-0.556,1.009-1.357,1.009-2.254v-1.491c0-1.659-1.279-3.106-2.938-3.157
					c-1.716-0.051-3.124,1.325-3.124,3.03v1.618c0,0.896,0.391,1.698,1.009,2.254c-2.039,0.68-3.622,2.356-4.165,4.453
					c-0.212,0.816,0.436,1.605,1.279,1.605h9.816c0.844,0,1.491-0.789,1.28-1.605C204.328,138.592,202.745,136.915,200.706,136.235z
					"/>
			</g>
			<g opacity="0.2">
				<path d="M231.813,148.203v33.54c-0.78,0.11-1.58,0.17-2.39,0.17c-9.351,0-16.931-7.59-16.931-16.939
					c0-9.36,7.58-16.94,16.931-16.94c0.189,0,0.38,0.01,0.569,0.021C230.613,148.073,231.213,148.123,231.813,148.203z"/>
			</g>
			<g>
				<path fill="#4C37A8" d="M247.683,170.11c1.701-2.636,2.683-5.772,2.683-9.138c0-6.979-4.216-12.97-10.247-15.561l-6.691,15.561
					L247.683,170.11z"/>
				<g>
					<path fill="#552283" d="M238.867,177.009l-5.439-16.036l0.563-16.922c-0.189-0.012-0.373-0.018-0.563-0.018
						c-9.351,0-16.938,7.582-16.938,16.939c0,9.351,7.588,16.938,16.938,16.938C235.329,177.911,237.161,177.595,238.867,177.009z"
						/>
				</g>
				<g>
					<path fill="#EB5259" d="M238.867,177.009c3.67-1.234,6.772-3.699,8.816-6.898l-14.256-9.138L238.867,177.009z"/>
				</g>
				<g>
					<path fill="#C5D7D8" d="M240.119,145.412c-1.89-0.821-3.957-1.298-6.129-1.361l-0.563,16.922L240.119,145.412z"/>
				</g>
			</g>
			<linearGradient id="SVGID_11_" gradientUnits="userSpaceOnUse" x1="233.4272" y1="177.4834" x2="233.4272" y2="134.7325">
				<stop  offset="0" style="stop-color:#4F2280"/>
				<stop  offset="1" style="stop-color:#D4145A"/>
			</linearGradient>
			<path opacity="0.33" fill="url(#SVGID_11_)" d="M240.119,145.412c-1.89-0.821-3.957-1.298-6.129-1.361
				c-0.189-0.012-0.373-0.018-0.563-0.018c-9.351,0-16.938,7.582-16.938,16.939c0,9.351,7.588,16.938,16.938,16.938
				c1.901,0,3.733-0.316,5.439-0.902c3.67-1.234,6.772-3.699,8.816-6.898c1.701-2.636,2.683-5.772,2.683-9.138
				C250.366,153.993,246.15,148.003,240.119,145.412z"/>
			<g>
				<path fill="#FFFFFF" d="M198.683,151.653c-0.271,0-0.521-0.11-0.71-0.3c-0.19-0.181-0.29-0.44-0.29-0.7
					c0-0.13,0.02-0.26,0.08-0.39c0.05-0.12,0.12-0.23,0.21-0.32c0.05-0.05,0.1-0.09,0.149-0.12c0.061-0.04,0.12-0.07,0.181-0.1
					c0.06-0.021,0.12-0.04,0.18-0.051c0.13-0.029,0.27-0.029,0.39,0c0.07,0.011,0.13,0.03,0.19,0.051c0.06,0.029,0.12,0.06,0.17,0.1
					c0.06,0.03,0.11,0.07,0.16,0.12c0.09,0.09,0.16,0.2,0.21,0.32c0.05,0.13,0.08,0.25,0.08,0.39c0,0.26-0.101,0.52-0.29,0.7
					C199.203,151.543,198.953,151.653,198.683,151.653z"/>
				<path fill="#FFFFFF" d="M197.683,158.313c0-0.55,0.45-1,1-1l0,0c0.55,0,1,0.45,1,1l0,0c0,0.55-0.45,1-1,1l0,0
					C198.133,159.313,197.683,158.863,197.683,158.313z M197.683,154.483c0-0.55,0.45-1,1-1l0,0c0.55,0,1,0.45,1,1l0,0
					c0,0.55-0.45,1-1,1l0,0C198.133,155.483,197.683,155.033,197.683,154.483z"/>
				<path fill="#FFFFFF" d="M198.683,163.153c-0.271,0-0.521-0.11-0.71-0.3c-0.09-0.09-0.16-0.2-0.221-0.32
					c-0.05-0.12-0.069-0.25-0.069-0.38c0-0.271,0.109-0.521,0.29-0.71c0.05-0.05,0.1-0.09,0.149-0.13
					c0.061-0.03,0.12-0.061,0.181-0.09c0.06-0.021,0.12-0.04,0.18-0.051c0.13-0.029,0.27-0.029,0.39,0
					c0.07,0.011,0.13,0.03,0.19,0.051c0.06,0.029,0.12,0.06,0.17,0.09c0.06,0.04,0.11,0.08,0.16,0.13c0.09,0.09,0.16,0.2,0.21,0.32
					c0.05,0.13,0.08,0.26,0.08,0.39c0,0.26-0.101,0.51-0.29,0.7C199.203,163.043,198.953,163.153,198.683,163.153z"/>
				<path fill="#FFFFFF" d="M208.553,162.153c0-0.561,0.449-1,1-1l0,0c0.56,0,1,0.439,1,1l0,0c0,0.55-0.44,1-1,1l0,0
					C209.002,163.153,208.553,162.703,208.553,162.153z M204.933,162.153c0-0.561,0.45-1,1-1l0,0c0.55,0,1,0.439,1,1l0,0
					c0,0.55-0.45,1-1,1l0,0C205.383,163.153,204.933,162.703,204.933,162.153z M201.313,162.153c0-0.561,0.439-1,0.99-1l0,0
					c0.56,0,1.01,0.439,1.01,1l0,0c0,0.55-0.45,1-1.01,1l0,0C201.752,163.153,201.313,162.703,201.313,162.153z"/>
				<path fill="#FFFFFF" d="M213.183,163.153c-0.271,0-0.521-0.11-0.71-0.3c-0.19-0.181-0.29-0.44-0.29-0.7
					c0-0.271,0.109-0.521,0.29-0.71c0.38-0.37,1.04-0.37,1.42,0c0.18,0.189,0.29,0.439,0.29,0.71c0,0.26-0.101,0.52-0.29,0.7
					C213.703,163.043,213.453,163.153,213.183,163.153z"/>
			</g>
			<rect x="176.516" y="169.11" fill="#DDA345" width="33.334" height="2"/>
			<rect x="176.516" y="175.15" fill="#DDA345" width="33.334" height="2"/>
			<rect x="176.516" y="180.913" fill="#DDA345" width="12.667" height="2"/>
			<linearGradient id="SVGID_12_" gradientUnits="userSpaceOnUse" x1="188.5581" y1="196.4912" x2="208.8081" y2="196.4912">
				<stop  offset="0" style="stop-color:#4F2280"/>
				<stop  offset="1" style="stop-color:#D4145A"/>
			</linearGradient>
			<path opacity="0.33" fill="url(#SVGID_12_)" d="M188.558,201.554c0-5.592,4.533-10.125,10.125-10.125s10.125,4.533,10.125,10.125
				"/>
			<linearGradient id="SVGID_13_" gradientUnits="userSpaceOnUse" x1="176.6001" y1="110.8174" x2="220.7661" y2="110.8174">
				<stop  offset="0" style="stop-color:#4F2280"/>
				<stop  offset="1" style="stop-color:#D4145A"/>
			</linearGradient>
			<rect x="176.6" y="109.817" fill="url(#SVGID_13_)" width="44.166" height="2"/>
			<path fill="#FFFFFF" d="M239.523,136.653c0-0.561,0.44-1,1-1l0,0c0.55,0,1,0.439,1,1l0,0c0,0.55-0.45,1-1,1l0,0
				C239.963,137.653,239.523,137.203,239.523,136.653z M239.523,132.653c0-0.561,0.44-1,1-1l0,0c0.55,0,1,0.439,1,1l0,0
				c0,0.55-0.45,1-1,1l0,0C239.963,133.653,239.523,133.203,239.523,132.653z M239.523,128.653c0-0.561,0.44-1,1-1l0,0
				c0.55,0,1,0.439,1,1l0,0c0,0.55-0.45,1-1,1l0,0C239.963,129.653,239.523,129.203,239.523,128.653z M239.523,124.653
				c0-0.561,0.44-1,1-1l0,0c0.55,0,1,0.439,1,1l0,0c0,0.55-0.45,1-1,1l0,0C239.963,125.653,239.523,125.203,239.523,124.653z
				 M239.523,120.653c0-0.561,0.44-1,1-1l0,0c0.55,0,1,0.439,1,1l0,0c0,0.55-0.45,1-1,1l0,0
				C239.963,121.653,239.523,121.203,239.523,120.653z M239.523,116.653c0-0.561,0.44-1,1-1l0,0c0.55,0,1,0.439,1,1l0,0
				c0,0.55-0.45,1-1,1l0,0C239.963,117.653,239.523,117.203,239.523,116.653z M239.523,112.653c0-0.561,0.44-1,1-1l0,0
				c0.55,0,1,0.439,1,1l0,0c0,0.55-0.45,1-1,1l0,0C239.963,113.653,239.523,113.203,239.523,112.653z M239.523,108.653
				c0-0.561,0.44-1,1-1l0,0c0.55,0,1,0.439,1,1l0,0c0,0.55-0.45,1-1,1l0,0C239.963,109.653,239.523,109.203,239.523,108.653z
				 M239.523,104.653c0-0.561,0.44-1,1-1l0,0c0.55,0,1,0.439,1,1l0,0c0,0.55-0.45,1-1,1l0,0
				C239.963,105.653,239.523,105.203,239.523,104.653z M239.523,100.653c0-0.561,0.44-1,1-1l0,0c0.55,0,1,0.439,1,1l0,0
				c0,0.55-0.45,1-1,1l0,0C239.963,101.653,239.523,101.203,239.523,100.653z M239.523,96.653c0-0.561,0.44-1,1-1l0,0
				c0.55,0,1,0.439,1,1l0,0c0,0.55-0.45,1-1,1l0,0C239.963,97.653,239.523,97.203,239.523,96.653z M239.523,92.653
				c0-0.561,0.44-1,1-1l0,0c0.55,0,1,0.439,1,1l0,0c0,0.55-0.45,1-1,1l0,0C239.963,93.653,239.523,93.203,239.523,92.653z
				 M239.523,88.653c0-0.561,0.44-1,1-1l0,0c0.55,0,1,0.439,1,1l0,0c0,0.55-0.45,1-1,1l0,0
				C239.963,89.653,239.523,89.203,239.523,88.653z M238.523,85.653c0-0.561,0.44-1,1-1l0,0c0.55,0,1,0.439,1,1l0,0
				c0,0.55-0.45,1-1,1l0,0C238.963,86.653,238.523,86.203,238.523,85.653z M234.523,85.653c0-0.561,0.44-1,1-1l0,0
				c0.55,0,1,0.439,1,1l0,0c0,0.55-0.45,1-1,1l0,0C234.963,86.653,234.523,86.203,234.523,85.653z M230.523,85.653
				c0-0.561,0.44-1,1-1l0,0c0.55,0,1,0.439,1,1l0,0c0,0.55-0.45,1-1,1l0,0C230.963,86.653,230.523,86.203,230.523,85.653z
				 M226.523,85.653c0-0.561,0.44-1,1-1l0,0c0.55,0,1,0.439,1,1l0,0c0,0.55-0.45,1-1,1l0,0
				C226.963,86.653,226.523,86.203,226.523,85.653z M222.523,85.653c0-0.561,0.44-1,1-1l0,0c0.55,0,1,0.439,1,1l0,0
				c0,0.55-0.45,1-1,1l0,0C222.963,86.653,222.523,86.203,222.523,85.653z M218.523,85.653c0-0.561,0.44-1,1-1l0,0
				c0.55,0,1,0.439,1,1l0,0c0,0.55-0.45,1-1,1l0,0C218.963,86.653,218.523,86.203,218.523,85.653z M214.523,85.653
				c0-0.561,0.45-1,1-1l0,0c0.55,0,1,0.439,1,1l0,0c0,0.55-0.45,1-1,1l0,0C214.973,86.653,214.523,86.203,214.523,85.653z
				 M210.523,85.653c0-0.561,0.44-1,1-1l0,0c0.55,0,1,0.439,1,1l0,0c0,0.55-0.45,1-1,1l0,0
				C210.963,86.653,210.523,86.203,210.523,85.653z M206.523,85.653c0-0.561,0.44-1,1-1l0,0c0.55,0,1,0.439,1,1l0,0
				c0,0.55-0.45,1-1,1l0,0C206.963,86.653,206.523,86.203,206.523,85.653z M202.523,85.653c0-0.561,0.44-1,1-1l0,0
				c0.55,0,1,0.439,1,1l0,0c0,0.55-0.45,1-1,1l0,0C202.963,86.653,202.523,86.203,202.523,85.653z M198.523,85.653
				c0-0.561,0.44-1,1-1l0,0c0.55,0,1,0.439,1,1l0,0c0,0.55-0.45,1-1,1l0,0C198.963,86.653,198.523,86.203,198.523,85.653z
				 M194.523,85.653c0-0.561,0.44-1,1-1l0,0c0.55,0,1,0.439,1,1l0,0c0,0.55-0.45,1-1,1l0,0
				C194.963,86.653,194.523,86.203,194.523,85.653z M190.523,85.653c0-0.561,0.44-1,1-1l0,0c0.55,0,1,0.439,1,1l0,0
				c0,0.55-0.45,1-1,1l0,0C190.963,86.653,190.523,86.203,190.523,85.653z M186.523,85.653c0-0.561,0.44-1,1-1l0,0
				c0.55,0,1,0.439,1,1l0,0c0,0.55-0.45,1-1,1l0,0C186.963,86.653,186.523,86.203,186.523,85.653z M182.523,85.653
				c0-0.561,0.44-1,1-1l0,0c0.55,0,1,0.439,1,1l0,0c0,0.55-0.45,1-1,1l0,0C182.963,86.653,182.523,86.203,182.523,85.653z"/>
			<g>
				<g opacity="0.5">
					<path fill="#FBC96B" d="M176.773,73.488v94.17c0,0.97-0.79,1.76-1.77,1.76h-50.641c-0.979,0-1.77-0.79-1.77-1.76v-94.17
						c0-0.97,0.79-1.76,1.77-1.76h50.641C175.983,71.729,176.773,72.519,176.773,73.488z"/>
				</g>
				<g>
					<g opacity="0.6">
						<rect x="126.939" y="76.075" fill="#EA5D3F" width="22.977" height="22.976"/>
					</g>
					<rect x="140.1" y="100.337" opacity="0.6" fill="#FF6666" width="9.815" height="9.816"/>
				</g>
			</g>
			<g>
				<ellipse opacity="0.32" fill="#D8BDA7" cx="150.767" cy="252.53" rx="26.006" ry="3.203"/>
				<path fill="#E49F98" d="M192.4,150.391c0.189-0.048,0.313,0.063,0.043,0.252c-0.561,0.392-1.384,1.516-1.71,1.92
					c-0.481,0.595-1.265,1.887-2.256,2.579c-0.992,0.691-5.535,2.68-6.252,2.771c-0.679,0.086-1.938-0.063-0.397-2.928
					c0.81-1.506,1.292-1.771,2.233-2.136c0.816-0.316,2.722-1.225,3.007-1.13c0.285,0.096,0.105,0.521-1.879,1.703
					c-0.313,0.363,1.38,0.865,2.014,0.744c0.635-0.122,1.038-2.313,1.446-2.698c0.353-0.335,0.682-0.387,0.891-0.311
					c0.217,0.078-0.226,0.667-0.527,1.359c-0.303,0.692-0.107,1.095-0.107,1.095s1.622-2.113,2.242-2.577
					C191.718,150.608,191.762,150.55,192.4,150.391z"/>
				<path fill="#F8B7B0" d="M179.054,159.714c0,0,1.216-1.491,2.267-3.333c0.437-0.765,2.694-1.764,4.281-1.495
					c0,0,0.836-2.772,1.339-3.04s0.909-0.132,0.618,0.416c-0.291,0.547-0.742,2.132-0.742,2.132s1.242,0.497,1.423-0.593
					c0.181-1.089,1.099-2.594,1.77-2.761c0.67-0.167,0.725,0.05,0.177,0.709c-0.549,0.659-0.782,1.816-0.649,2.159
					c0.133,0.344-1.13,1.371-2.203,2.019s-3.979,1.941-4.808,2.813c-0.827,0.871-5.191,6.945-5.191,6.945l-3.14-1.544
					L179.054,159.714z"/>
				<path fill="#F8B7B0" d="M151.961,147.713c4.146,0.553,6.772-1.751,7.603-2.811c0.829-1.06-1.844-2.12-2.811-3.179
					c-0.413-0.452-0.583-1.188-0.594-2.124c-0.019-1.265,0.249-2.897,0.594-4.696l-8.34-1.475c0,0,0.276,4.193,0.276,5.76
					c0,0.28-0.033,0.518-0.102,0.73c-0.304,0.977-1.303,1.393-2.894,2.68C143.759,144.165,147.814,147.16,151.961,147.713z"/>
				<path fill="#1C1E38" d="M146.987,130.826c-0.716-0.069-1.147,0.076-1.378-3.202c-0.099-1.406-0.093-2.627,1.278-4.072
					c0,0,1.759-0.381,1.964,1.88S148.507,130.407,146.987,130.826z"/>
				<path fill="#E49F98" d="M148.691,139.188c0,0.103-0.004,0.2-0.016,0.293c0.93,0.863,1.995,1.515,2.859,1.515
					c1.345,0,3.002-0.671,4.641-2.085c0.063-1.145,0.293-2.521,0.578-4.008l-8.339-1.475
					C148.415,133.429,148.691,137.622,148.691,139.188z"/>
				<path fill="#F8B7B0" d="M158.289,130.875c-0.358,3.587-0.6,5.325-2.166,6.794s-3.179,2.165-4.47,2.165
					c-1.612,0-4.008-2.546-4.423-4.063c-0.43-1.571-1.021-5.619-0.507-9.547c0.261-1.99,2.719-4.405,5.253-4.405
					S159.164,122.112,158.289,130.875z"/>
				
					<ellipse transform="matrix(-0.9761 0.2174 -0.2174 -0.9761 319.5454 227.9533)" fill="#F8B7B0" cx="147.232" cy="131.556" rx="1.271" ry="2.427"/>
				<path fill="#1C1E38" d="M158.489,124.444c0,0-2.892,1.596-7.526,0.939c-4.35-0.617-4.347-1.676-4.347-1.676
					s0.753-2.903,3.747-3.088C153.358,120.437,157.643,120.62,158.489,124.444z"/>
				<path fill="#1C1E38" d="M157.782,130.826c-0.716-0.069-1.147,0.076-1.378-3.202c-0.1-1.406-0.093-2.627,1.278-4.072
					c0,0,1.759-0.381,1.964,1.88S159.302,130.407,157.782,130.826z"/>
				<path fill="#F22F5D" d="M171.056,163.229l8.445-4.265l0.751,5.317l-12.21,6.465l-5.345-11.979c0,0-0.087,17.886-0.323,20.368
					c-0.229,2.424-0.813,2.669-1.857,2.669c-5.044,0-14.453,0-16.895,0c-1.152,0-1.979-1.238-1.782-3.439
					c0.16-1.782,1.295-16.34,0.813-22.852c0,0-0.835,5.595-1.352,11.764l10.568,9.303l-1.44,4.212l-15.005-10.229
					c0,0,0.14-20.818,4.613-24.973c1.721-1.598,5.918-4.485,7.762-4.854l4.661,2.691l0.399,1.057l0.234-1.088l2.998-2.24
					c2.765,0.471,6.758,3.235,7.342,4.372C164.796,148.18,171.056,163.229,171.056,163.229z"/>
				
					<ellipse transform="matrix(-0.9258 -0.378 0.378 -0.9258 255.4328 312.6042)" fill="#F8B7B0" cx="158.396" cy="131.233" rx="1.271" ry="2.426"/>
				<path fill="#CC1D4F" d="M148.183,139.48c0,0-0.952,0.556-1.2,1.977c0,0,1.131,2.28,3.734,4.685c0,0,0.659-2.283,1.744-2.715
					L148.183,139.48z"/>
				<path fill="#CC1D4F" d="M156.664,139.349c0,0,0.473,1.076,0.357,2.361c0,0-1.153,2.773-3.201,4.401c0,0,0.268-1.665-0.725-2.716
					L156.664,139.349z"/>
				<g>
					<path fill="#CC1D4F" d="M142.507,168.337c-0.13,2.548-0.285,4.941-0.415,6.77l-2.369-1.615
						c0.533-1.898,1.626-4.706,2.059-5.793L142.507,168.337z"/>
				</g>
				<g>
					<path fill="#4C37A8" d="M140.319,246.889c0.325,1.204,0.893,2.097,0.496,2.787c-0.396,0.691-0.132,1.152,0.309,2.12
						s1.816,2.878-1.819,2.948c-3.891,0.076-5.846-0.921-5.186-3.041c0.661-2.119,0.577-2.811,0.533-3.501
						c-0.044-0.691,0.148-1.41,0.589-1.825C135.681,245.963,139.747,244.77,140.319,246.889z"/>
					<path fill="#4C37A8" d="M162.205,245.529c0.328,0.741,2.027,2.525,4.47,3.797c2.441,1.271,7.556,2.377,4.516,3.114
						c-3.041,0.737-5.068,0.646-9.676-0.875c-1.936-0.553-1.751-0.646-3.825-0.553c-2.073,0.092-3.594,0.645-2.626-3.364
						C156.031,243.641,161.145,243.134,162.205,245.529z"/>
					<g>
						<path fill="#FCBA6B" d="M141.851,180.043c0,0,0-0.853,0.747-0.953c0.746-0.101,1.867-0.352,10.191-0.352
							s9.658,0.201,9.658,0.77c0,0,0.854,28.234,0.641,32.951c-0.214,4.718-0.854,28.102-0.641,30.21
							c0.214,2.107,0.675,3.713,0.675,3.713l-3.022-0.803c0,0-4.66,2.677-5.194,3.58c-0.533,0.902-0.076-2.003-0.355-4.985
							c-0.284-3.044,0.427-27.679,0.533-31.102c0.107-3.423-2.027-21.538-2.027-21.538h-1.494c0,0-4.322,14.302-4.962,18.115
							c-0.641,3.813-1.239,6.341-1.726,8.33c-0.706,2.89-3.591,24.621-3.91,26.628c-0.32,2.008,0,4.124,0,4.124l-1.758-1.743
							c0,0-4.07,0.396-4.711,1.869c0,0,1.912-30.979,2.979-35.193C138.542,209.448,141.851,180.043,141.851,180.043z"/>
					</g>
				</g>
				<path fill="#E49F98" d="M149.564,133.446c0.06,0.527,0.598,0.94,1.254,0.94c0.516,0,0.96-0.256,1.151-0.624
					c-0.282,0.191-0.642,0.307-1.036,0.307C150.357,134.069,149.85,133.821,149.564,133.446z"/>
				<path fill="#CC1D4F" d="M180.313,157.807c0,0,0.857,4.94,0.776,6.704l-3.181,1.817l0.336-7.398L180.313,157.807z"/>
			</g>
			<g>
				<linearGradient id="SVGID_14_" gradientUnits="userSpaceOnUse" x1="138.4268" y1="81.2344" x2="138.4268" y2="90.8157">
					<stop  offset="0" style="stop-color:#4F2280"/>
					<stop  offset="1" style="stop-color:#D4145A"/>
				</linearGradient>
				<path opacity="0.33" fill="url(#SVGID_14_)" d="M143.683,85.686c0,2.902-5.256,9.01-5.256,9.01s-5.256-6.107-5.256-9.01
					c0-2.903,2.354-5.255,5.256-5.255S143.683,82.782,143.683,85.686z"/>
				<linearGradient id="SVGID_15_" gradientUnits="userSpaceOnUse" x1="138.4277" y1="81.2344" x2="138.4277" y2="90.8158">
					<stop  offset="0" style="stop-color:#4F2280"/>
					<stop  offset="1" style="stop-color:#D4145A"/>
				</linearGradient>
				<circle opacity="0.33" fill="url(#SVGID_15_)" cx="138.428" cy="85.751" r="2.229"/>
			</g>
			<g>
				<g>
					<path fill="#FBC96B" d="M120.273,150.764c-5.08,2.782-11.476,0.914-14.259-4.166c-2.782-5.08-0.914-11.476,4.166-14.259
						s11.477-0.914,14.259,4.166C127.222,141.585,125.353,147.98,120.273,150.764z M111.19,134.181
						c-4.064,2.227-5.56,7.344-3.333,11.407c2.227,4.064,7.343,5.56,11.407,3.333c4.063-2.227,5.559-7.344,3.332-11.407
						C120.371,133.45,115.253,131.955,111.19,134.181z"/>
					<path fill="#FBC96B" d="M119.723,140.286l-3.992,2.186c-0.508,0.279-1.146,0.092-1.426-0.416l-3.195-5.834
						c-0.279-0.51-0.093-1.148,0.416-1.426c0.509-0.279,1.147-0.093,1.426,0.416l2.691,4.913l3.071-1.683
						c0.509-0.277,1.147-0.092,1.426,0.417S120.232,140.007,119.723,140.286z"/>
				</g>
			</g>
		</g>
		<g display="none">
			<text transform="matrix(1 0 0 1 -37.3164 -545.2617)" display="inline"><tspan x="0" y="0" fill="#4C37A8" font-family="'Rubik-MediumItalic'" font-size="8">company</tspan><tspan x="31.264" y="0" fill="#4C37A8" font-family="'Rubik-Light'" font-size="8"> </tspan><tspan x="32.959" y="0" fill="#4C37A8" font-family="'Rubik-Black'" font-size="8">logo</tspan></text>
			<text transform="matrix(1 0 0 1 -37.3164 -450.8115)" display="inline"><tspan x="0" y="0" font-family="'Rubik-Medium'" font-size="25">Applications</tspan><tspan x="0" y="26" font-family="'Rubik-Medium'" font-size="25">Development</tspan></text>
			<rect x="-37.316" y="-402.062" display="inline" fill="none" width="125.674" height="37.667"/>
			<text transform="matrix(1 0 0 1 -37.3164 -398.5127)" display="inline"><tspan x="0" y="0" fill="#C1C1C1" font-family="'Rubik-Regular'" font-size="5">Ut wisi enim ad minim veniam, quis nostrud exerci tation </tspan><tspan x="0" y="6" fill="#C1C1C1" font-family="'Rubik-Regular'" font-size="5">ullamcorper suscipit lobortis nisl ut aliquip ex ea commodo </tspan><tspan x="0" y="12" fill="#C1C1C1" font-family="'Rubik-Regular'" font-size="5">consequat. </tspan><tspan x="0" y="24" fill="#C1C1C1" font-family="'Rubik-Regular'" font-size="5">Lorem ipsum!</tspan></text>
			<path display="inline" fill="#4C37A8" d="M283.152-536.728h38.063c0.812,0,1.469-0.658,1.469-1.469v-12.396
				c0-0.811-0.657-1.469-1.469-1.469h-38.063c-0.812,0-1.469,0.658-1.469,1.469v12.396
				C281.683-537.386,282.34-536.728,283.152-536.728z"/>
			<g display="inline">
				<text transform="matrix(1 0 0 1 290.4487 -542.582)" fill="#FFFFFF" font-family="'Rubik-Regular'" font-size="5">Get Started</text>
			</g>
			<g display="inline">
				<text transform="matrix(1 0 0 1 138.6768 -542.5825)" fill="#FFFFFF" font-family="'Rubik-Regular'" font-size="5">Home</text>
			</g>
			<g display="inline">
				<text transform="matrix(1 0 0 1 168.4116 -542.582)" fill="#FFFFFF" font-family="'Rubik-Regular'" font-size="5">About Us</text>
			</g>
			<g display="inline">
				<text transform="matrix(1 0 0 1 205.9185 -542.582)" fill="#FFFFFF" font-family="'Rubik-Regular'" font-size="5">Services</text>
			</g>
			<g display="inline">
				<text transform="matrix(1 0 0 1 241.4028 -542.582)" fill="#FFFFFF" font-family="'Rubik-Regular'" font-size="5">Contact Us</text>
			</g>
			<path display="inline" fill="#4C37A8" d="M-27.172-329.773H6.789c5.603,0,10.144-4.541,10.144-10.144l0,0
				c0-5.603-4.542-10.145-10.144-10.145h-33.961c-5.603,0-10.144,4.542-10.144,10.145l0,0
				C-37.316-334.314-32.775-329.773-27.172-329.773z"/>
			<g display="inline">
				<text transform="matrix(1 0 0 1 -25.854 -337.5186)" fill="#FFFFFF" font-family="'Rubik-Regular'" font-size="6.6158">Learn more</text>
			</g>
			
				<text transform="matrix(1 0 0 1 24.2246 -337.5186)" display="inline" fill="#4C37A8" font-family="'Rubik-Regular'" font-size="5" text-decoration=" underline">or contact</text>
		</g>
	</g>
</g>
<g id="Layer_4">
</g>
<g id="Designed_by_Freepik">
	<g>
		<g>
			<g>
				<g>
					<path fill="#FFF8FA" d="M72.991-199.769v-0.161c-0.218,0.249-0.433,0.452-0.644,0.608s-0.441,0.275-0.689,0.356
						c-0.247,0.082-0.517,0.122-0.81,0.122c-0.388,0-0.747-0.082-1.078-0.246c-0.33-0.164-0.616-0.399-0.857-0.704
						c-0.242-0.305-0.425-0.662-0.549-1.074s-0.187-0.856-0.187-1.335c0-1.014,0.248-1.804,0.742-2.37
						c0.495-0.564,1.146-0.848,1.953-0.848c0.467,0,0.861,0.08,1.181,0.239c0.321,0.161,0.633,0.408,0.938,0.739v-2.392
						c0-0.333,0.066-0.584,0.199-0.754c0.132-0.17,0.321-0.255,0.566-0.255s0.434,0.078,0.567,0.234s0.199,0.386,0.199,0.691v7.147
						c0,0.309-0.071,0.54-0.213,0.694c-0.143,0.153-0.326,0.231-0.552,0.231c-0.222,0-0.404-0.08-0.549-0.24
						C73.063-199.244,72.991-199.473,72.991-199.769z M69.803-202.149c0,0.439,0.068,0.813,0.205,1.122
						c0.137,0.309,0.323,0.541,0.561,0.696c0.237,0.157,0.497,0.236,0.777,0.236c0.285,0,0.545-0.075,0.781-0.224
						c0.235-0.147,0.423-0.376,0.564-0.682c0.141-0.308,0.21-0.691,0.21-1.149c0-0.432-0.07-0.803-0.21-1.114
						c-0.141-0.31-0.33-0.547-0.57-0.712c-0.24-0.164-0.502-0.245-0.787-0.245c-0.296,0-0.562,0.084-0.795,0.252
						c-0.233,0.168-0.415,0.409-0.543,0.724C69.867-202.93,69.803-202.565,69.803-202.149z"/>
					<path fill="#FFF8FA" d="M80.137-201.739h-3.169c0.004,0.367,0.078,0.692,0.223,0.973c0.144,0.281,0.336,0.493,0.576,0.636
						c0.24,0.143,0.504,0.213,0.792,0.213c0.194,0,0.371-0.022,0.531-0.067c0.161-0.046,0.315-0.116,0.466-0.214
						c0.15-0.097,0.289-0.201,0.416-0.312c0.126-0.111,0.29-0.263,0.492-0.452c0.083-0.071,0.202-0.106,0.357-0.106
						c0.166,0,0.3,0.046,0.403,0.137c0.103,0.092,0.155,0.22,0.155,0.386c0,0.146-0.058,0.317-0.172,0.514
						c-0.116,0.195-0.289,0.384-0.52,0.563c-0.232,0.181-0.522,0.329-0.873,0.448c-0.35,0.119-0.753,0.179-1.208,0.179
						c-1.041,0-1.85-0.298-2.428-0.891c-0.578-0.594-0.866-1.399-0.866-2.416c0-0.479,0.071-0.924,0.213-1.332
						c0.143-0.41,0.351-0.762,0.623-1.055c0.273-0.293,0.609-0.517,1.009-0.674c0.399-0.156,0.843-0.233,1.33-0.233
						c0.633,0,1.176,0.132,1.629,0.4c0.454,0.267,0.793,0.612,1.019,1.035c0.225,0.424,0.338,0.855,0.338,1.294
						c0,0.408-0.117,0.672-0.35,0.793C80.89-201.801,80.561-201.739,80.137-201.739z M76.967-202.66h2.938
						c-0.039-0.554-0.189-0.969-0.448-1.243c-0.26-0.275-0.6-0.413-1.024-0.413c-0.404,0-0.735,0.14-0.994,0.418
						C77.18-203.619,77.023-203.206,76.967-202.66z"/>
					<path fill="#FFF8FA" d="M87.521-200.963c0,0.447-0.108,0.831-0.327,1.149c-0.217,0.318-0.539,0.561-0.964,0.725
						c-0.425,0.164-0.943,0.246-1.552,0.246c-0.582,0-1.08-0.09-1.496-0.268c-0.415-0.178-0.722-0.401-0.919-0.667
						c-0.198-0.269-0.297-0.535-0.297-0.806c0-0.178,0.063-0.33,0.19-0.456c0.126-0.126,0.287-0.19,0.481-0.19
						c0.17,0,0.3,0.042,0.391,0.125s0.179,0.2,0.261,0.35c0.167,0.29,0.366,0.504,0.597,0.647c0.231,0.143,0.547,0.214,0.947,0.214
						c0.324,0,0.59-0.072,0.798-0.217c0.208-0.146,0.311-0.31,0.311-0.496c0-0.285-0.107-0.492-0.323-0.623
						c-0.216-0.13-0.571-0.256-1.065-0.374c-0.558-0.139-1.012-0.284-1.362-0.437c-0.351-0.151-0.63-0.354-0.84-0.602
						c-0.209-0.25-0.314-0.557-0.314-0.921c0-0.324,0.097-0.631,0.291-0.92c0.194-0.288,0.48-0.52,0.858-0.691
						c0.377-0.173,0.833-0.259,1.368-0.259c0.419,0,0.796,0.043,1.13,0.131c0.335,0.087,0.614,0.204,0.837,0.351
						c0.224,0.146,0.394,0.309,0.51,0.486s0.175,0.352,0.175,0.522c0,0.186-0.062,0.339-0.187,0.457s-0.301,0.179-0.531,0.179
						c-0.167,0-0.308-0.048-0.424-0.144c-0.117-0.095-0.25-0.236-0.401-0.427c-0.123-0.158-0.266-0.285-0.433-0.38
						c-0.166-0.096-0.392-0.143-0.677-0.143c-0.293,0-0.536,0.062-0.73,0.188c-0.193,0.124-0.291,0.279-0.291,0.465
						c0,0.171,0.071,0.311,0.213,0.419c0.143,0.109,0.334,0.2,0.576,0.271s0.573,0.157,0.998,0.261
						c0.502,0.123,0.913,0.27,1.231,0.439c0.318,0.17,0.56,0.371,0.725,0.603C87.439-201.523,87.521-201.26,87.521-200.963z"/>
					<path fill="#FFF8FA" d="M89.177-206.186c-0.226,0-0.418-0.069-0.579-0.208s-0.241-0.334-0.241-0.588
						c0-0.23,0.083-0.418,0.247-0.567c0.164-0.148,0.355-0.223,0.573-0.223c0.21,0,0.396,0.067,0.558,0.202
						c0.163,0.135,0.244,0.33,0.244,0.588c0,0.249-0.08,0.444-0.238,0.585C89.582-206.257,89.394-206.186,89.177-206.186z
						 M89.979-204.512v4.683c0,0.325-0.077,0.571-0.232,0.737c-0.155,0.165-0.35,0.249-0.587,0.249
						c-0.238,0-0.431-0.085-0.579-0.256c-0.149-0.17-0.223-0.413-0.223-0.73v-4.636c0-0.32,0.074-0.562,0.223-0.725
						c0.148-0.162,0.341-0.243,0.579-0.243c0.237,0,0.433,0.081,0.587,0.243C89.901-205.026,89.979-204.801,89.979-204.512z"/>
					<path fill="#FFF8FA" d="M97.078-204.245v4.707c0,0.539-0.058,1.002-0.173,1.39c-0.114,0.388-0.298,0.708-0.552,0.962
						c-0.253,0.253-0.585,0.441-0.994,0.563c-0.41,0.123-0.919,0.184-1.529,0.184c-0.558,0-1.057-0.078-1.496-0.233
						c-0.439-0.157-0.777-0.359-1.015-0.606c-0.237-0.247-0.356-0.501-0.356-0.763c0-0.197,0.067-0.359,0.203-0.483
						c0.134-0.125,0.297-0.188,0.486-0.188c0.237,0,0.445,0.105,0.624,0.314c0.086,0.107,0.177,0.216,0.27,0.324
						c0.093,0.109,0.197,0.202,0.309,0.279c0.113,0.076,0.249,0.134,0.406,0.172c0.159,0.036,0.341,0.056,0.546,0.056
						c0.419,0,0.745-0.058,0.977-0.175c0.231-0.116,0.394-0.28,0.487-0.49c0.093-0.208,0.147-0.433,0.163-0.673
						s0.027-0.625,0.035-1.155c-0.25,0.349-0.537,0.614-0.864,0.796c-0.326,0.183-0.715,0.273-1.166,0.273
						c-0.542,0-1.016-0.139-1.422-0.416s-0.717-0.665-0.935-1.163c-0.218-0.499-0.326-1.074-0.326-1.728
						c0-0.486,0.065-0.927,0.198-1.317c0.133-0.393,0.322-0.723,0.567-0.992c0.246-0.269,0.528-0.472,0.849-0.608
						s0.673-0.204,1.057-0.204c0.459,0,0.857,0.088,1.193,0.263c0.336,0.178,0.649,0.453,0.938,0.829v-0.22
						c0-0.281,0.069-0.498,0.208-0.653c0.139-0.154,0.317-0.231,0.535-0.231c0.313,0,0.52,0.103,0.623,0.306
						C97.026-204.923,97.078-204.629,97.078-204.245z M92.382-202.19c0,0.656,0.143,1.153,0.43,1.489
						c0.287,0.337,0.658,0.505,1.113,0.505c0.269,0,0.523-0.072,0.762-0.217c0.24-0.145,0.435-0.362,0.585-0.653
						c0.15-0.291,0.226-0.644,0.226-1.06c0-0.66-0.146-1.176-0.437-1.543c-0.291-0.368-0.674-0.552-1.149-0.552
						c-0.463,0-0.834,0.176-1.113,0.528C92.521-203.341,92.382-202.84,92.382-202.19z"/>
					<path fill="#FFF8FA" d="M99.653-204.536v0.196c0.285-0.376,0.597-0.652,0.935-0.828s0.727-0.265,1.167-0.265
						c0.427,0,0.809,0.094,1.146,0.279c0.336,0.187,0.588,0.449,0.754,0.789c0.107,0.198,0.176,0.412,0.208,0.642
						c0.032,0.229,0.048,0.522,0.048,0.879v3.015c0,0.325-0.074,0.571-0.223,0.737c-0.148,0.165-0.341,0.249-0.579,0.249
						c-0.242,0-0.438-0.085-0.588-0.256c-0.15-0.17-0.225-0.413-0.225-0.73v-2.7c0-0.534-0.075-0.943-0.223-1.226
						c-0.148-0.283-0.444-0.425-0.888-0.425c-0.289,0-0.552,0.086-0.789,0.258c-0.237,0.173-0.412,0.409-0.522,0.71
						c-0.079,0.241-0.119,0.692-0.119,1.353v2.03c0,0.328-0.077,0.576-0.229,0.74c-0.152,0.164-0.349,0.246-0.59,0.246
						c-0.234,0-0.426-0.085-0.576-0.256c-0.15-0.17-0.226-0.413-0.226-0.73v-4.683c0-0.31,0.067-0.54,0.202-0.692
						s0.319-0.229,0.552-0.229c0.143,0,0.271,0.033,0.387,0.102c0.114,0.067,0.207,0.168,0.276,0.302
						C99.619-204.895,99.653-204.729,99.653-204.536z"/>
					<path fill="#FFF8FA" d="M109.512-201.739h-3.17c0.004,0.367,0.078,0.692,0.223,0.973c0.144,0.281,0.336,0.493,0.576,0.636
						c0.239,0.143,0.503,0.213,0.792,0.213c0.194,0,0.371-0.022,0.532-0.067c0.16-0.046,0.315-0.116,0.466-0.214
						c0.15-0.097,0.288-0.201,0.416-0.312c0.126-0.111,0.29-0.263,0.492-0.452c0.083-0.071,0.202-0.106,0.356-0.106
						c0.166,0,0.301,0.046,0.403,0.137c0.103,0.092,0.154,0.22,0.154,0.386c0,0.146-0.057,0.317-0.172,0.514
						c-0.115,0.195-0.288,0.384-0.52,0.563c-0.231,0.181-0.522,0.329-0.872,0.448c-0.351,0.119-0.753,0.179-1.208,0.179
						c-1.041,0-1.85-0.298-2.428-0.891c-0.577-0.594-0.866-1.399-0.866-2.416c0-0.479,0.071-0.924,0.214-1.332
						c0.142-0.41,0.351-0.762,0.624-1.055s0.609-0.517,1.009-0.674c0.399-0.156,0.843-0.233,1.33-0.233
						c0.633,0,1.175,0.132,1.629,0.4c0.453,0.267,0.792,0.612,1.019,1.035c0.225,0.424,0.338,0.855,0.338,1.294
						c0,0.408-0.117,0.672-0.351,0.793C110.265-201.801,109.936-201.739,109.512-201.739z M106.342-202.66h2.938
						c-0.04-0.554-0.189-0.969-0.448-1.243c-0.259-0.275-0.6-0.413-1.023-0.413c-0.404,0-0.736,0.14-0.995,0.418
						C106.555-203.619,106.398-203.206,106.342-202.66z"/>
					<path fill="#FFF8FA" d="M116.118-199.769v-0.161c-0.218,0.249-0.432,0.452-0.644,0.608c-0.211,0.156-0.441,0.275-0.688,0.356
						c-0.247,0.082-0.517,0.122-0.81,0.122c-0.389,0-0.748-0.082-1.078-0.246c-0.331-0.164-0.617-0.399-0.858-0.704
						c-0.242-0.305-0.425-0.662-0.549-1.074s-0.187-0.856-0.187-1.335c0-1.014,0.248-1.804,0.742-2.37
						c0.495-0.564,1.146-0.848,1.953-0.848c0.467,0,0.861,0.08,1.181,0.239c0.32,0.161,0.633,0.408,0.938,0.739v-2.392
						c0-0.333,0.066-0.584,0.199-0.754c0.132-0.17,0.322-0.255,0.567-0.255s0.434,0.078,0.567,0.234
						c0.132,0.156,0.199,0.386,0.199,0.691v7.147c0,0.309-0.071,0.54-0.214,0.694c-0.143,0.153-0.326,0.231-0.552,0.231
						c-0.221,0-0.404-0.08-0.549-0.24C116.19-199.244,116.118-199.473,116.118-199.769z M112.931-202.149
						c0,0.439,0.067,0.813,0.204,1.122c0.137,0.309,0.324,0.541,0.562,0.696c0.237,0.157,0.497,0.236,0.777,0.236
						c0.285,0,0.545-0.075,0.78-0.224c0.236-0.147,0.424-0.376,0.564-0.682c0.14-0.308,0.21-0.691,0.21-1.149
						c0-0.432-0.07-0.803-0.21-1.114c-0.141-0.31-0.331-0.547-0.57-0.712c-0.24-0.164-0.501-0.245-0.787-0.245
						c-0.296,0-0.562,0.084-0.795,0.252c-0.233,0.168-0.414,0.409-0.543,0.724C112.995-202.93,112.931-202.565,112.931-202.149z"/>
					<path fill="#FFF8FA" d="M122.742-206.916v2.475c0.304-0.316,0.615-0.559,0.932-0.727c0.316-0.168,0.708-0.252,1.175-0.252
						c0.538,0,1.01,0.127,1.416,0.382c0.405,0.256,0.72,0.626,0.944,1.11c0.223,0.484,0.335,1.06,0.335,1.726
						c0,0.49-0.063,0.939-0.187,1.35c-0.125,0.409-0.306,0.765-0.543,1.065c-0.238,0.301-0.525,0.534-0.863,0.698
						c-0.339,0.164-0.712,0.246-1.119,0.246c-0.25,0-0.484-0.029-0.704-0.09c-0.22-0.059-0.407-0.137-0.561-0.234
						c-0.154-0.096-0.286-0.196-0.395-0.3c-0.109-0.103-0.253-0.257-0.431-0.463v0.161c0,0.304-0.073,0.535-0.22,0.691
						c-0.146,0.156-0.332,0.234-0.558,0.234c-0.229,0-0.413-0.078-0.549-0.234c-0.137-0.156-0.205-0.388-0.205-0.691v-7.077
						c0-0.328,0.066-0.577,0.199-0.744c0.133-0.168,0.318-0.252,0.555-0.252c0.25,0,0.441,0.079,0.576,0.239
						C122.675-207.441,122.742-207.214,122.742-206.916z M122.819-202.102c0,0.645,0.147,1.14,0.442,1.486
						c0.294,0.347,0.682,0.521,1.161,0.521c0.407,0,0.759-0.178,1.053-0.532c0.295-0.354,0.442-0.861,0.442-1.522
						c0-0.428-0.061-0.796-0.184-1.104s-0.296-0.547-0.522-0.715c-0.226-0.168-0.489-0.252-0.79-0.252
						c-0.309,0-0.584,0.084-0.826,0.252s-0.431,0.411-0.57,0.729C122.889-202.921,122.819-202.541,122.819-202.102z"/>
					<path fill="#FFF8FA" d="M129.646-198.642l0.148-0.362l-1.995-5.021c-0.122-0.288-0.184-0.499-0.184-0.63
						c0-0.139,0.036-0.267,0.107-0.385c0.071-0.119,0.169-0.214,0.293-0.285c0.125-0.072,0.255-0.107,0.389-0.107
						c0.233,0,0.409,0.074,0.529,0.223c0.119,0.148,0.223,0.361,0.314,0.638l1.372,3.989l1.3-3.71
						c0.103-0.3,0.195-0.536,0.279-0.706c0.083-0.171,0.171-0.285,0.264-0.344c0.093-0.06,0.225-0.09,0.395-0.09
						c0.124,0,0.241,0.032,0.354,0.099c0.113,0.065,0.2,0.153,0.261,0.264c0.062,0.11,0.093,0.228,0.093,0.351
						c-0.017,0.074-0.042,0.182-0.078,0.32s-0.079,0.279-0.13,0.422l-2.113,5.532c-0.183,0.486-0.36,0.868-0.535,1.146
						c-0.174,0.276-0.404,0.49-0.691,0.638c-0.287,0.149-0.674,0.223-1.161,0.223c-0.475,0-0.831-0.051-1.068-0.153
						c-0.238-0.104-0.356-0.292-0.356-0.564c0-0.186,0.056-0.33,0.169-0.431c0.112-0.101,0.28-0.151,0.501-0.151
						c0.087,0,0.172,0.012,0.255,0.036c0.103,0.023,0.192,0.035,0.267,0.035c0.186,0,0.333-0.027,0.439-0.083
						c0.106-0.056,0.203-0.151,0.288-0.288C129.437-198.175,129.535-198.376,129.646-198.642z"/>
				</g>
				<g>
					<path fill="#FFF8FA" d="M153.123-205.292h0.387v-0.486c0-0.51,0.062-0.911,0.191-1.211c0.127-0.3,0.347-0.517,0.654-0.653
						c0.307-0.136,0.727-0.204,1.26-0.204c0.95,0,1.421,0.229,1.421,0.696c0,0.149-0.05,0.278-0.15,0.385
						c-0.097,0.105-0.214,0.16-0.349,0.16c-0.063,0-0.174-0.012-0.329-0.037c-0.148-0.021-0.283-0.035-0.39-0.035
						c-0.293,0-0.479,0.088-0.565,0.26c-0.08,0.172-0.122,0.418-0.122,0.74v0.386h0.395c0.62,0,0.927,0.186,0.927,0.56
						c0,0.262-0.079,0.432-0.246,0.503c-0.163,0.071-0.39,0.106-0.681,0.106h-0.395v4.295c0,0.319-0.075,0.563-0.231,0.729
						c-0.15,0.171-0.346,0.254-0.589,0.254c-0.229,0-0.419-0.083-0.573-0.254c-0.153-0.167-0.228-0.41-0.228-0.729v-4.295h-0.446
						c-0.243,0-0.427-0.052-0.559-0.163c-0.131-0.107-0.197-0.25-0.197-0.424C152.307-205.1,152.58-205.292,153.123-205.292"/>
					<path fill="#FFF8FA" d="M158.428-201.184v1.355c0,0.327-0.083,0.574-0.233,0.737c-0.154,0.166-0.35,0.246-0.586,0.246
						c-0.239,0-0.43-0.082-0.58-0.25c-0.147-0.165-0.225-0.41-0.225-0.733v-4.515c0-0.729,0.263-1.093,0.788-1.093
						c0.271,0,0.464,0.084,0.583,0.255s0.185,0.421,0.198,0.755c0.192-0.334,0.391-0.584,0.593-0.755
						c0.208-0.171,0.477-0.255,0.818-0.255c0.344,0,0.671,0.084,0.991,0.255c0.322,0.171,0.481,0.398,0.481,0.679
						c0,0.196-0.068,0.362-0.203,0.488c-0.138,0.13-0.284,0.194-0.441,0.194c-0.063,0-0.207-0.039-0.433-0.112
						c-0.229-0.071-0.431-0.108-0.603-0.108c-0.237,0-0.433,0.064-0.582,0.187c-0.151,0.128-0.269,0.311-0.353,0.554
						c-0.081,0.247-0.137,0.541-0.17,0.878C158.442-202.083,158.428-201.67,158.428-201.184"/>
					<path fill="#FFF8FA" d="M165.878-201.741h-3.171c0.005,0.367,0.077,0.694,0.222,0.975c0.146,0.278,0.337,0.491,0.578,0.635
						c0.24,0.143,0.502,0.213,0.793,0.213c0.193,0,0.37-0.021,0.53-0.07c0.159-0.043,0.315-0.115,0.466-0.213
						c0.151-0.095,0.288-0.198,0.415-0.313c0.126-0.108,0.292-0.26,0.494-0.449c0.084-0.07,0.202-0.108,0.354-0.108
						c0.168,0,0.302,0.047,0.406,0.139c0.104,0.092,0.152,0.219,0.152,0.386c0,0.147-0.056,0.317-0.167,0.512
						c-0.117,0.198-0.29,0.386-0.523,0.566c-0.233,0.179-0.523,0.33-0.873,0.446c-0.35,0.119-0.754,0.179-1.207,0.179
						c-1.045,0-1.853-0.295-2.43-0.889c-0.577-0.595-0.869-1.401-0.869-2.417c0-0.479,0.073-0.925,0.217-1.335
						c0.141-0.411,0.349-0.76,0.625-1.054c0.272-0.295,0.605-0.519,1.007-0.675c0.399-0.155,0.842-0.233,1.33-0.233
						c0.632,0,1.176,0.134,1.629,0.403c0.453,0.265,0.797,0.61,1.019,1.034c0.226,0.426,0.339,0.855,0.339,1.296
						c0,0.405-0.118,0.669-0.352,0.791C166.63-201.802,166.302-201.741,165.878-201.741 M162.708-202.663h2.938
						c-0.039-0.553-0.187-0.969-0.446-1.241c-0.262-0.276-0.6-0.412-1.025-0.412c-0.403,0-0.735,0.137-0.995,0.418
						C162.92-203.62,162.761-203.208,162.708-202.663"/>
					<path fill="#FFF8FA" d="M172.621-201.741h-3.171c0.004,0.367,0.078,0.694,0.222,0.975c0.145,0.278,0.337,0.491,0.576,0.635
						c0.239,0.143,0.503,0.213,0.794,0.213c0.192,0,0.371-0.021,0.528-0.07c0.162-0.043,0.316-0.115,0.469-0.213
						c0.151-0.095,0.287-0.198,0.415-0.313c0.124-0.108,0.29-0.26,0.492-0.449c0.085-0.07,0.204-0.108,0.355-0.108
						c0.168,0,0.302,0.047,0.406,0.139c0.104,0.092,0.15,0.219,0.15,0.386c0,0.147-0.055,0.317-0.171,0.512
						c-0.11,0.198-0.284,0.386-0.519,0.566c-0.231,0.179-0.525,0.33-0.872,0.446c-0.349,0.119-0.755,0.179-1.21,0.179
						c-1.041,0-1.849-0.295-2.429-0.889c-0.577-0.595-0.868-1.401-0.868-2.417c0-0.479,0.073-0.925,0.218-1.335
						c0.142-0.411,0.349-0.76,0.622-1.054c0.272-0.295,0.608-0.519,1.009-0.675c0.399-0.155,0.845-0.233,1.331-0.233
						c0.63,0,1.174,0.134,1.633,0.403c0.45,0.265,0.791,0.61,1.014,1.034c0.225,0.426,0.341,0.855,0.341,1.296
						c0,0.405-0.12,0.669-0.352,0.791C173.371-201.802,173.043-201.741,172.621-201.741 M169.45-202.663h2.938
						c-0.04-0.553-0.189-0.969-0.447-1.241c-0.263-0.276-0.601-0.412-1.026-0.412c-0.403,0-0.734,0.137-0.995,0.418
						C169.662-203.62,169.502-203.208,169.45-202.663"/>
					<path fill="#FFF8FA" d="M176.17-204.523v0.193c0.304-0.375,0.621-0.65,0.953-0.827c0.324-0.178,0.698-0.267,1.113-0.267
						c0.497,0,0.96,0.13,1.38,0.386c0.419,0.259,0.749,0.635,0.993,1.129c0.243,0.497,0.366,1.081,0.366,1.759
						c0,0.497-0.07,0.957-0.21,1.375s-0.336,0.767-0.581,1.05c-0.245,0.282-0.534,0.502-0.868,0.654
						c-0.339,0.15-0.694,0.227-1.08,0.227c-0.461,0-0.853-0.093-1.165-0.279c-0.314-0.183-0.614-0.458-0.901-0.816v2.434
						c0,0.709-0.26,1.068-0.777,1.068c-0.307,0-0.506-0.092-0.607-0.274c-0.095-0.187-0.146-0.452-0.146-0.807v-6.996
						c0-0.31,0.066-0.537,0.2-0.692c0.134-0.149,0.319-0.228,0.553-0.228c0.23,0,0.416,0.078,0.56,0.233
						C176.1-205.043,176.17-204.82,176.17-204.523 M179.348-202.169c0-0.428-0.066-0.796-0.196-1.102
						c-0.131-0.308-0.313-0.542-0.542-0.705c-0.229-0.164-0.488-0.248-0.77-0.248c-0.446,0-0.824,0.178-1.131,0.527
						c-0.308,0.354-0.462,0.872-0.462,1.559c0,0.642,0.152,1.146,0.46,1.504c0.304,0.358,0.678,0.536,1.133,0.536
						c0.268,0,0.519-0.079,0.748-0.232c0.231-0.158,0.415-0.392,0.552-0.704C179.279-201.348,179.348-201.727,179.348-202.169"/>
					<path fill="#FFF8FA" d="M182.608-206.19c-0.227,0-0.418-0.071-0.577-0.209c-0.162-0.139-0.242-0.333-0.242-0.585
						c0-0.23,0.082-0.419,0.248-0.569c0.164-0.146,0.354-0.222,0.571-0.222c0.212,0,0.397,0.066,0.559,0.199
						c0.162,0.137,0.244,0.334,0.244,0.592c0,0.249-0.079,0.444-0.236,0.584C183.015-206.262,182.828-206.19,182.608-206.19
						 M183.411-204.516v4.688c0,0.322-0.077,0.567-0.231,0.732c-0.156,0.168-0.351,0.25-0.588,0.25c-0.238,0-0.428-0.083-0.58-0.254
						c-0.146-0.173-0.223-0.415-0.223-0.729v-4.643c0-0.318,0.076-0.559,0.223-0.721c0.152-0.166,0.342-0.245,0.58-0.245
						c0.237,0,0.432,0.079,0.588,0.245C183.333-205.028,183.411-204.802,183.411-204.516"/>
					<path fill="#FFF8FA" d="M188.635-199.584l-1.428-2.354l-0.88,0.83v1.291c0,0.312-0.083,0.551-0.248,0.718
						c-0.16,0.171-0.354,0.254-0.566,0.254c-0.249,0-0.447-0.082-0.588-0.25c-0.142-0.165-0.215-0.41-0.215-0.733v-6.915
						c0-0.358,0.071-0.632,0.207-0.82c0.14-0.19,0.341-0.283,0.596-0.283c0.25,0,0.445,0.086,0.594,0.257
						c0.146,0.169,0.221,0.422,0.221,0.752v3.933l1.822-1.914c0.227-0.234,0.396-0.4,0.517-0.486c0.119-0.087,0.262-0.13,0.432-0.13
						c0.203,0,0.371,0.064,0.509,0.192c0.133,0.129,0.2,0.292,0.2,0.483c0,0.237-0.221,0.556-0.659,0.951l-0.86,0.789l1.662,2.614
						c0.121,0.196,0.212,0.34,0.265,0.441c0.053,0.1,0.082,0.199,0.082,0.289c0,0.258-0.072,0.459-0.214,0.609
						c-0.14,0.147-0.327,0.221-0.554,0.221c-0.197,0-0.352-0.051-0.458-0.159S188.816-199.307,188.635-199.584"/>
					<path fill="#FFF8FA" d="M192.158-198.845c-0.245,0-0.455-0.078-0.634-0.237c-0.178-0.156-0.268-0.379-0.268-0.666
						c0-0.241,0.086-0.449,0.256-0.622c0.172-0.174,0.38-0.262,0.63-0.262c0.248,0,0.46,0.088,0.64,0.258
						c0.174,0.172,0.263,0.383,0.263,0.626c0,0.283-0.089,0.505-0.263,0.662C192.602-198.923,192.394-198.845,192.158-198.845"/>
					<path fill="#FFF8FA" d="M200.219-200.851c0,0.2-0.061,0.417-0.182,0.646c-0.12,0.231-0.306,0.448-0.554,0.656
						c-0.247,0.207-0.558,0.376-0.935,0.502c-0.376,0.126-0.801,0.191-1.27,0.191c-1.004,0-1.786-0.293-2.349-0.876
						c-0.56-0.584-0.841-1.368-0.841-2.35c0-0.667,0.128-1.253,0.387-1.765c0.255-0.51,0.628-0.904,1.113-1.184
						c0.487-0.28,1.073-0.419,1.746-0.419c0.422,0,0.806,0.062,1.158,0.185c0.351,0.122,0.646,0.282,0.891,0.474
						c0.242,0.197,0.429,0.402,0.556,0.62c0.13,0.221,0.192,0.426,0.192,0.617c0,0.192-0.07,0.357-0.214,0.492
						c-0.147,0.135-0.322,0.203-0.524,0.203c-0.137,0-0.248-0.036-0.338-0.104c-0.09-0.07-0.19-0.181-0.3-0.339
						c-0.198-0.299-0.403-0.525-0.622-0.674c-0.214-0.152-0.487-0.227-0.821-0.227c-0.476,0-0.864,0.187-1.158,0.561
						c-0.292,0.373-0.439,0.888-0.439,1.534c0,0.305,0.039,0.587,0.114,0.842c0.073,0.255,0.182,0.473,0.325,0.653
						c0.145,0.179,0.315,0.315,0.517,0.408c0.202,0.096,0.426,0.142,0.664,0.142c0.326,0,0.604-0.075,0.836-0.226
						c0.235-0.15,0.439-0.38,0.616-0.689c0.1-0.182,0.205-0.323,0.318-0.427c0.114-0.102,0.256-0.155,0.422-0.155
						c0.198,0,0.363,0.076,0.492,0.227C200.153-201.182,200.219-201.02,200.219-200.851"/>
					<path fill="#FFF8FA" d="M207.213-202.139c0,0.481-0.076,0.928-0.223,1.337c-0.154,0.408-0.369,0.758-0.656,1.049
						c-0.284,0.293-0.626,0.518-1.02,0.676c-0.399,0.154-0.844,0.234-1.337,0.234c-0.49,0-0.934-0.08-1.325-0.239
						c-0.39-0.156-0.732-0.385-1.017-0.677c-0.288-0.298-0.505-0.646-0.657-1.048c-0.144-0.402-0.219-0.847-0.219-1.332
						c0-0.491,0.077-0.941,0.224-1.349c0.151-0.409,0.368-0.758,0.649-1.046c0.282-0.288,0.62-0.511,1.02-0.669
						c0.401-0.155,0.844-0.233,1.325-0.233c0.49,0,0.937,0.078,1.337,0.238c0.398,0.157,0.739,0.384,1.027,0.675
						c0.286,0.297,0.502,0.644,0.649,1.045C207.138-203.07,207.213-202.627,207.213-202.139 M205.585-202.139
						c0-0.661-0.146-1.176-0.437-1.543c-0.289-0.372-0.681-0.555-1.171-0.555c-0.317,0-0.597,0.083-0.839,0.246
						s-0.426,0.406-0.557,0.728c-0.13,0.321-0.196,0.695-0.196,1.124c0,0.425,0.063,0.792,0.193,1.108
						c0.13,0.319,0.313,0.561,0.553,0.729c0.241,0.167,0.522,0.253,0.846,0.253c0.49,0,0.882-0.185,1.171-0.557
						C205.439-200.976,205.585-201.488,205.585-202.139"/>
					<path fill="#FFF8FA" d="M213.395-202.02v2.154c0,0.342-0.075,0.594-0.23,0.767c-0.156,0.171-0.357,0.256-0.611,0.256
						c-0.245,0-0.446-0.085-0.594-0.256c-0.155-0.173-0.232-0.425-0.232-0.767v-2.582c0-0.408-0.014-0.727-0.04-0.953
						c-0.028-0.221-0.105-0.409-0.227-0.552c-0.123-0.146-0.318-0.22-0.582-0.22c-0.531,0-0.879,0.182-1.048,0.551
						c-0.167,0.36-0.254,0.883-0.254,1.566v2.189c0,0.336-0.076,0.591-0.226,0.765c-0.155,0.171-0.354,0.258-0.603,0.258
						s-0.448-0.087-0.604-0.258c-0.157-0.174-0.235-0.429-0.235-0.765v-4.637c0-0.307,0.069-0.538,0.21-0.695
						c0.143-0.16,0.328-0.238,0.556-0.238c0.223,0,0.407,0.077,0.558,0.222c0.147,0.149,0.221,0.354,0.221,0.615v0.153
						c0.283-0.334,0.585-0.582,0.903-0.737c0.322-0.162,0.676-0.241,1.07-0.241c0.407,0,0.757,0.082,1.049,0.243
						c0.293,0.163,0.533,0.41,0.725,0.735c0.274-0.33,0.568-0.576,0.882-0.737c0.313-0.161,0.658-0.241,1.039-0.241
						c0.44,0,0.825,0.089,1.146,0.262c0.319,0.174,0.559,0.425,0.718,0.747c0.138,0.295,0.206,0.756,0.206,1.386v3.164
						c0,0.342-0.076,0.594-0.229,0.767c-0.154,0.171-0.359,0.256-0.612,0.256c-0.246,0-0.446-0.087-0.603-0.258
						c-0.156-0.174-0.235-0.429-0.235-0.765v-2.726c0-0.35-0.015-0.627-0.044-0.837s-0.11-0.388-0.238-0.529
						c-0.133-0.142-0.332-0.215-0.596-0.215c-0.214,0-0.417,0.066-0.609,0.192c-0.191,0.124-0.342,0.298-0.45,0.508
						C213.458-203.197,213.395-202.714,213.395-202.02"/>
				</g>
				<g>
					<path fill="#FFF8FA" d="M137.955-202.531c-0.001-0.003-0.001-0.006-0.001-0.011
						C137.954-202.537,137.954-202.534,137.955-202.531z"/>
					<path fill="#FFF8FA" d="M138.037-202.013c0.001,0,0.001,0,0.001,0c-0.031-0.147-0.055-0.294-0.074-0.438
						C137.983-202.306,138.007-202.158,138.037-202.013z"/>
					<path fill="#FFF8FA" d="M138.573-200.509c-0.003-0.006-0.007-0.014-0.011-0.021
						C138.566-200.522,138.57-200.515,138.573-200.509z"/>
					<path fill="#FFF8FA" d="M138.522-200.609c-0.014-0.027-0.027-0.056-0.041-0.083
						C138.495-200.663,138.508-200.637,138.522-200.609z"/>
					<path fill="#FFF8FA" d="M138.188-201.434c0.08,0.25,0.175,0.493,0.286,0.724c-0.112-0.236-0.206-0.479-0.283-0.724
						C138.189-201.434,138.188-201.434,138.188-201.434z"/>
					<path fill="#FFF8FA" d="M144.228-208.741c0.313,0,0.545,0.025,0.81,0.069l0.075-0.477c0,0-0.731-0.225-1.694-0.146l-0.076-0.26
						c0.299-0.063,0.523-0.328,0.523-0.646c0-0.364-0.296-0.659-0.661-0.659s-0.66,0.295-0.66,0.659
						c0,0.317,0.224,0.583,0.522,0.646l0.083,0.29c-1.021,0.141-1.834,0.539-1.834,0.539l0.144,0.44
						c0.618-0.206,1.154-0.331,1.64-0.384C143.578-208.72,143.936-208.741,144.228-208.741z"/>
					<path fill="#FFF8FA" d="M138.561-206.33l0.004-0.005c0.024-0.031,0.047-0.061,0.07-0.089l-0.195-0.141l-0.305-0.223
						c-0.018,0.023-0.497,0.465-0.876,1.279c-0.016-0.025-0.035-0.051-0.056-0.074c-0.114-0.124-0.272-0.188-0.474-0.184
						c-0.002,0-0.006,0-0.009,0c-0.125,0-0.21-0.042-0.267-0.093c0.056-0.07,0.089-0.159,0.089-0.258
						c0-0.23-0.187-0.418-0.418-0.418c-0.23,0-0.418,0.188-0.418,0.418c0,0.231,0.188,0.418,0.418,0.418
						c0.036,0,0.071-0.006,0.104-0.013c0.103,0.114,0.266,0.214,0.505,0.209c0.123-0.001,0.213,0.03,0.273,0.097
						c0.069,0.076,0.093,0.186,0.1,0.268c0,0.001,0,0.003-0.001,0.003c-0.272,0.743-0.194,1.669-0.194,1.669l0.661,0.026
						c0.013-0.337,0.062-0.927,0.232-1.395C138.132-205.739,138.544-206.306,138.561-206.33z"/>
					<path fill="#FFF8FA" d="M149.978-208.188c-0.23,0-0.418,0.187-0.418,0.418c0,0.035,0.005,0.07,0.015,0.103
						c-0.115,0.104-0.215,0.268-0.211,0.507c0.002,0.123-0.029,0.213-0.097,0.272c-0.053,0.048-0.119,0.072-0.185,0.088
						c-0.492-0.688-1.098-1.109-1.098-1.109l-0.474,0.509c0.358,0.326,0.724,0.734,1.08,1.244c0.246,0.352,0.499,0.806,0.71,1.259
						l0.64-0.304c0,0-0.292-0.723-0.703-1.37c0.071-0.024,0.144-0.063,0.207-0.12c0.125-0.113,0.187-0.272,0.183-0.474
						c-0.001-0.13,0.042-0.218,0.093-0.275c0.071,0.054,0.161,0.089,0.258,0.089c0.231,0,0.419-0.188,0.419-0.418
						C150.397-208.002,150.209-208.188,149.978-208.188z"/>
					<path fill="#FFF8FA" d="M148.317-202.438c-0.881,0.429-2.33,0.996-4.238,1.262c-0.749,0.104-1.474,0.143-2.142,0.143
						c-0.869,0-1.637-0.064-2.227-0.14c-0.673-0.084-1.199-0.188-1.52-0.261c0.077,0.245,0.171,0.487,0.283,0.724
						c0.002,0.007,0.005,0.013,0.008,0.018c0.014,0.027,0.027,0.056,0.041,0.083c0.014,0.028,0.027,0.055,0.041,0.08
						c0.004,0.007,0.007,0.015,0.011,0.021c0.189,0.356,0.417,0.685,0.675,0.968c0.9,0.984,1.817,1.141,1.826,1.142l0.014,0.002
						l0.014,0.005c0.008,0.003,0.821,0.266,2.057,0.266c1.215,0,2.409-0.246,3.546-0.729c0.842-0.431,1.639-1.085,2.033-1.669
						c0.306-0.452,0.525-0.933,0.656-1.434c0.069-0.267,0.124-0.692,0.092-1.141C149.24-202.934,148.847-202.695,148.317-202.438z"
						/>
					<path fill="#FFF8FA" d="M138.844-206.121c-0.025,0.037-0.407,0.578-0.709,1.408c-0.226,0.622-0.216,1.527-0.216,1.537v0.002
						c0,0.213,0.012,0.423,0.035,0.632c0,0.005,0,0.008,0.001,0.011c0.002,0.027,0.007,0.053,0.009,0.08
						c0.019,0.145,0.043,0.291,0.074,0.438c0.438,0.111,3.049,0.721,5.968,0.313c1.829-0.254,3.218-0.795,4.062-1.204
						c0.701-0.34,1.151-0.647,1.325-0.773c-0.173-0.643-0.651-1.65-1.09-2.279c-1.253-1.791-2.604-2.25-3.298-2.364
						c-0.265-0.044-0.477-0.068-0.777-0.068c-0.279,0-0.626,0.022-1.089,0.071c-0.464,0.048-0.982,0.17-1.583,0.372
						c-0.842,0.282-1.604,0.725-2.204,1.28l-0.021,0.019C139.243-206.564,139.057-206.393,138.844-206.121z M146.512-206.538
						c0.601,0,1.09,0.488,1.09,1.09c0,0.601-0.489,1.09-1.09,1.09s-1.089-0.489-1.089-1.09
						C145.423-206.05,145.912-206.538,146.512-206.538z M141.361-206.581c0.973,0,1.76,0.788,1.76,1.761s-0.787,1.759-1.76,1.759
						c-0.972,0-1.76-0.786-1.76-1.759S140.39-206.581,141.361-206.581z"/>
				</g>
			</g>
		</g>
	</g>
</g>
</svg>
