<?xml version="1.0" encoding="utf-8"?>
<!-- Generator: Adobe Illustrator 16.0.0, SVG Export Plug-In . SVG Version: 6.00 Build 0)  -->
<!DOCTYPE svg PUBLIC "-//W3C//DTD SVG 1.1//EN" "http://www.w3.org/Graphics/SVG/1.1/DTD/svg11.dtd">
<svg version="1.1" xmlns="http://www.w3.org/2000/svg" xmlns:xlink="http://www.w3.org/1999/xlink" x="0px" y="0px"
	 width="272.853px" height="294.204px" viewBox="0 0 272.853 294.204" enable-background="new 0 0 272.853 294.204"
	 xml:space="preserve">
<g id="BACKGROUND">
</g>
<g id="OBJECTS">
</g>
<g id="Layer_4">
	<path fill="#6CB7FF" d="M38.426,266.796c-6.197-5.119-30.081-24.843-36.371-58.973c-1.339-7.257-7.629-41.388,11.543-64.018
		c25.373-29.943,68.222-7.763,98.923-33.862c26.4-22.443-2.361-61.178,23.726-89.558c13.619-14.813,37.236-23.452,55.418-19.377
		c56.754,12.717,120.032,162.576,50.984,244.003C192.39,304.284,88.355,308.029,38.426,266.796z"/>
	<g>
		<path fill="#489AFF" d="M214.211,215.849c7.741-4.731,10.181-14.842,5.449-22.583c-1.056-1.727-2.39-3.174-3.895-4.353
			c1.959-2.773,4.205-5.453,6.755-8c1.182-1.181,2.382-2.295,3.595-3.361c0.485,0.409,0.961,0.832,1.424,1.273l4.035-2.466
			c2.063-1.262,4.76-0.611,6.021,1.453l3.998,6.541c1.262,2.064,0.61,4.76-1.453,6.021l-4.035,2.466
			c0.906,3.065,1.328,6.207,1.292,9.324l4.561,1.272c2.33,0.65,3.692,3.066,3.042,5.396l-2.061,7.385
			c-0.65,2.33-3.066,3.691-5.396,3.042l-4.556-1.271c-1.209,2.051-2.658,3.978-4.336,5.738l2.467,4.034
			c1.262,2.064,0.61,4.761-1.453,6.022l-6.541,3.998c-2.064,1.261-4.761,0.61-6.022-1.454l-2.466-4.034
			c-2.362,0.698-4.77,1.103-7.177,1.237c-1.375-4.927-1.986-10.08-1.802-15.289C208.579,218.243,211.537,217.483,214.211,215.849z"
			/>
		<g>
			<g>
				<path fill="#E3EAFF" d="M202.78,234.906H61.778c-3.826,0-6.928-3.102-6.928-6.928v-96.174c0-3.826,3.102-6.928,6.928-6.928
					H202.78c3.826,0,6.928,3.102,6.928,6.928v96.174C209.708,231.805,206.606,234.906,202.78,234.906z"/>
				<path fill="#6DB8FF" d="M202.179,233.459H62.378c-3.032,0-5.491-2.459-5.491-5.491v-96.153c0-3.032,2.458-5.49,5.491-5.49
					h139.801c3.032,0,5.49,2.458,5.49,5.49v96.153C207.669,231,205.211,233.459,202.179,233.459z"/>
				<path fill="#2F6DFF" d="M197.766,224.005H66.792c-1.869,0-3.384-1.515-3.384-3.383v-85.873c0-1.868,1.515-3.384,3.384-3.384
					h130.975c1.869,0,3.384,1.516,3.384,3.384v85.873C201.15,222.49,199.635,224.005,197.766,224.005z"/>
				<path fill="#E3EAFF" d="M51.09,229.201c-0.446,0.822-0.723,1.75-0.723,2.751c0,3.207,2.6,5.807,5.807,5.807h152.208
					c3.207,0,5.807-2.6,5.807-5.807c0-1.001-0.276-1.929-0.723-2.751H51.09z"/>
			</g>
			<path fill="#C8D6F2" d="M51.09,234.703c0.982,1.812,2.878,3.056,5.084,3.056h152.208c2.206,0,4.102-1.244,5.084-3.056H51.09z"/>
		</g>
		<path opacity="0.2" fill="#424261" d="M202.78,124.877H99.445v69.056c0,1.527,1.238,2.765,2.766,2.765h107.497v-64.893
			C209.708,127.979,206.606,124.877,202.78,124.877z"/>
		<path opacity="0.21" fill="#E3EAFF" d="M221.448,193.587H106.012c-1.527,0-2.766-1.237-2.766-2.765v-71.197
			c0-1.527,1.238-2.765,2.766-2.765h115.436c1.527,0,2.766,1.237,2.766,2.765v71.197
			C224.213,192.35,222.975,193.587,221.448,193.587z"/>
		<path fill="#F9FBFC" d="M226.287,188.403H110.851c-1.527,0-2.766-1.238-2.766-2.766V114.44c0-1.526,1.238-2.765,2.766-2.765
			h115.436c1.527,0,2.765,1.238,2.765,2.765v71.197C229.051,187.165,227.814,188.403,226.287,188.403z"/>
		<path opacity="0.2" fill="#424261" d="M85.75,164.037h-12.27c-0.955,0-1.729-0.773-1.729-1.729v-12.961
			c0-0.954,0.773-1.728,1.729-1.728h12.27c0.954,0,1.728,0.773,1.728,1.728v12.961C87.478,163.264,86.705,164.037,85.75,164.037z"/>
		<path fill="#6DB8FF" d="M84.843,187.885h-12.27c-0.955,0-1.729-0.774-1.729-1.729v-12.961c0-0.954,0.773-1.728,1.729-1.728h12.27
			c0.954,0,1.728,0.773,1.728,1.728v12.961C86.571,187.11,85.797,187.885,84.843,187.885z"/>
		<path fill="#6DB8FF" d="M84.843,211.214h-12.27c-0.955,0-1.729-0.774-1.729-1.729v-12.961c0-0.954,0.773-1.728,1.729-1.728h12.27
			c0.954,0,1.728,0.773,1.728,1.728v12.961C86.571,210.439,85.797,211.214,84.843,211.214z"/>
		<g>
			<path fill="#9570EE" d="M82.144,201.197c0-2.064-1.674-3.738-3.738-3.738s-3.738,1.674-3.738,3.738c0,0-0.526,3.959,3.738,7.107
				C82.67,205.156,82.144,201.197,82.144,201.197z"/>
			<path fill="#F9FBFC" d="M78.625,203.896c-1.668,0.132-3.05-1.25-2.919-2.918c0.104-1.313,1.167-2.376,2.479-2.479
				c1.668-0.131,3.05,1.251,2.918,2.919C81,202.729,79.938,203.792,78.625,203.896z"/>
		</g>
		<g>
			<g>
				<g>
					<circle fill="#9570EE" cx="78.332" cy="179.459" r="5.171"/>
					<circle fill="#F9FBFC" cx="78.332" cy="179.459" r="4.17"/>
					<path fill="#BB87EE" d="M78.333,175.289c1.89,0,3.485,1.257,3.998,2.981c0.021,0.071,0.085,0.121,0.159,0.121l0,0
						c0.111,0,0.192-0.106,0.161-0.213c-0.552-1.863-2.276-3.224-4.318-3.224c-2.043,0-3.767,1.36-4.318,3.224
						c-0.032,0.106,0.049,0.213,0.16,0.213l0,0c0.074,0,0.139-0.05,0.16-0.121C74.846,176.546,76.442,175.289,78.333,175.289z"/>
					<path fill="#7F57EE" d="M82.958,179.593c-0.248,0-0.462,0.181-0.494,0.427c-0.274,2.038-2.02,3.61-4.132,3.61
						c-2.113,0-3.858-1.572-4.132-3.61c-0.033-0.246-0.247-0.427-0.495-0.427l0,0c-0.301,0-0.537,0.265-0.497,0.563
						c0.34,2.526,2.504,4.476,5.124,4.476c2.619,0,4.783-1.949,5.123-4.476C83.496,179.857,83.259,179.593,82.958,179.593
						L82.958,179.593z"/>
					<circle fill="#F9FBFC" cx="78.332" cy="179.459" r="4.17"/>
					<path fill="#9570EE" d="M82.397,180.805c-0.07,0-0.133,0.045-0.157,0.111c-0.591,1.584-2.117,2.714-3.907,2.714
						c-1.791,0-3.317-1.13-3.908-2.714c-0.024-0.066-0.087-0.111-0.157-0.111l0,0c-0.116,0-0.198,0.116-0.157,0.226
						c0.638,1.713,2.287,2.933,4.223,2.933c1.935,0,3.585-1.22,4.223-2.933C82.595,180.921,82.513,180.805,82.397,180.805
						L82.397,180.805z"/>
				</g>
				<path fill="#9570EE" d="M78.321,179.826L78.321,179.826c-0.11,0-0.2-0.09-0.2-0.2v-2.937c0-0.11,0.09-0.199,0.2-0.199l0,0
					c0.11,0,0.2,0.089,0.2,0.199v2.937C78.521,179.736,78.431,179.826,78.321,179.826z"/>
				<path fill="#9570EE" d="M78.176,179.515L78.176,179.515c0.071-0.084,0.198-0.095,0.282-0.023l1.812,1.53
					c0.084,0.071,0.095,0.198,0.023,0.282l0,0c-0.071,0.085-0.197,0.095-0.282,0.023l-1.811-1.53
					C78.116,179.726,78.105,179.6,78.176,179.515z"/>
			</g>
			<g>
				<rect x="78.215" y="175.572" fill="#CED6FF" width="0.15" height="0.4"/>
				<rect x="78.215" y="182.879" fill="#CED6FF" width="0.15" height="0.4"/>
			</g>
			<g>
				<rect x="74.437" y="179.351" fill="#CED6FF" width="0.4" height="0.15"/>
				<rect x="81.744" y="179.351" fill="#CED6FF" width="0.4" height="0.15"/>
			</g>
			<g>
				
					<rect x="75.632" y="176.642" transform="matrix(0.7071 -0.7071 0.7071 0.7071 -102.8723 105.3289)" fill="#CED6FF" width="0.151" height="0.401"/>
				
					<rect x="80.799" y="181.809" transform="matrix(0.7071 -0.7071 0.7071 0.7071 -105.0125 110.4958)" fill="#CED6FF" width="0.151" height="0.401"/>
			</g>
			<g>
				
					<rect x="75.632" y="181.809" transform="matrix(-0.7071 -0.7071 0.7071 -0.7071 0.54 364.2422)" fill="#CED6FF" width="0.151" height="0.401"/>
				
					<rect x="80.799" y="176.642" transform="matrix(-0.7071 -0.7071 0.7071 -0.7071 13.0142 359.0752)" fill="#CED6FF" width="0.151" height="0.401"/>
			</g>
		</g>
		<g>
			<path fill="#6DB8FF" d="M84.843,163.519h-12.27c-0.955,0-1.729-0.773-1.729-1.729v-12.96c0-0.955,0.773-1.729,1.729-1.729h12.27
				c0.954,0,1.728,0.773,1.728,1.729v12.96C86.571,162.745,85.797,163.519,84.843,163.519z"/>
			<g>
				<polyline fill="#F7D3A9" points="70.089,161.834 71.385,160.926 71.968,158.787 71.321,158.658 70.932,159.436 71.321,155.742 
					70.672,155.871 70.025,159.436 69.247,161.121 69.959,161.574 				"/>
				<polygon fill="#F7D3A9" points="77.757,165.679 77.93,164.123 79.832,162.223 80.263,162.827 79.572,163.604 83.202,162.741 
					83.202,163.519 79.832,164.814 79.14,166.024 				"/>
				<g>
					<g>
						<polygon fill="#544DB8" points="54.098,204.129 61.167,238.706 66.515,238.133 62.886,236.796 64.223,236.414 62.313,204.129 
													"/>
						<path fill="#544DB8" d="M65.37,203.557c0,0,8.979,8.405,7.641,18.529c-1.528,8.023-4.775,11.08-4.775,11.08l-0.955-0.19
							l1.48,3.916l-4.299-4.585c0,0,5.302-7.307,2.006-14.9c-3.295-7.594-10.458-10.316-10.458-10.316s6.161-5.587,6.59-5.444
							C63.029,201.789,65.37,203.557,65.37,203.557z"/>
						<g>
							<path fill="#FF8B40" d="M69.19,160.525c0,0-14.757,17.91-16.477,21.492c0,0-0.717,1.289-0.717,5.015
								c0,3.725,1.29,17.479,1.29,17.479l15.044,0.859c0,0-4.872-16.764-5.015-17.193c-0.144-0.43-2.579-3.009-4.872-3.582
								l12.608-22.78L69.19,160.525z"/>
							<g>
								<path fill="#F7D3A9" d="M59.845,182.866c0,0,0.627,1.859,0.973,2.984c0,0-3.071-0.065-4.152-1.492l1.146-2.746
									L59.845,182.866z"/>
								<g>
									<path fill="#F7D3A9" d="M62.18,177.054c0,0,0.908,5.289,0,6.491c-0.908,1.202-4.021-0.842-5.319-2.765
										c-1.297-1.924-1.557-6.251,0.649-6.611C59.715,173.808,61.662,175.13,62.18,177.054z"/>
								</g>
							</g>
							<path fill="#FF8B40" d="M60.784,186.845c0,0,11.832-7.442,12.786-8.97c0.954-1.526,3.626-12.881,3.626-12.881l2.29,0.572
								c0,0-1.336,12.69-1.718,14.026s-12.022,13.74-14.694,13.74C60.403,193.333,59.448,189.897,60.784,186.845z"/>
						</g>
					</g>
					<path fill="#544DB8" d="M55.811,174.405c0,0,1.555-2.16,4.32-1.642c2.765,0.519,3.456-0.086,3.456-0.086
						s-0.604,3.023-2.506,3.715c-1.901,0.691-2.419,0.519-2.419,0.519s1.037,1.037,1.296,1.814s-0.864-0.95-1.296-0.346
						c-0.432,0.604,0,1.901,0.864,1.814c0.864-0.086,0.346,0.604,0,1.296s-0.864,1.556-1.382,1.296
						c-0.519-0.259-2.333-1.296-3.024-3.456C54.429,177.17,54.256,175.097,55.811,174.405z"/>
				</g>
			</g>
		</g>
		<path fill="#E3EAFF" d="M150.51,180.886h-33.697c-0.717,0-1.297-0.58-1.297-1.296v-58.582c0-0.717,0.58-1.297,1.297-1.297h33.697
			c0.716,0,1.296,0.58,1.296,1.297v58.582C151.806,180.306,151.226,180.886,150.51,180.886z"/>
		<path fill="#6DB8FF" d="M144.203,129.82h-21.429c-0.572,0-1.036-0.464-1.036-1.037v-3.109c0-0.573,0.464-1.037,1.036-1.037h21.429
			c0.572,0,1.037,0.464,1.037,1.037v3.109C145.24,129.356,144.775,129.82,144.203,129.82z"/>
		<path fill="#6DB8FF" d="M129.601,158.636h-4.667c-1.098,0-1.987-0.89-1.987-1.986l0,0c0-1.097,0.89-1.987,1.987-1.987h4.667
			c1.097,0,1.986,0.891,1.986,1.987l0,0C131.587,157.746,130.698,158.636,129.601,158.636z"/>
		<path fill="#9570EE" d="M143.081,158.636h-4.668c-1.097,0-1.986-0.89-1.986-1.986l0,0c0-1.097,0.89-1.987,1.986-1.987h4.668
			c1.097,0,1.986,0.891,1.986,1.987l0,0C145.067,157.746,144.177,158.636,143.081,158.636z"/>
		<rect x="121.219" y="135.005" fill="#F9FBFC" width="25.229" height="3.975"/>
		<rect x="121.219" y="141.744" fill="#F9FBFC" width="25.229" height="3.975"/>
		<rect x="126.663" y="148.225" fill="#CDD4FF" width="14.516" height="0.908"/>
		<path fill="#9570EE" d="M226.589,169.566h-45.362c-2.792,0-5.055-2.263-5.055-5.055l0,0c0-2.791,2.263-5.055,5.055-5.055h45.362
			c2.791,0,5.055,2.264,5.055,5.055l0,0C231.644,167.304,229.38,169.566,226.589,169.566z"/>
		<g>
			<path fill="#E3EAFF" d="M187.319,126.71h-28.255c-2.29,0-4.147-1.856-4.147-4.147l0,0c0-2.291,1.857-4.147,4.147-4.147h28.255
				c2.29,0,4.146,1.856,4.146,4.147l0,0C191.465,124.854,189.609,126.71,187.319,126.71z"/>
			<circle fill="#FFC240" cx="164.507" cy="122.563" r="1.296"/>
			<circle fill="#90C240" cx="173.407" cy="122.563" r="1.296"/>
			<circle fill="#EB4F24" cx="181.616" cy="122.563" r="1.296"/>
		</g>
		<g>
			<circle fill="#FFFFFF" cx="78.528" cy="156.32" r="3.157"/>
			<g>
				<path fill="#9570EE" d="M81.8,152.508h-0.556l-0.8-1.127c-0.063-0.088-0.165-0.142-0.274-0.142h-3.189
					c-0.109,0-0.211,0.054-0.274,0.142l-0.799,1.127h-0.557c-0.865,0-1.573,0.707-1.573,1.572v4.577
					c0,0.865,0.708,1.573,1.573,1.573H81.8c0.865,0,1.573-0.708,1.573-1.573v-4.577C83.374,153.215,82.666,152.508,81.8,152.508z
					 M78.576,158.648c-1.28,0-2.319-1.038-2.319-2.318c0-1.281,1.039-2.319,2.319-2.319c1.281,0,2.319,1.038,2.319,2.319
					C80.895,157.61,79.857,158.648,78.576,158.648z"/>
				<circle fill="#6DB8FF" cx="78.576" cy="156.33" r="1.533"/>
			</g>
		</g>
		<g>
			<path fill="#E3EAFF" d="M191.422,153.467h-23.719c-1.129,0-2.044-0.915-2.044-2.045v-14.176c0-1.129,0.915-2.045,2.044-2.045
				h23.719c1.129,0,2.045,0.916,2.045,2.045v14.176C193.467,152.552,192.551,153.467,191.422,153.467z"/>
			<path fill="#FD4940" d="M179.59,144.193h-0.055c-0.124,0-0.246-0.031-0.354-0.092l-10.719-5.955
				c-0.353-0.195-0.48-0.641-0.284-0.994c0.196-0.352,0.641-0.479,0.994-0.283l10.391,5.772l10.391-5.772
				c0.354-0.196,0.798-0.069,0.994,0.283c0.196,0.354,0.069,0.799-0.284,0.994l-10.719,5.955
				C179.836,144.162,179.714,144.193,179.59,144.193z"/>
		</g>
		<path fill="#544DB8" d="M232.421,151.595h-30.847c-1.002,0-1.814-0.813-1.814-1.814v-40.956c0-1.002,0.813-1.814,1.814-1.814
			h30.847c1.002,0,1.814,0.813,1.814,1.814v40.956C234.236,150.782,233.423,151.595,232.421,151.595z"/>
		<g>
			<path fill="#00CCFF" d="M207.463,112.986h-2.298c-0.122,0-0.221-0.199-0.221-0.444l0,0c0-0.245,0.099-0.444,0.221-0.444h2.298
				c0.122,0,0.221,0.199,0.221,0.444l0,0C207.684,112.787,207.585,112.986,207.463,112.986z"/>
			<path fill="#00CCFF" d="M221.684,112.986h-13.14c-0.122,0-0.222-0.199-0.222-0.444l0,0c0-0.245,0.1-0.444,0.222-0.444h13.14
				c0.122,0,0.221,0.199,0.221,0.444l0,0C221.905,112.787,221.806,112.986,221.684,112.986z"/>
			<path fill="#FF56A9" d="M212.736,114.822h-4.191c-0.122,0-0.222-0.199-0.222-0.444l0,0c0-0.245,0.1-0.444,0.222-0.444h4.191
				c0.122,0,0.221,0.199,0.221,0.444l0,0C212.957,114.623,212.858,114.822,212.736,114.822z"/>
			<path fill="#E3EAFF" d="M219.629,114.822h-6.04c-0.122,0-0.222-0.199-0.222-0.444l0,0c0-0.245,0.1-0.444,0.222-0.444h6.04
				c0.122,0,0.222,0.199,0.222,0.444l0,0C219.851,114.623,219.751,114.822,219.629,114.822z"/>
			<path fill="#E3EAFF" d="M221.684,123.76h-13.14c-0.122,0-0.222-0.198-0.222-0.443l0,0c0-0.246,0.1-0.444,0.222-0.444h13.14
				c0.122,0,0.221,0.198,0.221,0.444l0,0C221.905,123.562,221.806,123.76,221.684,123.76z"/>
			<path fill="#00CCFF" d="M207.463,125.596h-2.298c-0.122,0-0.221-0.198-0.221-0.443l0,0c0-0.246,0.099-0.444,0.221-0.444h2.298
				c0.122,0,0.221,0.198,0.221,0.444l0,0C207.684,125.397,207.585,125.596,207.463,125.596z"/>
			<path fill="#E3EAFF" d="M212.736,125.596h-4.191c-0.122,0-0.222-0.198-0.222-0.443l0,0c0-0.246,0.1-0.444,0.222-0.444h4.191
				c0.122,0,0.221,0.198,0.221,0.444l0,0C212.957,125.397,212.858,125.596,212.736,125.596z"/>
			<path fill="#FF56A9" d="M219.629,125.596h-6.04c-0.122,0-0.222-0.198-0.222-0.443l0,0c0-0.246,0.1-0.444,0.222-0.444h6.04
				c0.122,0,0.222,0.198,0.222,0.444l0,0C219.851,125.397,219.751,125.596,219.629,125.596z"/>
			<path fill="#FF56A9" d="M224.942,116.658h-16.397c-0.122,0-0.222-0.199-0.222-0.444l0,0c0-0.245,0.1-0.444,0.222-0.444h16.397
				c0.123,0,0.222,0.199,0.222,0.444l0,0C225.164,116.459,225.065,116.658,224.942,116.658z"/>
			<path fill="#00CCFF" d="M221.505,118.494h-3.817c-0.129,0-0.234-0.105-0.234-0.234v-0.42c0-0.13,0.105-0.234,0.234-0.234h3.817
				c0.13,0,0.234,0.104,0.234,0.234v0.42C221.74,118.389,221.635,118.494,221.505,118.494z"/>
			<path fill="#E3EAFF" d="M213.992,118.494h-5.447c-0.122,0-0.222-0.199-0.222-0.445l0,0c0-0.244,0.1-0.443,0.222-0.443h5.447
				c0.122,0,0.221,0.199,0.221,0.443l0,0C214.212,118.295,214.114,118.494,213.992,118.494z"/>
			<path fill="#00CCFF" d="M216.89,118.494h-2.16c-0.122,0-0.221-0.199-0.221-0.445l0,0c0-0.244,0.099-0.443,0.221-0.443h2.16
				c0.122,0,0.222,0.199,0.222,0.443l0,0C217.112,118.295,217.012,118.494,216.89,118.494z"/>
			<path fill="#E3EAFF" d="M207.463,120.268h-2.298c-0.122,0-0.221-0.198-0.221-0.443l0,0c0-0.246,0.099-0.444,0.221-0.444h2.298
				c0.122,0,0.221,0.198,0.221,0.444l0,0C207.684,120.069,207.585,120.268,207.463,120.268z"/>
			<path fill="#E3EAFF" d="M224.942,120.268h-16.397c-0.122,0-0.222-0.198-0.222-0.443l0,0c0-0.246,0.1-0.444,0.222-0.444h16.397
				c0.123,0,0.222,0.198,0.222,0.444l0,0C225.164,120.069,225.065,120.268,224.942,120.268z"/>
			<path fill="#E3EAFF" d="M207.463,127.297h-2.298c-0.122,0-0.221-0.199-0.221-0.445l0,0c0-0.244,0.099-0.443,0.221-0.443h2.298
				c0.122,0,0.221,0.199,0.221,0.443l0,0C207.684,127.098,207.585,127.297,207.463,127.297z"/>
			<path fill="#E3EAFF" d="M223.108,127.297h-5.379c-0.152,0-0.275-0.123-0.275-0.275v-0.338c0-0.152,0.123-0.275,0.275-0.275h5.379
				c0.152,0,0.275,0.123,0.275,0.275v0.338C223.383,127.174,223.26,127.297,223.108,127.297z"/>
			<path fill="#E3EAFF" d="M213.992,127.297h-5.447c-0.122,0-0.222-0.199-0.222-0.445l0,0c0-0.244,0.1-0.443,0.222-0.443h5.447
				c0.122,0,0.221,0.199,0.221,0.443l0,0C214.212,127.098,214.114,127.297,213.992,127.297z"/>
			<path fill="#E3EAFF" d="M216.89,127.297h-2.16c-0.122,0-0.221-0.199-0.221-0.445l0,0c0-0.244,0.099-0.443,0.221-0.443h2.16
				c0.122,0,0.222,0.199,0.222,0.443l0,0C217.112,127.098,217.012,127.297,216.89,127.297z"/>
			<path fill="#FFC359" d="M207.463,129.07h-2.298c-0.122,0-0.221-0.198-0.221-0.443l0,0c0-0.246,0.099-0.444,0.221-0.444h2.298
				c0.122,0,0.221,0.198,0.221,0.444l0,0C207.684,128.872,207.585,129.07,207.463,129.07z"/>
			<path fill="#00CCFF" d="M211.383,129.07h-2.839c-0.122,0-0.222-0.198-0.222-0.443l0,0c0-0.246,0.1-0.444,0.222-0.444h2.839
				c0.122,0,0.222,0.198,0.222,0.444l0,0C211.605,128.872,211.505,129.07,211.383,129.07z"/>
			<path fill="#00CCFF" d="M205.166,122.104c-0.122,0-0.221-0.198-0.221-0.443l0,0c0-0.246,0.099-0.444,0.221-0.444h2.298
				c0.122,0,0.221,0.198,0.221,0.444l0,0c0,0.245-0.099,0.443-0.221,0.443"/>
			<path fill="#E3EAFF" d="M223.861,122.104h-6.114c-0.162,0-0.293-0.131-0.293-0.292v-0.304c0-0.161,0.131-0.292,0.293-0.292h6.114
				c0.161,0,0.293,0.131,0.293,0.292v0.304C224.154,121.973,224.022,122.104,223.861,122.104z"/>
			<path fill="#FFC359" d="M213.992,122.104h-5.447c-0.122,0-0.222-0.198-0.222-0.443l0,0c0-0.246,0.1-0.444,0.222-0.444h5.447
				c0.122,0,0.221,0.198,0.221,0.444l0,0C214.212,121.905,214.114,122.104,213.992,122.104z"/>
			<path fill="#FFC359" d="M216.89,122.104h-2.16c-0.122,0-0.221-0.198-0.221-0.443l0,0c0-0.246,0.099-0.444,0.221-0.444h2.16
				c0.122,0,0.222,0.198,0.222,0.444l0,0C217.112,121.905,217.012,122.104,216.89,122.104z"/>
			<path fill="#E3EAFF" d="M221.684,130.959h-13.14c-0.122,0-0.222-0.199-0.222-0.445l0,0c0-0.244,0.1-0.443,0.222-0.443h13.14
				c0.122,0,0.221,0.199,0.221,0.443l0,0C221.905,130.76,221.806,130.959,221.684,130.959z"/>
			<path fill="#E3EAFF" d="M212.736,132.794h-4.191c-0.122,0-0.222-0.198-0.222-0.444l0,0c0-0.245,0.1-0.443,0.222-0.443h4.191
				c0.122,0,0.221,0.198,0.221,0.443l0,0C212.957,132.596,212.858,132.794,212.736,132.794z"/>
			<path fill="#E3EAFF" d="M219.629,132.794h-6.04c-0.122,0-0.222-0.198-0.222-0.444l0,0c0-0.245,0.1-0.443,0.222-0.443h6.04
				c0.122,0,0.222,0.198,0.222,0.443l0,0C219.851,132.596,219.751,132.794,219.629,132.794z"/>
			<path fill="#E3EAFF" d="M221.684,141.732h-13.14c-0.122,0-0.222-0.199-0.222-0.444l0,0c0-0.245,0.1-0.444,0.222-0.444h13.14
				c0.122,0,0.221,0.199,0.221,0.444l0,0C221.905,141.533,221.806,141.732,221.684,141.732z"/>
			<path fill="#FF56A9" d="M207.463,143.568h-2.298c-0.122,0-0.221-0.199-0.221-0.444l0,0c0-0.245,0.099-0.444,0.221-0.444h2.298
				c0.122,0,0.221,0.199,0.221,0.444l0,0C207.684,143.369,207.585,143.568,207.463,143.568z"/>
			<path fill="#00CCFF" d="M212.736,143.568h-4.191c-0.122,0-0.222-0.199-0.222-0.444l0,0c0-0.245,0.1-0.444,0.222-0.444h4.191
				c0.122,0,0.221,0.199,0.221,0.444l0,0C212.957,143.369,212.858,143.568,212.736,143.568z"/>
			<path fill="#E3EAFF" d="M219.629,143.568h-6.04c-0.122,0-0.222-0.199-0.222-0.444l0,0c0-0.245,0.1-0.444,0.222-0.444h6.04
				c0.122,0,0.222,0.199,0.222,0.444l0,0C219.851,143.369,219.751,143.568,219.629,143.568z"/>
			<path fill="#FF56A9" d="M207.463,134.63h-2.298c-0.122,0-0.221-0.198-0.221-0.444l0,0c0-0.245,0.099-0.443,0.221-0.443h2.298
				c0.122,0,0.221,0.198,0.221,0.443l0,0C207.684,134.432,207.585,134.63,207.463,134.63z"/>
			<path fill="#FF56A9" d="M220.274,134.63H208.59c-0.147,0-0.268-0.12-0.268-0.267v-0.354c0-0.147,0.12-0.267,0.268-0.267h11.684
				c0.147,0,0.268,0.119,0.268,0.267v0.354C220.542,134.51,220.421,134.63,220.274,134.63z"/>
			<path fill="#E3EAFF" d="M207.463,136.466h-2.298c-0.122,0-0.221-0.198-0.221-0.444l0,0c0-0.245,0.099-0.443,0.221-0.443h2.298
				c0.122,0,0.221,0.198,0.221,0.443l0,0C207.684,136.268,207.585,136.466,207.463,136.466z"/>
			<path fill="#E3EAFF" d="M213.992,136.466h-5.447c-0.122,0-0.222-0.198-0.222-0.444l0,0c0-0.245,0.1-0.443,0.222-0.443h5.447
				c0.122,0,0.221,0.198,0.221,0.443l0,0C214.212,136.268,214.114,136.466,213.992,136.466z"/>
			<path fill="#E3EAFF" d="M216.89,136.466h-2.16c-0.122,0-0.221-0.198-0.221-0.444l0,0c0-0.245,0.099-0.443,0.221-0.443h2.16
				c0.122,0,0.222,0.198,0.222,0.443l0,0C217.112,136.268,217.012,136.466,216.89,136.466z"/>
			<path fill="#E3EAFF" d="M207.463,138.24h-2.298c-0.122,0-0.221-0.199-0.221-0.443l0,0c0-0.246,0.099-0.445,0.221-0.445h2.298
				c0.122,0,0.221,0.199,0.221,0.445l0,0C207.684,138.041,207.585,138.24,207.463,138.24z"/>
			<path fill="#E3EAFF" d="M223.409,138.24h-14.786c-0.165,0-0.3-0.134-0.3-0.299v-0.289c0-0.166,0.135-0.301,0.3-0.301h14.786
				c0.165,0,0.3,0.135,0.3,0.301v0.289C223.708,138.106,223.574,138.24,223.409,138.24z"/>
			<path fill="#E3EAFF" d="M207.463,145.269h-2.298c-0.122,0-0.221-0.199-0.221-0.444l0,0c0-0.245,0.099-0.444,0.221-0.444h2.298
				c0.122,0,0.221,0.199,0.221,0.444l0,0C207.684,145.069,207.585,145.269,207.463,145.269z"/>
			<path fill="#E3EAFF" d="M224.925,145.269h-7.25c-0.122,0-0.222-0.199-0.222-0.444l0,0c0-0.245,0.1-0.444,0.222-0.444h7.25
				c0.122,0,0.221,0.199,0.221,0.444l0,0C225.146,145.069,225.047,145.269,224.925,145.269z"/>
			<path fill="#E3EAFF" d="M213.992,145.269h-5.447c-0.122,0-0.222-0.199-0.222-0.444l0,0c0-0.245,0.1-0.444,0.222-0.444h5.447
				c0.122,0,0.221,0.199,0.221,0.444l0,0C214.212,145.069,214.114,145.269,213.992,145.269z"/>
			<path fill="#E3EAFF" d="M216.89,145.269h-2.16c-0.122,0-0.221-0.199-0.221-0.444l0,0c0-0.245,0.099-0.444,0.221-0.444h2.16
				c0.122,0,0.222,0.199,0.222,0.444l0,0C217.112,145.069,217.012,145.269,216.89,145.269z"/>
			<path fill="#FFC359" d="M218.244,147.043h-9.677c-0.135,0-0.244-0.109-0.244-0.243v-0.401c0-0.135,0.109-0.244,0.244-0.244h9.677
				c0.134,0,0.243,0.109,0.243,0.244v0.401C218.487,146.934,218.377,147.043,218.244,147.043z"/>
			<path fill="#FF56A9" d="M224.247,140.076h-6.492c-0.166,0-0.301-0.135-0.301-0.301v-0.287c0-0.166,0.135-0.301,0.301-0.301h6.492
				c0.166,0,0.301,0.135,0.301,0.301v0.287C224.547,139.941,224.413,140.076,224.247,140.076z"/>
			<path fill="#FFC359" d="M213.992,140.076h-5.447c-0.122,0-0.222-0.199-0.222-0.443l0,0c0-0.246,0.1-0.445,0.222-0.445h5.447
				c0.122,0,0.221,0.199,0.221,0.445l0,0C214.212,139.877,214.114,140.076,213.992,140.076z"/>
			<path fill="#FFC359" d="M216.89,140.076h-2.16c-0.122,0-0.221-0.199-0.221-0.443l0,0c0-0.246,0.099-0.445,0.221-0.445h2.16
				c0.122,0,0.222,0.199,0.222,0.445l0,0C217.112,139.877,217.012,140.076,216.89,140.076z"/>
		</g>
		<g>
			<circle fill="#FF4DD1" cx="231.456" cy="107.931" r="7.258"/>
			<g>
				<g>
					<path fill="#F9FBFC" d="M230.93,107.25l-2.883,1.057l2.883,1.047v1.082l-4.121-1.566v-1.126l4.121-1.566V107.25z"/>
				</g>
				<g>
					<path fill="#F9FBFC" d="M231.872,106.177l4.121,1.566v1.126l-4.121,1.566v-1.082l2.883-1.047l-2.883-1.057V106.177z"/>
				</g>
			</g>
		</g>
		<g>
			<circle fill="#FFC240" cx="183.448" cy="230.312" r="7.873"/>
			<g>
				<path fill="#FFFFFF" d="M187.604,229.861c0,0.489-0.078,0.936-0.233,1.342c-0.156,0.405-0.377,0.724-0.662,0.954
					c-0.285,0.231-0.616,0.347-0.993,0.347c-0.251,0-0.473-0.061-0.667-0.181c-0.193-0.121-0.332-0.279-0.417-0.477h-0.082
					c-0.366,0.438-0.833,0.657-1.399,0.657c-0.601,0-1.074-0.181-1.421-0.542c-0.346-0.362-0.52-0.856-0.52-1.484
					c0-0.717,0.228-1.293,0.683-1.731c0.455-0.438,1.049-0.656,1.782-0.656c0.292,0,0.613,0.027,0.965,0.084
					c0.351,0.056,0.641,0.123,0.868,0.201l-0.117,2.489c0,0.472,0.129,0.708,0.387,0.708c0.217,0,0.39-0.159,0.52-0.477
					c0.129-0.317,0.193-0.732,0.193-1.245c0-0.546-0.114-1.028-0.342-1.448c-0.227-0.419-0.547-0.738-0.959-0.959
					c-0.413-0.221-0.884-0.331-1.413-0.331c-0.686,0-1.281,0.141-1.787,0.422c-0.506,0.282-0.894,0.688-1.163,1.22
					c-0.271,0.531-0.405,1.145-0.405,1.841c0,0.937,0.251,1.655,0.751,2.155c0.501,0.501,1.227,0.752,2.177,0.752
					c0.359,0,0.755-0.04,1.187-0.12c0.431-0.08,0.855-0.196,1.272-0.349v0.978c-0.727,0.309-1.532,0.463-2.418,0.463
					c-1.29,0-2.296-0.339-3.017-1.018c-0.722-0.679-1.082-1.623-1.082-2.831c0-0.838,0.185-1.6,0.553-2.283
					c0.368-0.685,0.893-1.221,1.573-1.609c0.68-0.389,1.463-0.583,2.35-0.583c0.746,0,1.413,0.153,2,0.458
					c0.588,0.306,1.041,0.74,1.359,1.304C187.445,228.475,187.604,229.125,187.604,229.861z M182.391,230.498
					c0,0.716,0.292,1.074,0.876,1.074c0.305,0,0.538-0.108,0.697-0.324c0.159-0.215,0.256-0.565,0.29-1.051l0.066-1.125
					c-0.173-0.037-0.368-0.057-0.586-0.057c-0.424,0-0.754,0.133-0.99,0.397C182.509,229.678,182.391,230.039,182.391,230.498z"/>
			</g>
		</g>
		<g>
			<path fill="#9570EE" d="M143.883,94.107H94.492c-4.012,0-7.264,3.252-7.264,7.264s3.252,7.264,7.264,7.264h3.632l3.511,3.511
				l3.511-3.511h38.738c4.012,0,7.264-3.252,7.264-7.264S147.895,94.107,143.883,94.107z"/>
			<path fill="#FFFFFF" d="M129.75,103.688H97.25c-0.449,0-0.813-0.364-0.813-0.813l0,0c0-0.449,0.363-0.813,0.813-0.813h32.501
				c0.448,0,0.813,0.363,0.813,0.813l0,0C130.563,103.323,130.199,103.688,129.75,103.688z"/>
			<path fill="#FFFFFF" d="M119.593,99.219H97.25c-0.449,0-0.813-0.364-0.813-0.813l0,0c0-0.449,0.363-0.813,0.813-0.813h22.344
				c0.449,0,0.813,0.363,0.813,0.813l0,0C120.406,98.854,120.042,99.219,119.593,99.219z"/>
		</g>
		<g>
			<path fill="#F7D3A9" d="M211.392,186.147c0,0-0.604,1.793-0.938,2.877c0,0,2.962-0.063,4.004-1.438l-1.104-2.648L211.392,186.147
				z"/>
			<g>
				<polygon fill="#F79A74" points="210.948,235.598 211.201,236.726 212.835,236.817 212.49,235.437 				"/>
				<path fill="#544DB8" d="M211.201,236.726c0,0-2.74,1.428-2.718,1.52c0.023,0.093,4.629-0.392,4.629-0.392l-0.276-1.036
					L211.201,236.726z"/>
			</g>
			<g>
				<polygon fill="#F79A74" points="224.765,233.324 225.407,234.286 226.965,233.783 226.146,232.619 				"/>
				<path fill="#544DB8" d="M225.407,234.286c0,0-2.043,2.318-1.988,2.396c0.055,0.078,4.178-2.031,4.178-2.031l-0.631-0.867
					L225.407,234.286z"/>
			</g>
			<path fill="#FFC240" d="M207.908,205.776c0,0-4.697,15.337,2.763,30.12h2.211c0,0-4.421-16.718,1.105-30.258L207.908,205.776z"/>
			<path fill="#FFC240" d="M211.986,206.319c0,0,0.729,16.022,12.723,27.44l2.082-0.743c0,0-9.781-14.261-9.125-28.87
				L211.986,206.319z"/>
			<g>
				<path fill="#F79A74" d="M209.834,170.216l0.006-0.945c0-0.042-0.005-0.083-0.016-0.123l-0.18-0.677l-0.539,0.138l-0.55-0.508
					c-0.232-0.214-0.605-0.144-0.739,0.142c-0.17,0.359-0.363,0.823-0.424,1.177c-0.024,0.141,0.022,0.282,0.118,0.388l0.841,0.92
					c0.12,0.132,0.306,0.184,0.478,0.133l0.67-0.198C209.698,170.603,209.833,170.422,209.834,170.216z"/>
				<path fill="#FF4F72" d="M217.938,190.955c0,0-6.127-6.566-6.53-9.024c-0.404-2.457-1.3-11.6-1.3-11.6l-1.89,0.365
					c0,0-0.648,13.076-0.075,14.582c0.574,1.506,4.258,9.181,6.657,9.889C217.2,195.876,218.885,193.51,217.938,190.955z"/>
				<path fill="#F79A74" d="M209.427,180.124c0,0-1.382,4.598-0.507,5.757c0.876,1.159,4.099,0.109,5.35-1.745
					s1.502-6.028-0.626-6.376C211.518,177.412,209.928,178.27,209.427,180.124z"/>
				<path fill="#FF4F72" d="M217.717,207.021c0,0,1.243-13.264,1.243-16.856c0-0.164-0.003-0.318-0.005-0.473
					c-0.925-2.336-3.221-2.29-4.14-2.106c-0.921,0.185-4.514,1.336-4.49,1.474l-0.01-0.012c-1.237,0.898-2.184,1.964-2.271,2.223
					c0,0-3.315,6.908-0.414,15.198L217.717,207.021z"/>
				<path fill="#F79A74" d="M200.158,170.894l-0.161-0.932c-0.007-0.041-0.02-0.081-0.037-0.118l-0.296-0.635l-0.506,0.23
					l-0.631-0.403c-0.266-0.17-0.62-0.035-0.703,0.27c-0.104,0.384-0.213,0.874-0.21,1.232c0.001,0.143,0.071,0.274,0.185,0.36
					l0.988,0.758c0.143,0.109,0.334,0.127,0.494,0.048l0.625-0.313C200.09,171.299,200.193,171.097,200.158,170.894z"/>
				<path fill="#FF4F72" d="M211.776,189.888c0,0-7.185-5.388-8.013-7.737c-0.829-2.349-3.316-11.191-3.316-11.191l-1.796,0.691
					c0,0,1.658,12.987,2.486,14.369c0.829,1.382,5.804,8.29,8.29,8.566C211.915,194.862,213.158,192.236,211.776,189.888z"/>
				<path fill="#544DB8" d="M214.54,177.729c0,0-3.685-1.565-5.435,1.658c-0.921,2.026,2.026,0.092,2.579,0.736
					c0.553,0.646-0.736,1.935-0.368,2.396c0.368,0.46,1.013-0.829,1.382-0.093c0.368,0.737-0.553,0.829-1.198,1.658
					c-0.645,0.829,0.553,2.026-0.368,2.764c-0.921,0.736-3.5,1.289-1.935,5.25c1.566,3.961-2.579,4.974-0.829,10.408
					c1.751,5.435,13.633,8.475,15.844,2.026c2.21-6.447-5.158-8.014-4.698-10.869c0.461-2.855,2.119-3.592-0.092-6.447
					s-3.593-4.514-2.947-6.355C217.119,179.019,215.369,177.729,214.54,177.729z"/>
			</g>
		</g>
		<path fill="#FEC800" d="M224.587,155.459c-4.374,0-7.921,3.546-7.921,7.921c0,4.374,3.547,7.92,7.921,7.92s7.921-3.546,7.921-7.92
			C232.508,159.005,228.961,155.459,224.587,155.459z M220.583,162.764c0-0.535,0.434-0.968,0.969-0.968
			c0.534,0,0.968,0.433,0.968,0.968c0,0.534-0.434,0.968-0.968,0.968C221.016,163.731,220.583,163.298,220.583,162.764z
			 M224.587,167.702c-1.275,0-2.326-0.948-2.495-2.177h4.989C226.914,166.754,225.863,167.702,224.587,167.702z M227.624,163.731
			c-0.535,0-0.968-0.434-0.968-0.968c0-0.535,0.433-0.968,0.968-0.968s0.968,0.433,0.968,0.968
			C228.591,163.298,228.159,163.731,227.624,163.731z"/>
		<polygon fill="#F9FBFC" points="106.935,219.713 106.471,218.785 119.027,212.508 134.867,212.767 152.065,206.289 
			165.202,206.289 179.227,201.613 179.341,201.626 190.589,202.904 196.929,199.607 197.408,200.527 190.788,203.97 
			190.629,203.952 179.338,202.669 165.286,207.325 152.161,207.325 135.048,213.808 134.95,213.806 119.264,213.549 		"/>
		<g>
			<path fill="#544DB8" d="M153.016,194.838c0,0,12.442,20.153,10.887,34.173l8.468,0.175l-3.629-2.103l1.036-0.176
				c0,0-3.11-21.729-6.048-29.44c-3.077-8.076-3.975-5.082-3.975-5.082L153.016,194.838z"/>
			<path fill="#544DB8" d="M148.523,193.587c0,0,0.691,13.998-0.346,19.354c-1.037,5.357-4.147,15.898-4.147,15.898l7.949,0.173
				l-2.088-1.474l-1.325-0.772c0,0,5.66-15.207,6.178-22.466c0.519-7.258,1.383-11.405,1.383-11.405L148.523,193.587z"/>
			<g>
				<polyline fill="#F7D3A9" points="164.789,152.156 166.084,151.249 166.667,149.11 166.02,148.98 165.631,149.758 
					166.02,146.064 165.372,146.194 164.724,149.758 163.946,151.443 164.659,151.896 				"/>
				<polygon fill="#F7D3A9" points="172.457,156.001 172.629,154.445 174.531,152.545 174.962,153.15 174.271,153.928 
					177.901,153.063 177.901,153.842 174.531,155.137 173.839,156.347 				"/>
				<g>
					<g>
						<g>
							<path fill="#6DB8FF" d="M163.889,150.849c0,0-14.758,17.909-16.477,21.491c0,0-0.717,1.289-0.717,5.015
								s1.29,17.479,1.29,17.479l15.044,0.859c0,0-4.872-16.763-5.015-17.192c-0.144-0.43-2.579-3.009-4.872-3.582l12.608-22.78
								L163.889,150.849z"/>
							<g>
								<path fill="#F7D3A9" d="M154.544,173.188c0,0,0.627,1.86,0.973,2.984c0,0-3.07-0.064-4.151-1.492l1.146-2.746
									L154.544,173.188z"/>
								<g>
									<path fill="#F7D3A9" d="M156.879,167.376c0,0,0.908,5.29,0,6.491c-0.908,1.202-4.021-0.841-5.319-2.765
										c-1.297-1.923-1.557-6.251,0.649-6.611C154.415,164.131,156.361,165.453,156.879,167.376z"/>
								</g>
							</g>
							<path fill="#6DB8FF" d="M155.483,177.167c0,0,11.832-7.442,12.786-8.969s3.626-12.882,3.626-12.882l2.29,0.573
								c0,0-1.336,12.69-1.718,14.026s-12.022,13.739-14.694,13.739C155.102,183.655,154.148,180.221,155.483,177.167z"/>
						</g>
					</g>
				</g>
			</g>
			<path fill="#544DB8" d="M156.04,166.197c0,0,0.605-2.074-0.69-3.111c-1.297-1.036-3.543-0.863-3.889-0.518
				c0,0.604,1.383,0.95,1.037,1.296s-2.16,0-2.593,1.814c-0.432,1.814,0.173,2.16,0.173,2.16s-0.95,1.123,0.173,2.679
				c1.124,1.555,3.662,2.837,4.294,2.671s0.286-2.585,0.286-2.585s-1.469-0.173-1.556-1.123c-0.086-0.95,0.691-1.037,1.037-0.691
				s0.432,1.123,0.691,0.95c0.259-0.173-0.087-1.987-0.087-1.987S155.868,166.975,156.04,166.197z"/>
		</g>
		<g>
			<path fill="#9570EE" d="M163.004,219.136l-8.886,2.437c-2.443,0.671-3.894,3.218-3.224,5.661l1.681,6.128
				c0.67,2.443,3.218,3.895,5.661,3.225l2.664-0.731l2.623,2.593l0.934-3.568l2.664-0.73c2.444-0.67,3.895-3.218,3.225-5.661
				l-1.681-6.128C167.995,219.916,165.448,218.465,163.004,219.136z"/>
			<g>
				<circle fill="#FFFFFF" cx="156.142" cy="229.447" r="1.019"/>
				<circle fill="#FFFFFF" cx="160.62" cy="228.219" r="1.019"/>
				<circle fill="#FFFFFF" cx="165.098" cy="226.99" r="1.019"/>
			</g>
		</g>
		<circle fill="#FFC240" cx="119.059" cy="212.769" r="1.642"/>
		<circle fill="#FF4F72" cx="179.369" cy="202.228" r="1.642"/>
	</g>
</g>
<g id="DESIGNED_BY_FREEPIK">
</g>
</svg>
