<?xml version="1.0" encoding="utf-8"?>
<!-- Generator: Adobe Illustrator 16.0.0, SVG Export Plug-In . SVG Version: 6.00 Build 0)  -->
<!DOCTYPE svg PUBLIC "-//W3C//DTD SVG 1.1//EN" "http://www.w3.org/Graphics/SVG/1.1/DTD/svg11.dtd">
<svg version="1.1" xmlns="http://www.w3.org/2000/svg" xmlns:xlink="http://www.w3.org/1999/xlink" x="0px" y="0px" width="330px"
	 height="360.958px" viewBox="0 0 330 360.958" enable-background="new 0 0 330 360.958" xml:space="preserve">
<g id="Objects">
	<g>
		<g>
			<g>
				<g>
					<g>
						<defs>
							<path id="SVGID_9_" d="M44.22-26.225l302.841,61.482c1.321,0.27,2.029,2.272,1.582,4.474l-67.759,333.756
								c-0.447,2.202-1.881,3.771-3.203,3.503l-302.841-61.483c-1.32-0.269-2.029-2.271-1.583-4.474l67.76-333.757
								C41.464-24.924,42.899-26.493,44.22-26.225z"/>
						</defs>
						<clipPath id="SVGID_2_">
							<use xlink:href="#SVGID_9_"  overflow="visible"/>
						</clipPath>
					</g>
				</g>
				<g>
					<g>
						<defs>
							<path id="SVGID_11_" d="M118.984,137.113c-22.291-11.381-41.206-61.853-15.521-58.209
								c23.798,3.376,2.172,49.715,32.278,53.197L118.984,137.113z"/>
						</defs>
						<clipPath id="SVGID_4_">
							<use xlink:href="#SVGID_11_"  overflow="visible"/>
						</clipPath>
					</g>
				</g>
				<g>
					<g>
						<defs>
							<path id="SVGID_13_" d="M119.313,135.084c-6.057-14.511,5.39-46.382,16.217-34.198c10.032,11.287-19.161,24.704-6.15,38.607
								L119.313,135.084z"/>
						</defs>
						<clipPath id="SVGID_5_">
							<use xlink:href="#SVGID_13_"  overflow="visible"/>
						</clipPath>
					</g>
				</g>
				<g>
					<defs>
						<path id="SVGID_15_" d="M300.496,321.635h-443c-1.933,0-3.5-1.567-3.5-3.5v-293c0-1.933,1.567-3.5,3.5-3.5h443
							c1.933,0,3.5,1.567,3.5,3.5v293C303.996,320.067,302.429,321.635,300.496,321.635z"/>
					</defs>
					<clipPath id="SVGID_6_">
						<use xlink:href="#SVGID_15_"  overflow="visible"/>
					</clipPath>
				</g>
			</g>
		</g>
	</g>
	<g>
		<g>
			<g>
				<g>
					<g>
						<defs>
							<path id="SVGID_17_" d="M44.22-26.225l302.841,61.482c1.321,0.27,2.029,2.272,1.582,4.474l-67.759,333.756
								c-0.447,2.202-1.881,3.771-3.203,3.503l-302.841-61.483c-1.32-0.269-2.029-2.271-1.583-4.474l67.76-333.757
								C41.464-24.924,42.899-26.493,44.22-26.225z"/>
						</defs>
						<clipPath id="SVGID_8_">
							<use xlink:href="#SVGID_17_"  overflow="visible"/>
						</clipPath>
						
							<linearGradient id="SVGID_10_" gradientUnits="userSpaceOnUse" x1="78.6191" y1="75.8926" x2="291.9143" y2="338.6472" gradientTransform="matrix(-0.98 -0.199 0.199 -0.98 281.9554 397.5446)">
							<stop  offset="0" style="stop-color:#3F0D85"/>
							<stop  offset="1" style="stop-color:#221783"/>
						</linearGradient>
						<path clip-path="url(#SVGID_8_)" fill="url(#SVGID_10_)" d="M134.812,6.998c9.348-2.024,45.373-9.825,81.909,9.427
							c7.771,4.094,44.309,23.346,51.344,57.935c9.307,45.768-42.982,69.49-41.192,117.409
							c1.539,41.206,58.928,42.844,66.245,88.129c3.819,23.641-5.496,52.079-22.695,66.075
							c-53.68,43.688-240.367-7.515-265.639-132.023C-13.612,123.317,59.499,23.307,134.812,6.998z"/>
						<path display="none" opacity="0.1" clip-path="url(#SVGID_8_)" fill="#9780F9" d="M227.898,151.762
							c11.407,2.314,20.921,6.438,27.677,12.334c13.614,11.882,20.932,35.813,17.021,55.668
							c-3.698,18.768-17.385,28.004-30.621,36.938c-13.094,8.838-25.463,17.186-26.672,34.031
							c-1.352,18.845,7.71,33.564,16.475,47.797c9.76,15.848,18.978,30.817,14.253,50.551
							c-4.413,18.438-20.153,35.031-44.322,46.723c-14.095,6.819-37.389,13.298-68.282,5.498
							c-30.174-7.626-60.428-32.134-80.934-65.557c-21.614-35.232-29.278-75.247-21.025-109.784
							c11.378-47.611,53.857-87.443,113.629-106.548C175.616,149.658,205.429,147.2,227.898,151.762z M139.279,441.842
							c27.864,5.657,48.987-0.394,62.093-6.734c23.956-11.589,39.549-27.999,43.908-46.207c4.648-19.422-4.488-34.257-14.161-49.966
							c-8.828-14.338-17.958-29.164-16.588-48.26c1.236-17.219,13.756-25.668,27.011-34.614
							c13.106-8.845,26.659-17.991,30.295-36.445c3.863-19.605-3.348-43.223-16.77-54.937c-6.668-5.817-16.065-9.888-27.334-12.178
							c-22.319-4.532-51.99-2.072-82.402,7.648C85.819,179.171,43.534,218.793,32.219,266.141
							c-8.206,34.338-0.577,74.141,20.934,109.199c20.401,33.255,50.48,57.632,80.462,65.212
							C135.532,441.036,137.423,441.466,139.279,441.842z"/>
					</g>
				</g>
				<path fill="#F9F9FC" d="M282.211,94.665c-0.008-0.004-0.015-0.006-0.021-0.01c-6.313-7.999-16.089-13.141-27.07-13.141
					c-13.657,0-25.458,7.942-31.04,19.459l-0.001-0.001c-2.881-1.138-6.018-1.753-9.3-1.753c-12.976,0-23.703,9.659-25.387,22.182
					c-0.154,1.129-0.231,2.273-0.231,3.445c0,14.146,11.472,25.617,25.618,25.617h40.229c0.037,0,0.073,0.003,0.111,0.003
					c0.037,0,0.073-0.003,0.111-0.003H270.8c5.872,0,11.334-1.744,15.898-4.736c7.924-5.18,13.163-14.146,13.163-24.326
					C299.861,109.409,292.588,99.101,282.211,94.665z"/>
				<path fill="#F9F9FC" d="M84.566,84.195c-0.002,0-0.005,0-0.008,0c-1.915-2.048-4.288-3.659-6.956-4.674
					c-4.097-5.465-10.625-9.001-17.98-9.001c-8.6,0-16.067,4.836-19.84,11.936c-0.001,0-0.001,0-0.002,0
					c-7.835,1.334-13.799,8.158-13.799,16.369c0,9.172,7.435,16.607,16.607,16.607h16.97c0.021,0,0.042,0.001,0.063,0.001
					c0.021,0,0.042-0.001,0.064-0.001h11.257c0.021,0,0.042,0.001,0.064,0.001s0.042-0.001,0.063-0.001h12.636
					c8.631,0,15.631-6.995,15.631-15.631c0-0.328-0.01-0.654-0.029-0.977C98.82,90.931,92.475,84.62,84.566,84.195z"/>
				<path fill="#72D7E4" d="M281.213,220.892c-4.711,0.001-9.42-1.792-13.006-5.379l7.777-7.777c2.883,2.883,7.574,2.883,10.457,0
					c1.396-1.397,2.166-3.254,2.166-5.229s-0.77-3.831-2.166-5.228l7.777-7.779c3.475,3.475,5.389,8.094,5.389,13.007
					s-1.914,9.532-5.389,13.007C290.634,219.099,285.923,220.892,281.213,220.892z"/>
				<g>
					
						<linearGradient id="SVGID_12_" gradientUnits="userSpaceOnUse" x1="-45.5107" y1="29.29" x2="-12.2085" y2="101.2315" gradientTransform="matrix(0.9581 -0.2865 0.2865 0.9581 130.5352 48.2669)">
						<stop  offset="0" style="stop-color:#3FEA85"/>
						<stop  offset="1" style="stop-color:#221783"/>
					</linearGradient>
					<path fill="url(#SVGID_12_)" d="M118.984,137.113c-22.291-11.381-41.206-61.853-15.521-58.209
						c23.798,3.376,2.172,49.715,32.278,53.197L118.984,137.113z"/>
					<g>
						<defs>
							<path id="SVGID_21_" d="M118.984,137.113c-22.291-11.381-41.206-61.853-15.521-58.209
								c23.798,3.376,2.172,49.715,32.278,53.197L118.984,137.113z"/>
						</defs>
						<clipPath id="SVGID_14_">
							<use xlink:href="#SVGID_21_"  overflow="visible"/>
						</clipPath>
						<g opacity="0.3" clip-path="url(#SVGID_14_)">
							<path fill="#72D7E4" d="M140.538,143.271c-0.251-0.135-25.218-13.791-34.13-34.533c-4.46-10.377-5.709-18.008-4.051-24.739
								c1.685-6.84,6.394-12.828,12.946-19.715l0.437,0.415c-14.031,14.748-17.467,23.582-8.778,43.801
								c8.828,20.547,33.614,34.106,33.863,34.241L140.538,143.271z"/>
							<path fill="#72D7E4" d="M102.285,95.054c-10.557-2.193-13.146-7.857-13.251-8.097l0.553-0.243
								c0.024,0.057,2.595,5.625,12.821,7.749L102.285,95.054z"/>
							<path fill="#72D7E4" d="M107.218,109.869l-0.207-0.566c5.981-2.189,10.342-9.847,10.385-9.924l0.525,0.296
								C117.74,99.997,113.406,107.604,107.218,109.869z"/>
							<path fill="#72D7E4" d="M113.048,119.706c-18.363,0.064-21.337-8.558-21.455-8.925l0.574-0.185l-0.287,0.093l0.287-0.093
								c0.028,0.086,3,8.568,20.879,8.506L113.048,119.706z"/>
						</g>
					</g>
				</g>
				<g>
					
						<linearGradient id="SVGID_16_" gradientUnits="userSpaceOnUse" x1="359.3496" y1="121.2539" x2="380.2737" y2="166.4553" gradientTransform="matrix(0.916 0.4011 -0.4011 0.916 -153.1535 -152.6138)">
						<stop  offset="0" style="stop-color:#3FEA85"/>
						<stop  offset="1" style="stop-color:#221783"/>
					</linearGradient>
					<path fill="url(#SVGID_16_)" d="M119.313,135.084c-6.057-14.511,5.39-46.382,16.217-34.198
						c10.032,11.287-19.161,24.704-6.15,38.607L119.313,135.084z"/>
					<g>
						<defs>
							<path id="SVGID_24_" d="M119.313,135.084c-6.057-14.511,5.39-46.382,16.217-34.198c10.032,11.287-19.161,24.704-6.15,38.607
								L119.313,135.084z"/>
						</defs>
						<clipPath id="SVGID_18_">
							<use xlink:href="#SVGID_24_"  overflow="visible"/>
						</clipPath>
						<g opacity="0.3" clip-path="url(#SVGID_18_)">
							<path fill="#72D7E4" d="M127.14,146.794c-0.065-0.168-6.479-16.856-2.322-30.417c2.081-6.785,4.583-10.948,8.113-13.501
								c3.587-2.593,8.276-3.549,14.215-4.186l0.04,0.377c-12.716,1.364-17.952,4.201-22.006,17.42
								c-4.118,13.434,2.248,30.002,2.313,30.168L127.14,146.794z"/>
							<path fill="#72D7E4" d="M128.403,108.145c-4.168-5.341-3.106-9.106-3.06-9.265l0.363,0.108
								c-0.011,0.036-1.042,3.749,2.995,8.923L128.403,108.145z"/>
							<path fill="#72D7E4" d="M124.746,117.248l0.131-0.355c3.756,1.382,8.957-0.517,9.009-0.535l0.132,0.354
								C133.8,116.794,128.632,118.677,124.746,117.248z"/>
							<path fill="#72D7E4" d="M123.543,124.331c-8.826-7.432-6.747-12.771-6.654-12.996l0.35,0.146l-0.175-0.073l0.175,0.072
								c-0.021,0.052-2.044,5.325,6.549,12.561L123.543,124.331z"/>
						</g>
					</g>
				</g>
				<g>
					<g>
						<path fill="#BDBDEC" d="M281.495,244.25c-0.736,1.917-2.592,3.28-4.77,3.28h-175.36c-2.179,0-4.04-1.363-4.776-3.28
							c-0.335-0.882,0.322-1.825,1.266-1.825h182.375C281.173,242.425,281.83,243.368,281.495,244.25z"/>
					</g>
					<g>
						<path fill="#E8E8FC" d="M272.096,242.426H105.99c-5.377,0-9.735-4.358-9.735-9.735v-98.568c0-5.376,4.358-9.734,9.735-9.734
							h166.105c5.377,0,9.735,4.358,9.735,9.734v98.568C281.831,238.067,277.473,242.426,272.096,242.426z"/>
					</g>
					<linearGradient id="SVGID_19_" gradientUnits="userSpaceOnUse" x1="189.043" y1="259.3008" x2="189.043" y2="147.3932">
						<stop  offset="0" style="stop-color:#545B9C"/>
						<stop  offset="1" style="stop-color:#6B3383"/>
					</linearGradient>
					<path fill="url(#SVGID_19_)" d="M105.99,229.852v-92.89c0-1.568,1.271-2.84,2.84-2.84h160.427c1.567,0,2.839,1.271,2.839,2.84
						v92.89c0,1.568-1.271,2.839-2.839,2.839H108.83C107.262,232.69,105.99,231.42,105.99,229.852z"/>
					<g>
						<path fill="#FFFFFF" d="M205.677,242.425v0.828c0,0.949-0.778,1.728-1.728,1.728h-29.814c-0.949,0-1.722-0.778-1.722-1.728
							v-0.828H205.677z"/>
					</g>
					<path opacity="0.35" fill="#FFFFFF" d="M264.079,143.635v77.646c0,1.574-1.28,2.854-2.854,2.854h-144.36
						c-1.574,0-2.854-1.28-2.854-2.854v-77.646H264.079 M264.829,142.885H113.261v78.396c0,1.991,1.613,3.604,3.604,3.604h144.36
						c1.99,0,3.604-1.613,3.604-3.604V142.885L264.829,142.885z"/>
					<g>
						<path fill="#E8E8FC" d="M263.471,145.395H114.62c-0.751,0-1.359-0.608-1.359-1.359v-2.302c0-0.75,0.608-1.358,1.359-1.358
							h148.851c0.75,0,1.358,0.608,1.358,1.358v2.302C264.829,144.786,264.221,145.395,263.471,145.395z"/>
					</g>
					<path opacity="0.35" fill="#FFFFFF" d="M251.719,193.234H126.371c-1.866,0-3.384-1.518-3.384-3.384v-32.842
						c0-1.865,1.518-3.383,3.384-3.383h125.348c1.866,0,3.384,1.518,3.384,3.383v32.842
						C255.103,191.717,253.585,193.234,251.719,193.234z M126.371,154.376c-1.452,0-2.634,1.182-2.634,2.633v32.842
						c0,1.452,1.182,2.634,2.634,2.634h125.348c1.452,0,2.634-1.182,2.634-2.634v-32.842c0-1.451-1.182-2.633-2.634-2.633H126.371z"
						/>
					<path opacity="0.35" fill="#FFFFFF" d="M218.984,220.343h-92.613c-1.866,0-3.384-1.518-3.384-3.384v-17.557
						c0-1.866,1.518-3.384,3.384-3.384h92.613c1.866,0,3.384,1.518,3.384,3.384v17.557
						C222.368,218.825,220.851,220.343,218.984,220.343z M126.371,196.769c-1.452,0-2.634,1.182-2.634,2.634v17.557
						c0,1.452,1.182,2.634,2.634,2.634h92.613c1.452,0,2.634-1.182,2.634-2.634v-17.557c0-1.452-1.182-2.634-2.634-2.634H126.371z"
						/>
					<path opacity="0.35" fill="#FFFFFF" d="M251.716,220.343h-22.711c-1.866,0-3.384-1.518-3.384-3.384v-17.557
						c0-1.866,1.518-3.384,3.384-3.384h22.711c1.866,0,3.384,1.518,3.384,3.384v17.557
						C255.1,218.825,253.582,220.343,251.716,220.343z M229.005,196.769c-1.452,0-2.634,1.182-2.634,2.634v17.557
						c0,1.452,1.182,2.634,2.634,2.634h22.711c1.452,0,2.634-1.182,2.634-2.634v-17.557c0-1.452-1.182-2.634-2.634-2.634H229.005z"
						/>
					<g>
						<circle fill="#FFA272" cx="118.351" cy="142.885" r="1.25"/>
					</g>
					<g>
						<circle fill="#72D7E4" cx="122.351" cy="142.885" r="1.25"/>
					</g>
					<g>
						<circle fill="#FF3C88" cx="126.351" cy="142.885" r="1.25"/>
					</g>
					<circle fill="#C5C5EA" cx="189.043" cy="129.635" r="2.667"/>
				</g>
				<g>
					<g opacity="0.2">
						<ellipse fill="#1C1E38" cx="248.121" cy="264.315" rx="23.125" ry="0.812"/>
					</g>
					<g>
						<path fill="#DB928D" d="M248.157,191.107c-0.196-0.471-1.226-4.192-0.732-4.323l3.455-0.92
							c0.337-0.089,1.389,1.235,1.497,1.562c0.008,0.024,0.264,0.912,0.262,0.938c-0.012,0.133,0.297,1.819,0.639,2.479
							c0.111,0.216,0.318,0.421,0.559,0.604c0.388,0.294,0.862,0.532,1.165,0.67c0.131,0.059,0.146,0.238,0.027,0.318
							c-1.166,0.792-5.688,3.778-7.122,3.461C246.307,195.54,249.353,193.977,248.157,191.107z"/>
					</g>
					<g>
						<path fill="#F8B7B0" d="M244.511,185.088c0,3.836,0.232,8.407,2.602,7.385c2.38-1.026,6.681-2.436,6.681-6.271
							c0-3.835-0.568-6.945-4.671-6.945C246.542,179.256,244.511,181.252,244.511,185.088z"/>
					</g>
					<g>
						<g>
							<path fill="#FFA272" d="M235.104,260.966l2.255,0.729c0.11,0.036,0.23-0.025,0.267-0.136l0.576-1.784
								c0.036-0.11-0.025-0.23-0.136-0.266l-2.255-0.729c-0.11-0.035-0.23,0.026-0.267,0.137l-0.576,1.784
								C234.933,260.811,234.994,260.931,235.104,260.966z"/>
						</g>
						<g>
							<path fill="#FF3C88" d="M238,261.297c0,0-0.502,2.575-0.898,2.778c-0.396,0.202-2.268-0.402-3.219-1.04
								c-0.95-0.639-1.9-0.366-3.846-0.995c-1.054-0.341-1.841-0.86-1.841-0.86s-0.184-1.209,1.709-0.928
								c1.894,0.281,4.156,0.186,4.651-0.067C235.052,259.931,235.873,261.023,238,261.297z"/>
						</g>
					</g>
					<g>
						<g>
							<path fill="#FFA272" d="M264.63,259.368l1.993-1.281c0.098-0.063,0.127-0.194,0.063-0.292l-1.013-1.577
								c-0.063-0.098-0.194-0.126-0.293-0.063l-1.993,1.281c-0.098,0.063-0.126,0.194-0.063,0.292l1.014,1.577
								C264.4,259.402,264.532,259.431,264.63,259.368z"/>
						</g>
						<g>
							<path fill="#FF3C88" d="M266.722,257.34c0,0,1.673,2.021,1.579,2.456c-0.095,0.435-1.749,1.498-2.846,1.829
								c-1.097,0.33-1.634,2.479-3.675,2.614c-2.608,0.173-2.359,0-2.359,0s-0.532-0.775,1.732-1.657
								c1.808-0.703,2.406-2.742,2.524-3.286C263.796,258.753,265.161,258.811,266.722,257.34z"/>
						</g>
					</g>
					<g>
						<path fill="#1876AA" d="M257.691,220.205c0.145,4.496,1.503,15.068,1.386,16.498c-0.117,1.429-6.583,5.333-7.304,2.662
							c-0.721-2.672-4.77-17.586-6.583-23.259c-1.813-5.672,9.585-4.792,9.585-4.792S257.397,211.065,257.691,220.205z"/>
					</g>
					<g>
						<path fill="#1876AA" d="M262.218,244.557c1.529,3.941,4.07,8.922,4.429,10.179c0.359,1.256-3.439,4.813-4.842,2.484
							s-8.361-12.518-10.119-18.134c-1.369-4.375,6.599-4.931,6.599-4.931S259.109,236.543,262.218,244.557z"/>
					</g>
					<g>
						<path fill="#1E8FDC" d="M254.322,222.779c-2.117,3.969-6.216,13.81-7.03,14.989s-8.366,1.337-7.658-1.337
							c0.708-2.675,4.642-17.62,5.899-23.441c1.259-5.82,10.698,0.63,10.698,0.63S258.628,214.712,254.322,222.779z"/>
					</g>
					<g>
						<path fill="#FFA272" d="M243.442,207.131c-3.956,0.087-10.046-0.719-11.188-1.369c-1.142-0.651-0.926-2.932,0.405-2.87
							s7.998-0.421,10.049,0.242"/>
					</g>
					<g>
						<path fill="#1E8FDC" d="M244.455,247.276c-1.264,4.035-3.603,10.501-4.105,11.707s-5.691,1.617-5.335-1.078
							s2.49-15.987,4.619-21.474c1.659-4.274,8.233,0.261,8.233,0.261S247.023,239.074,244.455,247.276z"/>
					</g>
					<g>
						<path fill="#FFA272" d="M256.896,201.191c1.694,3.498,2.188,6.713,2.796,7.552c1.859,2.564,2.158,1.327,3.366,0.239
							c0.445-0.401,0.707-1.035,0.531-1.608c-0.942-3.065-2.77-10.89-4.684-12.947c-2.098-2.255-3.195-2.483-5.07-2.98
							c0,0-3.096,2.276-5.41,1.344c0,0-1.322,0.501-1.844,1.847c-1.888,4.877-1.835,7.079-1.73,9.911
							c0.129,3.473,0.635,6.598,0.367,7.971c-0.408,2.104-0.493,2.747,0.367,2.865c0.871,0.12,11.064,0.438,11.223-0.4
							c0.025-0.135,0.442-0.261,0.445-0.655c0.016-1.926-1.303-6.709-0.534-10.602c0.132-0.67,0.188-1.353,0.182-2.036
							L256.896,201.191z"/>
					</g>
					<path fill="#1C1E38" d="M247.657,182.448c0,0-3.143,1.104-3.721,0.615c-0.327-0.276-0.608-0.689-0.791-0.996
						c-0.051-0.084,0.044-0.183,0.13-0.134c0.095,0.053,0.203,0.099,0.317,0.116c0.348,0.057,1.011-1.133,2.132-1.768
						c0.069-0.04,0.063-0.144-0.012-0.174c-0.167-0.068-0.396-0.177-0.5-0.294c-0.175-0.197,1.609,0.035,2.717-0.537
						c1.106-0.572,5.102-0.526,5.477,0.633"/>
					<path fill="#1C1E38" d="M249.448,187.164c0,0-3.013-2.832-2.452-4.206c0.561-1.375,3.34-3.348,5.88-3.144
						c2.54,0.205,2.64,3.436,1.888,5.35c-0.753,1.915-1.545,3.327-1.545,3.327S250.997,186.979,249.448,187.164z"/>
					<g>
						
							<ellipse transform="matrix(-0.9721 -0.2347 0.2347 -0.9721 448.799 426.4865)" fill="#F8B7B0" cx="249.779" cy="186.536" rx="1.117" ry="1.417"/>
					</g>
					
						<rect x="222.437" y="202.638" transform="matrix(0.8985 0.4389 -0.4389 0.8985 115.9975 -87.5165)" fill="#FF3C88" width="49.709" height="8.999"/>
					<g>
						<path fill="#F8B7B0" d="M231.021,205.057c0.998,0.445,2.578,1.24,2.93,0.453c0.352-0.786-0.48-1.472-1.478-1.918
							c-0.998-0.446-2.42-0.564-2.771,0.222C229.35,204.601,230.023,204.61,231.021,205.057z"/>
					</g>
					<g>
						<path fill="#F8B7B0" d="M255.084,212.64c0.22,0.411,0.701,0.799,0.701,0.799s-1.608,1.206-2.463,1.568
							s-1.118,0.438-2.16,0.514c-1.043,0.076-2.043,0.042-2.449-1.307c-0.328-1.091,1.089-1.83,1.89-1.789
							c0.802,0.041,2.141,0.481,2.749,0.247c0.608-0.233,1.463-0.736,1.463-0.736S254.876,212.25,255.084,212.64z"/>
					</g>
					<g>
						<path fill="#FFA272" d="M261.266,205.229c-3.094,2.467-6.824,5.654-7.284,6.886c-0.461,1.232,1.522,3.597,2.506,2.697
							c0.982-0.899,5.623-4.221,6.774-6.043"/>
					</g>
				</g>
				<g>
					<g opacity="0.2">
						<ellipse fill="#1C1E38" cx="80.41" cy="248.341" rx="25.58" ry="0.812"/>
					</g>
					<g>
						<g>
							<path fill="#D17198" d="M103.063,247.52l-13.115-52.089c-0.079-0.313-0.396-0.501-0.709-0.424
								c-0.313,0.078-0.503,0.396-0.424,0.709l4.769,18.938H75.259l-1.398-19.124c-0.023-0.321-0.293-0.559-0.625-0.54
								c-0.322,0.023-0.563,0.304-0.54,0.625l3.808,52.089c0.022,0.308,0.278,0.542,0.582,0.542c0.014,0,0.028-0.001,0.043-0.002
								c0.322-0.023,0.563-0.304,0.54-0.625l-1.041-14.236h21.669l3.632,14.422c0.066,0.265,0.305,0.441,0.565,0.441
								c0.048,0,0.096-0.006,0.144-0.018C102.951,248.149,103.142,247.832,103.063,247.52z M76.543,232.214l-1.198-16.392h18.532
								l4.127,16.392H76.543z"/>
						</g>
					</g>
					<g>
						<g>
							<path fill="#F28FB5" d="M90.067,194.608H72.593c-0.531,0-0.965,0.435-0.965,0.965c0,0.477,0.357,0.858,0.813,0.934
								L59.597,247.52c-0.079,0.313,0.111,0.63,0.424,0.709c0.048,0.012,0.096,0.018,0.143,0.018c0.262,0,0.5-0.177,0.566-0.441
								l3.631-14.422h21.67l-1.041,14.236c-0.023,0.321,0.218,0.602,0.54,0.625c0.015,0.001,0.029,0.002,0.043,0.002
								c0.304,0,0.56-0.234,0.582-0.542l3.74-51.167h0.172c0.53,0,0.964-0.434,0.964-0.964S90.598,194.608,90.067,194.608z
								 M64.655,232.214l4.127-16.392h18.532l-1.198,16.392H64.655z M87.4,214.654H69.077l4.562-18.117h15.086L87.4,214.654z"/>
						</g>
					</g>
					<g>
						<g>
							<g>
								<path fill="#F8B7B0" d="M76.586,162.475c0.38,0.114,0.785,0.45,0.785,0.45s0.736-1.545,0.894-2.32
									c0.158-0.773,0.176-1.007,0.064-1.891c-0.112-0.883-0.309-1.711-1.504-1.823c-0.966-0.09-1.344,1.218-1.174,1.88
									s0.763,1.705,0.67,2.252c-0.093,0.548-0.369,1.346-0.369,1.346S76.226,162.367,76.586,162.475z"/>
							</g>
							<g>
								<path fill="#9B1F51" d="M71.197,176.549c2.235-1.3,5.014-2.896,5.877-4.851c0.892-2.021,0.97-8.35,0.898-9.508
									c-0.009-0.149-0.088-0.284-0.212-0.369c-0.788-0.544-1.675-0.485-1.841-0.281c-0.18,0.222,0.126,7.367-1.946,9.668
									c-1.446,1.605-1.709,1.533-3.422,2.338c-1.607,0.756-2.803,0.122-2.885,2.064C67.583,177.553,69.083,177.779,71.197,176.549
									z"/>
							</g>
						</g>
						<g>
							<g>
								<path fill="#F8B7B0" d="M71.531,176.887c1.99,0.264,3.253-0.815,3.652-1.313c0.399-0.497-0.883-0.997-1.346-1.496
									c-0.198-0.213-0.278-0.558-0.283-0.998c-0.008-0.594-0.024-2.478,0.144-3.322l-3.856,0.417c0,0,0.129,1.969,0.127,2.705
									c0,0.132-0.017,0.243-0.049,0.343c-0.147,0.459-0.627,0.653-1.392,1.256C67.597,175.212,69.541,176.623,71.531,176.887z"/>
							</g>
							<g>
								<g>
									<g>
										<path fill="#F8B7B0" d="M68.163,169.646c1.14,1.945,1.727,2.871,2.929,3.315c1.202,0.445,2.222,0.441,2.89,0.122
											c0.834-0.399,1.396-2.436,1.208-3.398c-0.196-0.996-0.967-3.438-2.279-5.536c-0.665-1.063-2.58-1.825-3.891-1.198
											S65.377,164.896,68.163,169.646z"/>
									</g>
								</g>
								<g>
									<path fill="#1C1E38" d="M72.939,166.437c0.595,1.871,0.459,2.72-0.058,3.82c-0.518,1.102-1.497,1.695-2.202,1.75
										c-0.892,0.068-1.095-0.174-2.649-1.63c-0.649-0.608-1.724-1.448-2.31-3.524c-0.296-1.053,0.491-2.836,1.849-3.434
										C68.928,162.82,71.487,161.868,72.939,166.437z"/>
								</g>
								<g>
									<path fill="#F8B7B0" d="M73.917,167.606c0.21,0.701-0.019,1.396-0.511,1.551c-0.493,0.154-1.063-0.289-1.273-0.99
										s0.019-1.396,0.511-1.551C73.137,166.462,73.707,166.905,73.917,167.606z"/>
								</g>
								<path fill="#1C1E38" d="M71.906,165.677c0.688-0.977,1.653-1.926,0.707-2.599c-0.946-0.672-3.309-1.417-5.469,0.423
									C64.588,165.677,71.906,165.677,71.906,165.677z"/>
							</g>
						</g>
						<g>
							<path fill="#9B1F51" d="M81.027,231.257c-2.051-0.11-3.842-0.663-3.758,0.597c0.072,1.068,0.165,0.978,3.672,0.997
								c2.055,0.012,3.734-0.155,3.758-0.596C84.724,231.814,83.079,231.368,81.027,231.257z"/>
						</g>
						<g>
							<path fill="#9B1F51" d="M71.13,231.258c-1.94-0.677-3.842-0.664-3.758,0.596c0.072,1.069-0.07,0.978,3.437,0.997
								c2.055,0.012,2.588-0.414,2.251-0.697C72.51,231.689,71.953,231.545,71.13,231.258z"/>
						</g>
						<g>
							<path fill="#FF3C88" d="M73.925,173.434c-1.891,0.004-2.904-0.086-5.122,0.447c-1.548,0.371-3.211,1.372-2.611,5.995
								c0,0,1.159,11.374,1.227,12.929c0.16,3.661-0.891,4.403,2.06,4.141c3.11-0.278,6.813-0.132,8.313-0.311
								c0.468-0.056,0.336-1.17,0.154-2.538c-0.147-1.107-1.034-9.771-0.914-13.843C77.05,177.446,77.805,173.425,73.925,173.434z"
								/>
						</g>
						<g>
							<path fill="#43A2CC" d="M67.698,229.892c-0.111,1.098-0.246,1.507-0.246,1.507s0.725,0.135,2.991-0.146
								c0.222-0.029,0.607-3.265,0.753-4.818c0.152-1.589,0.847-9.13,0.794-10.917c-0.058-1.782,0.275-12.529,0.275-12.529h0.783
								c0,0,2.173,5.584,2.482,7.575c0.467,3.044,0.824,4.872,0.777,5.941c-0.076,1.909,0.835,11.716,1.004,12.762
								c0.169,1.045,0,2.149,0,2.149s1.665,0.508,3.376,0.064c0,0-0.239-14.585-0.292-16.944c-0.035-1.63-1.198-9.959-1.852-14.527
								c-0.012-0.104-0.023-0.204-0.041-0.304c-0.234-1.63-0.392-2.71-0.392-2.71s0-0.444-0.391-0.497
								c-0.199-0.028-0.45-0.075-1.25-0.116c-0.094-0.006-0.199-0.006-0.31-0.018c-0.759-0.023-1.928-0.047-3.756-0.047
								c-4.34,0-5.035,0.105-5.035,0.403c0,0,0.526,15.514,0.637,17.973C68.124,217.152,67.809,228.793,67.698,229.892z"/>
						</g>
						<g>
							<path fill="#F8B7B0" d="M79.831,191.266"/>
						</g>
						<g>
							<g>
								<path fill="#2B7D99" d="M76.162,196.363c0.111,0.012,0.216,0.012,0.31,0.018c-0.1,0.263-0.152,0.549-0.152,0.847
									c0,1.273,0.952,2.325,2.185,2.477c0.018,0.1,0.029,0.199,0.041,0.304c-1.414-0.14-2.518-1.338-2.518-2.78
									C76.027,196.93,76.074,196.638,76.162,196.363z"/>
							</g>
						</g>
						<path fill="#FFA272" d="M92.698,172.252c-6.456,0-12.524-2.514-17.089-7.078s-7.078-10.634-7.078-17.089
							s2.514-12.523,7.078-17.088l7.778,7.778c-5.134,5.134-5.134,13.486,0,18.62c2.486,2.487,5.793,3.856,9.311,3.856
							c3.517,0,6.823-1.37,9.311-3.856l7.777,7.778C105.222,169.738,99.153,172.252,92.698,172.252z"/>
						<g>
							<path fill="#F8B7B0" d="M89.807,172.789c0.149,0.368,0.14,0.895,0.14,0.895s1.666-0.393,2.369-0.754
								c0.703-0.36,0.896-0.492,1.516-1.132c0.618-0.641,1.142-1.313,0.481-2.314c-0.533-0.811-1.79-0.287-2.201,0.26
								c-0.41,0.546-0.853,1.661-1.338,1.932c-0.485,0.27-1.28,0.554-1.28,0.554S89.665,172.44,89.807,172.789z"/>
						</g>
						<g>
							<path fill="#FF3C88" d="M75.454,177.388c2.413,0.931,5.396,2.101,7.461,1.552c2.135-0.568,7.121-4.465,7.979-5.246
								c0.111-0.101,0.167-0.247,0.156-0.396c-0.068-0.955-0.669-1.61-0.933-1.612c-0.285-0.002-5.669,4.705-8.76,4.528
								c-2.158-0.124-2.266-0.375-3.965-1.208c-1.595-0.782-1.848-2.11-3.415-0.96C72.411,175.195,73.172,176.507,75.454,177.388z"
								/>
						</g>
					</g>
				</g>
				<path fill="#FF3C88" d="M199.91,117.411c-9.383,0-17.016-7.633-17.016-17.016s7.633-17.018,17.016-17.018
					s17.017,7.635,17.017,17.018S209.293,117.411,199.91,117.411z M199.91,92.378c-4.42,0-8.016,3.597-8.016,8.018
					c0,4.42,3.596,8.016,8.016,8.016s8.017-3.596,8.017-8.016C207.927,95.975,204.33,92.378,199.91,92.378z"/>
				<g>
					<g opacity="0.3">
						<path fill="#CD4776" d="M169.128,164.874h-38.912c-2.355,0-4.265,1.91-4.265,4.266v22.441c0,2.355,1.909,4.266,4.265,4.266
							h4.422l5.509,7.367c1.177,1.574,3.538,1.574,4.716,0l5.509-7.367h18.757c2.355,0,4.266-1.91,4.266-4.266V169.14
							C173.394,166.784,171.483,164.874,169.128,164.874z"/>
					</g>
					<g>
						<path fill="#CD4776" d="M161.128,171.874h-38.912c-2.355,0-4.265,1.91-4.265,4.266v22.441c0,2.355,1.909,4.266,4.265,4.266
							h4.422l5.509,7.367c1.177,1.574,3.538,1.574,4.716,0l5.509-7.367h18.757c2.355,0,4.266-1.91,4.266-4.266V176.14
							C165.394,173.784,163.483,171.874,161.128,171.874z"/>
					</g>
					<path fill="#B23062" d="M155.503,179.717h-31.104c-0.828,0-1.5-0.672-1.5-1.5s0.672-1.5,1.5-1.5h31.104
						c0.828,0,1.5,0.672,1.5,1.5S156.331,179.717,155.503,179.717z"/>
					<path fill="#B23062" d="M155.503,186.796h-31.104c-0.828,0-1.5-0.672-1.5-1.5s0.672-1.5,1.5-1.5h31.104
						c0.828,0,1.5,0.672,1.5,1.5S156.331,186.796,155.503,186.796z"/>
					<path fill="#B23062" d="M141.212,193.875h-16.813c-0.828,0-1.5-0.672-1.5-1.5s0.672-1.5,1.5-1.5h16.813
						c0.828,0,1.5,0.672,1.5,1.5S142.04,193.875,141.212,193.875z"/>
				</g>
				<g>
					<g>
						<g opacity="0.3">
							<path fill="#48BFCC" d="M194.497,156.471h24.128c1.461,0,2.646,1.185,2.646,2.645v13.916c0,1.46-1.185,2.645-2.646,2.645
								h-2.741l-3.416,4.568c-0.729,0.977-2.194,0.977-2.924,0l-3.416-4.568h-11.631c-1.461,0-2.646-1.185-2.646-2.645v-13.916
								C191.852,157.655,193.036,156.471,194.497,156.471z"/>
						</g>
						<g>
							<path fill="#48BFCC" d="M190.457,160.812h24.129c1.46,0,2.645,1.184,2.645,2.645v13.915c0,1.461-1.185,2.646-2.645,2.646
								h-2.742l-3.415,4.568c-0.73,0.977-2.194,0.977-2.925,0l-3.416-4.568h-11.631c-1.461,0-2.645-1.185-2.645-2.646v-13.915
								C187.813,161.995,188.996,160.812,190.457,160.812z"/>
						</g>
					</g>
					<g>
						<circle fill="#F9F9FC" cx="195.039" cy="170.394" r="2.151"/>
						<circle fill="#F9F9FC" cx="202.521" cy="170.394" r="2.151"/>
						<circle fill="#F9F9FC" cx="210.004" cy="170.394" r="2.151"/>
					</g>
				</g>
				<g>
					<defs>
						<path id="SVGID_27_" d="M300.496,321.635h-443c-1.933,0-3.5-1.567-3.5-3.5v-293c0-1.933,1.567-3.5,3.5-3.5h443
							c1.933,0,3.5,1.567,3.5,3.5v293C303.996,320.067,302.429,321.635,300.496,321.635z"/>
					</defs>
					<clipPath id="SVGID_20_">
						<use xlink:href="#SVGID_27_"  overflow="visible"/>
					</clipPath>
				</g>
			</g>
		</g>
	</g>
	<g>
		<g>
			<g>
				<g>
					<g>
						<defs>
							<path id="SVGID_29_" d="M44.22-26.225l302.841,61.482c1.321,0.27,2.029,2.272,1.582,4.474l-67.759,333.756
								c-0.447,2.202-1.881,3.771-3.203,3.503l-302.841-61.483c-1.32-0.269-2.029-2.271-1.583-4.474l67.76-333.757
								C41.464-24.924,42.899-26.493,44.22-26.225z"/>
						</defs>
						<clipPath id="SVGID_22_">
							<use xlink:href="#SVGID_29_"  overflow="visible"/>
						</clipPath>
					</g>
				</g>
				<g>
					<g>
						<defs>
							<path id="SVGID_31_" d="M118.984,137.113c-22.291-11.381-41.206-61.853-15.521-58.209
								c23.798,3.376,2.172,49.715,32.278,53.197L118.984,137.113z"/>
						</defs>
						<clipPath id="SVGID_23_">
							<use xlink:href="#SVGID_31_"  overflow="visible"/>
						</clipPath>
					</g>
				</g>
				<g>
					<g>
						<defs>
							<path id="SVGID_33_" d="M119.313,135.084c-6.057-14.511,5.39-46.382,16.217-34.198c10.032,11.287-19.161,24.704-6.15,38.607
								L119.313,135.084z"/>
						</defs>
						<clipPath id="SVGID_25_">
							<use xlink:href="#SVGID_33_"  overflow="visible"/>
						</clipPath>
					</g>
				</g>
				<g>
					<defs>
						<path id="SVGID_35_" d="M300.496,321.635h-443c-1.933,0-3.5-1.567-3.5-3.5v-293c0-1.933,1.567-3.5,3.5-3.5h443
							c1.933,0,3.5,1.567,3.5,3.5v293C303.996,320.067,302.429,321.635,300.496,321.635z"/>
					</defs>
					<clipPath id="SVGID_26_">
						<use xlink:href="#SVGID_35_"  overflow="visible"/>
					</clipPath>
				</g>
			</g>
		</g>
	</g>
</g>
</svg>
