<?xml version="1.0" encoding="utf-8"?>
<!-- Generator: Adobe Illustrator 16.0.0, SVG Export Plug-In . SVG Version: 6.00 Build 0)  -->
<!DOCTYPE svg PUBLIC "-//W3C//DTD SVG 1.1//EN" "http://www.w3.org/Graphics/SVG/1.1/DTD/svg11.dtd">
<svg version="1.1" xmlns="http://www.w3.org/2000/svg" xmlns:xlink="http://www.w3.org/1999/xlink" x="0px" y="0px" width="270px"
	 height="270px" viewBox="0 0 270 270" enable-background="new 0 0 270 270" xml:space="preserve">
<g id="Layer_1_copy">
	<path fill="#FFFFFF" d="M269.997,0L0,1.271L1.271,271.27l269.998-1.272L269.997,0z M83.772,258.381
		c-8.011,0-14.803-6.062-14.803-14.72c0-8.485,6.792-14.546,14.803-14.546c7.837,0,14.629,6.061,14.629,14.546
		C98.401,252.319,91.609,258.381,83.772,258.381z M65.002,115.294h-6.275v20.15H40.423V47.041h24.579
		c24.84,0,39.744,12.87,39.744,34.191C104.747,102.553,89.711,115.294,65.002,115.294z M176.983,227.001
		c0,21.749-12.822,31.648-31.527,31.648c-16.896,0-26.7-8.699-31.679-19.199l17.197-10.35c3.318,5.851,6.335,10.8,13.576,10.8
		c6.938,0,11.313-2.7,11.313-13.199v-71.397h21.119V227.001z M179.655,135.444h-60.662V47.041h58.832v15.99h-40.528v28.081h35.69
		v15.601h-35.69v12.741h42.358V135.444z M226.91,258.649c-19.61,0-32.281-9.299-38.466-21.449l17.196-9.899
		c4.525,7.35,10.408,12.75,20.817,12.75c8.749,0,14.33-4.35,14.33-10.35c0-7.2-5.732-9.75-15.387-13.949l-5.279-2.25
		c-15.235-6.45-25.343-14.55-25.343-31.649c0-15.749,12.068-27.749,30.924-27.749c13.426,0,23.08,4.65,30.02,16.8l-16.442,10.5
		c-3.621-6.45-7.543-9-13.577-9c-6.185,0-10.106,3.899-10.106,9c0,6.3,3.922,8.85,12.973,12.749l5.28,2.25
		c17.95,7.649,28.058,15.449,28.058,32.999C261.907,248.3,246.973,258.649,226.91,258.649z M241.098,135.444l-14.643-22.36
		c-1.7,0.26-3.53,0.39-5.229,0.39h-6.275v21.971h-18.304V47.041h24.579c24.84,0,39.744,11.83,39.744,33.411
		c0,13.78-6.146,22.491-17.127,27.431l18.434,27.562H241.098z"/>
	<path fill="#FFFFFF" d="M64.479,63.031h-5.752v36.271h5.752c14.904,0,21.441-5.98,21.441-18.07
		C85.92,69.012,79.122,63.031,64.479,63.031z"/>
	<path fill="#FFFFFF" d="M220.703,63.031h-5.752v34.582h5.752c14.904,0,21.441-4.681,21.441-17.161S235.345,63.031,220.703,63.031z"
		/>
</g>
<g id="Layer_1">
</g>
</svg>
