<?xml version="1.0" encoding="UTF-8"?>
<svg width="114px" height="61px" viewBox="0 0 114 61" version="1.1" xmlns="http://www.w3.org/2000/svg" xmlns:xlink="http://www.w3.org/1999/xlink">
    <!-- Generator: Sketch 43.2 (39069) - http://www.bohemiancoding.com/sketch -->
    <title>YUXI_LOGO_WHITE</title>
    <desc>Created with Sketch.</desc>
    <defs></defs>
    <g id="Page-1" stroke="none" stroke-width="1" fill="none" fill-rule="evenodd">
        <g id="YUXI_LOGO_WHITE" fill-rule="nonzero" fill="#FFFFFF">
            <g id="YUXI_LOGO_WHITE-old" transform="translate(0.000000, -1.000000)">
                <path d="M24.3,0.7 C21.3,2 1.1,13.9 1.1,13.9 C1.1,13.9 6.3,17 7.1,17.4 C7.8,17.8 8.6,18 10.5,17 C12.3,16 23.1,10.1 24.2,9.5 C25.3,8.9 27.9,8.2 30.4,9.5 C33.6,11.2 44,17.1 44,17.1 C44,17.1 46,18.3 48.2,17.2 L53.6,14 C53.6,14 31.8,1.3 30.4,0.8 C29.4,0.4 28.4,0.2 27.3,0.2 C26.3,3.88578059e-16 25.3,0.2 24.3,0.7 M0.4,42.2 C0.6,44.3 1.7,46.3 3.5,47.5 C6.1,49.4 26.5,61 26.5,61 L26.5,54 C26.5,53.2 26.3,52.3 24.4,51.3 C22.6,50.2 12.1,44 11,43.3 C9.9,42.6 8.1,40.5 8,37.8 C7.9,34.2 7.9,22.2 7.9,22.2 C7.9,20.5 7.4,19.7 6.3,19 L0.3,15.5 C0.2,15.5 0.2,40.7 0.4,42.2" id="Shape"></path>
                <path d="M48.5,19.1 C47.5,19.7 46.9,20.6 46.9,22.3 C46.9,22.3 47,34.2 46.8,37.9 C46.7,40.7 44.9,42.8 43.8,43.4 C42.7,44.1 32.2,50.3 30.4,51.3 C28.6,52.4 28.3,53.2 28.3,54 L28.3,61 C28.3,61 48.7,49.4 51.3,47.5 C53.1,46.3 54.2,44.2 54.4,42.2 C54.6,40.7 54.5,15.6 54.5,15.6 L48.5,19.1 L48.5,19.1 Z M9.8,21.4 C9.8,21.4 21.7,28.1 23.6,29.2 C25.4,30.3 26.5,30.7 26.5,34.2 L26.5,50.2 C26.5,50.2 21.2,47.1 20.7,46.8 C20,46.4 19.4,45.5 19.3,44.1 C19.3,43.3 19.4,35.5 19.1,34.4 C18.7,33.3 17,32 16.5,31.7 C13.9,30.1 11.4,28.7 10.8,28.3 C10.2,27.9 9.9,27.6 9.9,26.7 L9.9,21.4 L9.8,21.4 Z M45,21.4 C45,21.4 33.1,28.1 31.2,29.2 C29.4,30.3 28.3,30.7 28.3,34.2 L28.3,50.2 C28.3,50.2 33.6,47.1 34.1,46.8 C34.8,46.4 35.4,45.5 35.5,44.1 C35.5,43.3 35.4,35.5 35.7,34.4 C36.1,33.3 37.8,32 38.3,31.7 C40.9,30.1 43.4,28.7 44,28.3 C44.6,27.9 44.9,27.6 44.9,26.7 L44.9,21.4 L45,21.4 Z M66.2,57.1 C65.5,57.1 64.9,57 64.4,56.8 C63.9,56.6 63.5,56.2 63.2,55.8 C62.9,55.4 62.7,54.9 62.6,54.3 C62.5,53.7 62.4,53.1 62.4,52.3 L62.4,47.6 C62.4,47 62.4,46.4 62.5,45.9 C62.6,45.4 62.7,45 62.9,44.5 C63.1,44.1 63.4,43.7 63.7,43.5 C64,43.2 64.4,43 64.9,42.9 C65.4,42.8 65.9,42.7 66.6,42.7 C67.2,42.7 67.8,42.8 68.2,42.9 C68.7,43 69.1,43.2 69.4,43.4 C69.7,43.6 70,43.9 70.2,44.3 C70.4,44.6 70.5,45 70.6,45.4 C70.7,45.8 70.7,46.3 70.7,46.8 L70.7,47.7 L67.6,47.7 L67.6,46.1 C67.6,46 67.6,45.8 67.5,45.7 C67.5,45.5 67.4,45.4 67.3,45.3 C67.2,45.2 67.1,45.1 67,45.1 C66.9,45 66.7,45 66.5,45 C66.3,45 66.1,45 66,45.1 L65.7,45.4 C65.6,45.5 65.6,45.6 65.5,45.8 L65.4,46.3 L65.4,53.2 C65.4,53.8 65.5,54.2 65.7,54.5 C65.9,54.8 66.2,55 66.6,55 C67.4,55 67.8,54.4 67.8,53.1 L67.8,51.5 L66.5,51.5 L66.5,49.6 L70.6,49.6 L70.6,57.1 L68.6,57.1 L68.4,55.7 C68.1,56.6 67.3,57.1 66.2,57.1 L66.2,57.1 Z M72.1,57.1 L72.1,42.7 L75.2,42.7 L75.2,55 L78.5,55 L78.5,57.1 L72.1,57.1 L72.1,57.1 Z M83.3,57.1 C82.5,57.1 81.8,57 81.3,56.8 C80.7,56.6 80.3,56.3 80,55.9 C79.7,55.5 79.4,55 79.3,54.5 C79.2,53.9 79.1,53.3 79.1,52.5 L79.1,47.3 C79.1,46.5 79.2,45.9 79.3,45.3 C79.4,44.8 79.7,44.3 80,43.9 C80.3,43.5 80.8,43.2 81.3,43 C81.9,42.8 82.5,42.7 83.3,42.7 C84.8,42.7 85.9,43.1 86.6,43.9 C87.3,44.7 87.6,45.8 87.6,47.3 L87.6,52.5 C87.6,54 87.3,55.2 86.6,56 C85.9,56.7 84.8,57.1 83.3,57.1 L83.3,57.1 Z M82.8,54.8 C82.9,54.9 83.1,54.9 83.3,54.9 C83.5,54.9 83.7,54.9 83.8,54.8 L84.1,54.6 C84.2,54.5 84.2,54.4 84.3,54.2 C84.3,54 84.4,53.9 84.4,53.8 L84.4,46.1 C84.4,46 84.4,45.8 84.3,45.7 C84.3,45.5 84.2,45.4 84.1,45.3 C84,45.2 83.9,45.1 83.8,45.1 C83.7,45 83.5,45 83.3,45 C83.1,45 82.9,45 82.8,45.1 L82.5,45.3 C82.4,45.4 82.4,45.5 82.3,45.7 C82.3,45.9 82.2,46 82.2,46.1 L82.2,53.8 C82.2,53.8 82.2,54.1 82.3,54.2 C82.3,54.4 82.4,54.5 82.5,54.6 C82.5,54.6 82.6,54.7 82.8,54.8 Z M88.8,57.1 L88.8,42.7 L92.5,42.7 C93,42.7 93.5,42.7 93.9,42.8 L95.1,43.1 C95.5,43.3 95.8,43.5 96.1,43.7 C96.4,44 96.6,44.3 96.7,44.8 C96.8,45.2 96.9,45.7 96.9,46.3 L96.9,46.4 C96.9,48.1 96.2,49 94.8,49.3 C95.6,49.4 96.2,49.8 96.7,50.3 C97.1,50.9 97.3,51.7 97.4,52.7 L97.4,52.8 C97.4,54.2 97,55.3 96.3,55.9 C95.6,56.6 94.5,56.9 93.1,56.9 L88.8,56.9 L88.8,57.1 Z M91.9,48.4 L92.5,48.4 C93.2,48.4 93.6,48.2 93.9,47.9 C94.1,47.6 94.3,47.1 94.3,46.4 C94.3,45.3 93.7,44.7 92.5,44.7 L92,44.7 L92,48.4 L91.9,48.4 Z M91.9,54.8 L92.6,54.8 C93.3,54.8 93.8,54.6 94,54.3 C94.3,54 94.4,53.4 94.4,52.7 C94.4,51.9 94.3,51.3 94,51 C93.7,50.7 93.2,50.5 92.5,50.5 L91.9,50.5 L91.9,54.8 L91.9,54.8 Z M97.6,57.1 L100.3,42.7 L103.8,42.7 L106.5,57.1 L103.6,57.1 L103.1,54 L101,54 L100.5,57.1 L97.6,57.1 L97.6,57.1 Z M101.3,52.1 L102.8,52.1 L102,46.5 L101.3,52.1 Z M107.4,57.1 L107.4,42.7 L110.5,42.7 L110.5,55 L113.8,55 L113.8,57.1 L107.4,57.1 L107.4,57.1 Z M62.7,39.5 L62.7,28.8 L57.7,13.3 L63.2,13.3 L65.7,21.6 L68,13.3 L73.3,13.3 L68.4,28.8 L68.4,39.5 L62.7,39.5 L62.7,39.5 Z M82.2,39.5 C81,39.5 80,39.4 79.1,39.1 C78.2,38.9 77.5,38.5 76.9,38.1 C76.3,37.7 75.8,37.1 75.5,36.4 C75.1,35.7 74.9,34.9 74.7,34 C74.6,33.1 74.5,32.1 74.5,31 L74.5,13.2 L80.2,13.2 L80.2,32.8 C80.2,33.1 80.3,33.4 80.4,33.7 C80.5,34 80.6,34.3 80.7,34.5 C80.8,34.7 81,34.9 81.3,35 C81.6,35.1 81.9,35.2 82.2,35.2 C82.6,35.2 82.9,35.1 83.1,35 C83.4,34.9 83.5,34.7 83.7,34.5 C83.8,34.3 83.9,34 84,33.7 L84.2,32.8 L84.2,13.2 L90,13.2 L90,31 C90,32.4 89.9,33.7 89.6,34.7 C89.4,35.7 88.9,36.6 88.4,37.3 C87.8,38 87,38.6 86,39 C85,39.3 83.7,39.5 82.2,39.5 L82.2,39.5 Z M91.1,39.5 L96.2,25.3 L91.3,13.2 L96.8,13.2 L99.7,20.3 L102,13.2 L106.9,13.2 L102.3,26.8 L107.4,39.5 L102,39.5 L98.8,31.7 L96,39.5 L91.1,39.5 Z M108.2,39.5 L108.2,13.2 L113.8,13.2 L113.8,39.5 L108.2,39.5 Z M74,3.9 L74.4,3.9 L74.4,10.1 L74,10.1 L74,3.9 Z M76.8,5.6 C76.4,5.6 76.1,5.8 75.8,6.1 L75.8,5.6 L75.4,5.6 L75.4,10.1 L75.8,10.1 L75.8,6.4 L76.2,6 C76.4,5.9 76.5,5.9 76.6,5.9 C76.8,5.9 76.9,6 76.9,6.1 C77,6.2 77,6.4 77,6.6 L77,10.1 L77.4,10.1 L77.4,6.6 C77.4,6.3 77.3,6 77.2,5.9 C77.1,5.7 77,5.6 76.8,5.6 Z M79.9,8.4 C79.8,8.3 79.7,8.2 79.7,8.1 L79.4,7.8 L78.9,7.3 L78.5,6.9 C78.4,6.8 78.4,6.6 78.4,6.5 C78.4,6.3 78.5,6.2 78.6,6.1 C78.7,6 78.9,5.9 79.1,5.9 C79.5,5.9 79.8,6.2 79.8,6.8 L80.1,6.7 C80.1,6.3 80,6.1 79.8,5.9 C79.6,5.7 79.4,5.6 79.1,5.6 C78.8,5.6 78.5,5.7 78.4,5.8 C78.2,6 78.1,6.2 78.1,6.5 C78.1,6.7 78.2,6.9 78.3,7.1 C78.4,7.3 78.6,7.4 78.8,7.6 L79.3,8 C79.7,8.4 80,8.7 80,9 C80,9.2 79.9,9.4 79.8,9.5 C79.7,9.6 79.5,9.7 79.3,9.7 C78.8,9.7 78.5,9.4 78.4,8.7 L78.1,8.8 C78.1,9.2 78.3,9.5 78.5,9.7 C78.7,9.9 79,10 79.3,10 C79.6,10 79.9,9.9 80.1,9.7 C80.3,9.5 80.4,9.3 80.4,9 C80.4,8.8 80.4,8.7 80.3,8.6 C80.1,8.6 80,8.5 79.9,8.4 L79.9,8.4 Z M82.7,6.1 C82.6,5.9 82.5,5.8 82.4,5.7 C82.3,5.6 82.1,5.6 81.9,5.6 C81.6,5.6 81.3,5.7 81.1,6 L81.1,5.6 L80.7,5.6 L80.7,11.4 L81.1,11.4 L81.1,9.6 C81.3,9.9 81.6,10 81.9,10 C82.3,10 82.6,9.8 82.7,9.5 C82.9,9.2 82.9,8.7 82.9,8.1 L82.9,6.5 L82.7,6.1 Z M82.5,8.3 C82.5,8.9 82.5,9.3 82.4,9.5 C82.3,9.7 82.1,9.9 81.9,9.9 C81.6,9.9 81.4,9.8 81.1,9.5 L81.1,6.4 C81.3,6.1 81.6,6 81.9,6 C82.2,6 82.4,6.1 82.4,6.3 C82.5,6.5 82.5,6.9 82.5,7.5 L82.5,8.3 Z M83.6,4.4 L84,4.4 L84,5.1 L83.6,5.1 L83.6,4.4 Z M86.3,5.6 C86.1,5.6 85.9,5.7 85.7,5.8 C85.5,5.9 85.4,6.1 85.2,6.3 L85.2,5.7 L84.8,5.7 L84.8,10.2 L85.2,10.2 L85.2,6.6 C85.4,6.2 85.7,6 86.2,6 L86.4,6 L86.3,5.6 L86.3,5.6 Z M88.9,7.4 C88.9,6.8 88.8,6.3 88.7,6.1 C88.5,5.8 88.3,5.7 87.8,5.7 L87.4,5.7 L87.1,5.8 C87,5.9 86.9,6 86.9,6.1 C86.8,6.2 86.8,6.4 86.8,6.6 C86.8,6.8 86.7,7 86.7,7.3 L86.7,8.5 C86.7,8.8 86.7,9 86.8,9.2 C86.8,9.4 86.9,9.6 86.9,9.7 L87.1,10 L87.4,10.2 L87.8,10.2 C88.2,10.2 88.5,10.1 88.6,9.9 C88.8,9.7 88.9,9.4 88.9,9 L88.9,8.7 L88.5,8.7 L88.5,9.4 L88.4,9.7 C88.4,9.8 88.3,9.8 88.2,9.8 L88,9.9 L87.8,9.9 C87.5,9.9 87.4,9.8 87.2,9.6 C87.1,9.4 87,9.1 87,8.5 L87,7.8 L88.8,7.8 L88.9,7.4 L88.9,7.4 Z M88.5,7.6 L87.1,7.6 L87.1,7.3 C87.1,7 87.1,6.7 87.2,6.5 C87.3,6.3 87.3,6.2 87.4,6.1 C87.5,6 87.6,6 87.8,6 C87.9,6 88,6 88.1,6.1 C88.2,6.1 88.3,6.2 88.3,6.3 L88.4,6.6 C88.4,6.7 88.4,6.8 88.5,6.9 L88.5,7.6 L88.5,7.6 Z M95.5,8.4 C95.4,8.3 95.3,8.2 95.3,8.1 L95,7.8 L94.5,7.3 L94.1,6.9 C94,6.8 94,6.6 94,6.5 C94,6.3 94.1,6.2 94.2,6.1 C94.3,6 94.5,5.9 94.7,5.9 C95.1,5.9 95.4,6.2 95.4,6.8 L95.7,6.7 C95.7,6.3 95.6,6.1 95.4,5.9 C95.2,5.7 95,5.6 94.7,5.6 C94.4,5.6 94.1,5.7 94,5.8 C93.8,6 93.7,6.2 93.7,6.5 C93.7,6.7 93.8,6.9 93.9,7.1 L94.4,7.6 L94.9,8 C95.3,8.4 95.6,8.7 95.6,9 C95.6,9.2 95.5,9.4 95.4,9.5 C95.3,9.6 95.1,9.7 94.9,9.7 C94.4,9.7 94.1,9.4 94,8.7 L93.7,8.8 C93.7,9.2 93.9,9.5 94.1,9.7 C94.3,9.9 94.6,10 94.9,10 C95.2,10 95.5,9.9 95.7,9.7 C95.9,9.5 96,9.3 96,9 C96,8.8 96,8.7 95.9,8.6 C95.6,8.6 95.5,8.5 95.5,8.4 L95.5,8.4 Z M98.1,6.1 C98,6 97.9,5.8 97.8,5.8 C97.7,5.7 97.5,5.7 97.3,5.7 C96.9,5.7 96.6,5.8 96.4,6.1 C96.2,6.4 96.2,6.8 96.2,7.4 L96.2,8.6 C96.2,9.2 96.3,9.6 96.4,9.9 C96.6,10.2 96.9,10.3 97.3,10.3 C97.7,10.3 98,10.2 98.2,9.9 C98.4,9.6 98.4,9.2 98.4,8.6 L98.4,7.4 C98.4,7.1 98.4,6.9 98.3,6.7 C98.2,6.4 98.2,6.2 98.1,6.1 L98.1,6.1 Z M97.9,8.5 L97.9,9.2 C97.9,9.3 97.9,9.4 97.8,9.5 L97.7,9.7 C97.6,9.8 97.6,9.8 97.5,9.8 L96.9,9.8 L96.7,9.7 C96.6,9.6 96.6,9.6 96.6,9.5 L96.5,9.2 L96.5,6.4 L96.6,6.1 L96.8,5.9 L97.1,5.8 C97.2,5.8 97.3,5.8 97.4,5.9 C97.5,5.9 97.6,6 97.6,6.1 L97.7,6.4 C97.7,6.5 97.7,6.6 97.8,6.8 L97.8,8.5 L97.9,8.5 Z M108,6.1 C107.9,6 107.8,5.8 107.7,5.8 C107.6,5.7 107.4,5.7 107.2,5.7 C106.8,5.7 106.5,5.8 106.3,6.1 C106.1,6.4 106.1,6.8 106.1,7.4 L106.1,8.6 C106.1,9.2 106.2,9.6 106.3,9.9 C106.5,10.2 106.8,10.3 107.2,10.3 C107.6,10.3 107.9,10.2 108.1,9.9 C108.3,9.6 108.3,9.2 108.3,8.6 L108.3,7.4 C108.3,7.1 108.3,6.9 108.2,6.7 C108.1,6.4 108.1,6.2 108,6.1 L108,6.1 Z M107.8,8.5 L107.8,9.2 C107.8,9.3 107.8,9.4 107.7,9.5 L107.6,9.7 C107.5,9.8 107.5,9.8 107.4,9.8 L106.8,9.8 L106.6,9.7 C106.5,9.6 106.5,9.6 106.5,9.5 L106.4,9.2 L106.4,6.4 L106.5,6.1 L106.7,5.9 L107,5.8 C107,5.8 107.2,5.8 107.3,5.9 C107.4,5.9 107.5,6 107.5,6.1 L107.6,6.4 C107.6,6.5 107.6,6.6 107.7,6.8 L107.7,8.5 L107.8,8.5 Z M99,3.9 L99.4,3.9 L99.4,10.1 L99,10.1 L99,3.9 Z M101.9,9.3 C101.8,9.5 101.6,9.6 101.4,9.7 C101.2,9.8 101.1,9.8 100.9,9.8 C100.7,9.8 100.6,9.8 100.6,9.7 C100.5,9.6 100.5,9.4 100.5,9.2 L100.5,5.7 L100.1,5.7 L100.1,9.3 C100.1,9.6 100.2,9.9 100.3,10 C100.4,10.2 100.6,10.2 100.8,10.2 C101,10.2 101.2,10.1 101.4,10 C101.6,9.9 101.8,9.8 101.9,9.6 L101.9,10.2 L102.3,10.2 L102.3,5.7 L101.9,5.7 L101.9,9.3 L101.9,9.3 Z M103.7,4.4 L103.3,4.4 L103.3,5.6 L102.7,5.6 L102.7,6 L103.3,6 L103.3,9.5 C103.3,9.6 103.3,9.7 103.4,9.7 C103.4,9.8 103.5,9.9 103.5,9.9 C103.6,10 103.6,10 103.7,10 L104,10 C104.2,10 104.3,10 104.4,9.9 L104.4,9.6 L104.1,9.6 C103.9,9.6 103.9,9.6 103.8,9.5 C103.7,9.4 103.7,9.2 103.7,9 L103.7,5.9 L104.4,5.9 L104.4,5.5 L103.6,5.5 L103.6,4.4 L103.7,4.4 Z M104.9,5.6 L105.3,5.6 L105.3,10.1 L104.9,10.1 L104.9,5.6 Z M104.9,4.4 L105.3,4.4 L105.3,5.1 L104.9,5.1 L104.9,4.4 Z M113.7,8.7 C113.7,8.6 113.6,8.5 113.5,8.3 C113.4,8.2 113.3,8.1 113.3,8 L113,7.7 L112.5,7.2 L112.1,6.8 C112,6.7 112,6.5 112,6.4 C112,6.2 112.1,6.1 112.2,6 C112.3,5.9 112.5,5.8 112.7,5.8 C113.1,5.8 113.4,6.1 113.4,6.7 L113.7,6.6 C113.7,6.2 113.6,6 113.4,5.8 C113.2,5.6 113,5.5 112.7,5.5 C112.4,5.5 112.1,5.6 112,5.7 C111.8,5.9 111.7,6.1 111.7,6.4 C111.7,6.6 111.8,6.8 111.9,7 C112,7.2 112.2,7.3 112.4,7.5 L112.9,7.9 C113.3,8.3 113.6,8.6 113.6,8.9 C113.6,9.1 113.5,9.3 113.4,9.4 C113.3,9.5 113.1,9.6 112.9,9.6 C112.4,9.6 112.1,9.3 112,8.6 L111.7,8.7 C111.7,9.1 111.9,9.4 112.1,9.6 C112.3,9.8 112.6,9.9 112.9,9.9 C113.2,9.9 113.5,9.8 113.7,9.6 C113.9,9.4 114,9.2 114,8.9 C113.8,9 113.7,8.9 113.7,8.7 L113.7,8.7 Z M110.3,5.6 C109.9,5.6 109.6,5.8 109.3,6.1 L109.3,5.6 L108.9,5.6 L108.9,10.1 L109.3,10.1 L109.3,6.4 L109.7,6 C109.9,5.9 110,5.9 110.1,5.9 C110.3,5.9 110.4,6 110.4,6.1 C110.5,6.2 110.5,6.4 110.5,6.6 L110.5,10.1 L110.9,10.1 L110.9,6.6 C110.9,6.3 110.8,6 110.7,5.9 C110.6,5.7 110.5,5.6 110.3,5.6 L110.3,5.6 Z M83.6,5.6 L83.6,10.2 L84,10.2 L84,5.6 L83.6,5.6 Z M91.3,3.9 L91.3,6 C91.1,5.7 90.8,5.6 90.5,5.6 C90.1,5.6 89.8,5.7 89.7,6 C89.6,6.3 89.5,6.8 89.5,7.4 L89.5,8.2 C89.5,8.9 89.6,9.4 89.7,9.6 C89.9,9.9 90.1,10 90.5,10 C90.8,10 91.1,9.9 91.3,9.6 L91.3,10 L91.7,10 L91.7,3.8 L91.3,3.8 L91.3,3.9 L91.3,3.9 Z M90.5,9.9 C90.2,9.9 90,9.8 89.9,9.6 C89.8,9.4 89.8,9 89.8,8.4 L89.8,7.5 C89.8,7 89.8,6.6 89.9,6.4 C90,6.2 90.2,6.1 90.4,6.1 C90.6,6.1 90.9,6.2 91.1,6.5 L91.1,9.7 C91,9.7 90.8,9.9 90.5,9.9 L90.5,9.9 Z" id="Shape"></path>
            </g>
        </g>
    </g>
</svg>