<?xml version="1.0" encoding="UTF-8"?>
<svg width="115px" height="63px" viewBox="0 0 115 63" version="1.1" xmlns="http://www.w3.org/2000/svg" xmlns:xlink="http://www.w3.org/1999/xlink">
    <!-- Generator: Sketch 43.2 (39069) - http://www.bohemiancoding.com/sketch -->
    <title>Yuxi Logo Color</title>
    <desc>Created with Sketch.</desc>
    <defs>
        <linearGradient x1="-0.185628743%" y1="50.1903114%" x2="100.023952%" y2="50.1903114%" id="linearGradient-1">
            <stop stop-color="#6398AE" offset="0%"></stop>
            <stop stop-color="#5C91A8" offset="18.3%"></stop>
            <stop stop-color="#497E99" offset="45%"></stop>
            <stop stop-color="#295E80" offset="76.6%"></stop>
            <stop stop-color="#0D426A" offset="100%"></stop>
        </linearGradient>
        <linearGradient x1="0.0479041916%" y1="50.1903114%" x2="100.257485%" y2="50.1903114%" id="linearGradient-2">
            <stop stop-color="#0D426A" offset="0%"></stop>
            <stop stop-color="#295E80" offset="23.4%"></stop>
            <stop stop-color="#497E99" offset="55%"></stop>
            <stop stop-color="#5C91A8" offset="81.7%"></stop>
            <stop stop-color="#6398AE" offset="100%"></stop>
        </linearGradient>
    </defs>
    <g id="Page-1" stroke="none" stroke-width="1" fill="none" fill-rule="evenodd">
        <g id="Yuxi-Logo-Color" fill-rule="nonzero">
            <g id="YUXI_LOGO_COLOR">
                <path d="M24.2,1.6 C21.3,3 1,14.8 1,14.8 C1,14.8 6.2,17.9 7.1,18.3 C7.8,18.7 8.7,18.9 10.5,17.9 C12.3,16.8 23.1,11 24.2,10.4 C25.3,9.8 28,9.1 30.4,10.4 C33.6,12.1 44,18 44,18 C44,18 46,19.2 48.2,18.1 L53.6,14.9 C53.6,14.9 31.7,2.2 30.4,1.6 C29.4,1.2 28.4,1 27.3,1 C26.2,0.9 25.2,1.2 24.2,1.6 M0.2,43.2 C0.4,45.3 1.5,47.3 3.3,48.6 C5.9,50.5 26.4,62.1 26.4,62.1 L26.4,55.1 C26.4,54.3 26.2,53.4 24.3,52.4 C22.5,51.3 12,45.1 10.8,44.4 C9.7,43.7 7.9,41.6 7.8,38.9 C7.7,35.3 7.7,23.3 7.7,23.3 C7.7,21.6 7.2,20.8 6.1,20.1 L0.1,16.5 C0.1,16.5 0.1,41.7 0.2,43.2" id="Shape" fill="#54284E"></path>
                <path d="M48.5,20 C47.5,20.6 46.9,21.5 46.9,23.2 C46.9,23.2 47,35.1 46.8,38.8 C46.7,41.6 44.9,43.7 43.8,44.3 C42.7,45 32.2,51.2 30.3,52.3 C28.4,53.4 28.2,54.2 28.2,55 L28.2,62 C28.2,62 48.6,50.4 51.3,48.5 C53.1,47.3 54.2,45.2 54.4,43.1 C54.6,41.6 54.5,16.4 54.5,16.4 L48.5,20 L48.5,20 Z" id="Shape" fill="#54284E"></path>
                <path d="M9.7,22.3 C9.7,22.3 21.7,29 23.5,30.1 C25.3,31.2 26.4,31.6 26.4,35.1 L26.4,51.2 C26.4,51.2 21.1,48.1 20.6,47.8 C19.9,47.4 19.3,46.5 19.2,45.1 C19.2,44.3 19.3,36.5 19,35.4 C18.6,34.3 16.9,33 16.4,32.7 C13.8,31.1 11.3,29.7 10.6,29.3 C10,28.9 9.7,28.6 9.7,27.7 L9.7,22.3 L9.7,22.3 Z" id="Shape" fill="url(#linearGradient-1)"></path>
                <path d="M44.9,22.3 C44.9,22.3 32.9,29 31.1,30.1 C29.3,31.2 28.2,31.6 28.2,35.1 L28.2,51.2 C28.2,51.2 33.5,48.1 34,47.8 C34.7,47.4 35.3,46.5 35.4,45.1 C35.4,44.3 35.3,36.5 35.6,35.4 C36,34.3 37.7,33 38.2,32.7 C40.8,31.1 43.3,29.7 44,29.3 C44.6,28.9 44.9,28.6 44.9,27.7 L44.9,22.3 L44.9,22.3 Z" id="Shape" fill="url(#linearGradient-2)"></path>
                <path d="M66.3,58.1 C65.6,58.1 65,58 64.4,57.8 C63.9,57.6 63.5,57.2 63.2,56.8 C62.9,56.4 62.7,55.9 62.6,55.3 C62.5,54.7 62.4,54.1 62.4,53.3 L62.4,48.6 C62.4,48 62.4,47.4 62.5,46.9 C62.6,46.4 62.7,46 62.9,45.5 C63.1,45.1 63.4,44.7 63.7,44.5 C64,44.2 64.4,44 64.9,43.9 C65.4,43.8 66,43.7 66.6,43.7 C67.2,43.7 67.8,43.8 68.2,43.9 C68.7,44 69.1,44.2 69.4,44.4 C69.7,44.6 70,44.9 70.2,45.3 C70.4,45.6 70.5,46 70.6,46.4 C70.7,46.8 70.7,47.3 70.7,47.8 L70.7,48.7 L67.6,48.7 L67.6,47.1 C67.6,47 67.6,46.8 67.5,46.7 C67.5,46.5 67.4,46.4 67.3,46.3 C67.2,46.2 67.1,46.1 67,46.1 C66.9,46 66.7,46 66.5,46 C66.3,46 66.1,46 66,46.1 L65.7,46.4 C65.6,46.5 65.6,46.6 65.5,46.8 L65.4,47.3 L65.4,54.2 C65.4,54.8 65.5,55.2 65.7,55.5 C65.9,55.8 66.2,56 66.6,56 C67.4,56 67.8,55.4 67.8,54.1 L67.8,52.5 L66.5,52.5 L66.5,50.6 L70.6,50.6 L70.6,58.1 L68.6,58.1 L68.4,56.7 C68.1,57.7 67.4,58.1 66.3,58.1 L66.3,58.1 Z M72.1,58.1 L72.1,43.7 L75.2,43.7 L75.2,56 L78.5,56 L78.5,58.1 L72.1,58.1 L72.1,58.1 Z M83.3,58.1 C82.5,58.1 81.8,58 81.3,57.8 C80.7,57.6 80.3,57.3 80,56.9 C79.7,56.5 79.4,56 79.3,55.5 C79.2,54.9 79.1,54.3 79.1,53.5 L79.1,48.3 C79.1,47.5 79.2,46.9 79.3,46.3 C79.4,45.7 79.7,45.3 80,44.9 C80.3,44.5 80.8,44.2 81.3,44 C81.9,43.8 82.5,43.7 83.3,43.7 C84.8,43.7 85.9,44.1 86.6,44.9 C87.3,45.7 87.6,46.8 87.6,48.4 L87.6,53.6 C87.6,55.1 87.3,56.3 86.6,57.1 C86,57.7 84.9,58.1 83.3,58.1 L83.3,58.1 Z M82.8,55.8 C82.9,55.9 83.1,55.9 83.3,55.9 C83.5,55.9 83.7,55.9 83.8,55.8 L84.1,55.6 C84.2,55.5 84.2,55.4 84.3,55.2 C84.3,55 84.4,54.9 84.4,54.8 L84.4,47.1 C84.4,47 84.4,46.8 84.3,46.7 C84.3,46.5 84.2,46.4 84.1,46.3 C84,46.2 83.9,46.1 83.8,46.1 C83.7,46 83.5,46 83.3,46 C83.1,46 82.9,46 82.8,46.1 L82.5,46.3 C82.4,46.4 82.4,46.5 82.3,46.7 C82.3,46.9 82.2,47 82.2,47.1 L82.2,54.8 C82.2,54.9 82.2,55.1 82.3,55.2 C82.3,55.4 82.4,55.5 82.5,55.6 C82.6,55.7 82.7,55.8 82.8,55.8 Z M88.8,58.1 L88.8,43.7 L92.5,43.7 C93,43.7 93.5,43.7 93.9,43.8 L95.1,44.1 C95.5,44.3 95.8,44.5 96.1,44.7 C96.4,44.9 96.6,45.3 96.7,45.8 C96.8,46.2 96.9,46.7 96.9,47.3 L96.9,47.4 C96.9,49.1 96.2,50.1 94.8,50.3 C95.6,50.4 96.2,50.8 96.7,51.3 C97.1,51.9 97.3,52.7 97.4,53.7 L97.4,53.8 C97.4,55.2 97,56.3 96.3,56.9 C95.6,57.6 94.5,57.9 93.1,57.9 L88.8,57.9 L88.8,58.1 Z M92,49.5 L92.6,49.5 C93.3,49.5 93.7,49.3 94,49 C94.2,48.7 94.4,48.2 94.4,47.5 C94.4,46.4 93.8,45.8 92.6,45.8 L92,45.8 L92,49.5 Z M92,55.9 L92.7,55.9 C93.4,55.9 93.9,55.7 94.1,55.4 C94.4,55.1 94.5,54.5 94.5,53.8 C94.5,53 94.4,52.4 94.1,52.1 C93.8,51.8 93.3,51.6 92.6,51.6 L92,51.6 L92,55.9 Z M97.7,58.1 L100.4,43.7 L104,43.7 L106.7,58.1 L103.8,58.1 L103.3,55 L101.2,55 L100.7,58.1 L97.7,58.1 L97.7,58.1 Z M101.4,53.2 L102.9,53.2 L102.1,47.6 L101.4,53.2 Z M107.5,58.1 L107.5,43.7 L110.6,43.7 L110.6,56 L113.9,56 L113.9,58.1 L107.5,58.1 L107.5,58.1 Z" id="Shape" fill="#6199AF"></path>
                <path d="M62.7,40.6 L62.7,29.8 L57.7,14.2 L63.2,14.2 L65.7,22.5 L68,14.2 L73.3,14.2 L68.3,29.8 L68.3,40.6 L62.7,40.6 L62.7,40.6 Z M82.3,40.5 C81.1,40.5 80.1,40.4 79.2,40.1 C78.3,39.9 77.6,39.5 77,39.1 C76.4,38.7 75.9,38.1 75.6,37.4 C75.3,36.7 75,35.9 74.8,35 C74.7,34.1 74.6,33.1 74.6,32 L74.6,14.2 L80.4,14.2 L80.4,33.8 C80.4,34.1 80.5,34.4 80.6,34.7 C80.7,35 80.8,35.3 80.9,35.5 C81,35.7 81.2,35.9 81.5,36 C81.8,36.1 82.1,36.2 82.4,36.2 C82.8,36.2 83.1,36.1 83.3,36 C83.6,35.9 83.8,35.7 83.9,35.5 C84,35.3 84.1,35 84.2,34.7 L84.4,33.8 L84.4,14.2 L90.2,14.2 L90.2,32 C90.2,33.4 90.1,34.7 89.8,35.7 C89.6,36.7 89.1,37.6 88.6,38.3 C88,39.1 87.2,39.6 86.2,40 C85.1,40.3 83.8,40.5 82.3,40.5 L82.3,40.5 Z M91.2,40.6 L96.3,26.4 L91.4,14.3 L96.9,14.3 L99.8,21.4 L102.1,14.3 L107,14.3 L102.4,28 L107.5,40.7 L102,40.7 L98.8,32.8 L96,40.7 L91.2,40.7 L91.2,40.6 Z M108.3,40.6 L108.3,14.2 L113.9,14.2 L113.9,40.5 L108.3,40.5 L108.3,40.6 Z" id="Shape" fill="#54284E"></path>
                <path d="M74.1,4.9 L74.5,4.9 L74.5,11.1 L74.1,11.1 L74.1,4.9 Z M76.8,6.6 C76.4,6.6 76.1,6.8 75.7,7.1 L75.7,6.6 L75.3,6.6 L75.3,11.1 L75.7,11.1 L75.7,7.4 L76.1,7 C76.3,6.9 76.4,6.9 76.5,6.9 C76.7,6.9 76.8,7 76.8,7.1 C76.9,7.2 76.9,7.4 76.9,7.6 L76.9,11.1 L77.3,11.1 L77.3,7.5 C77.3,7.2 77.2,6.9 77.1,6.8 C77.2,6.7 77,6.6 76.8,6.6 L76.8,6.6 Z M80,9.3 C79.9,9.2 79.8,9.1 79.8,9 L79.5,8.7 L79,8.2 L78.6,7.8 C78.5,7.7 78.5,7.5 78.5,7.4 C78.5,7.2 78.6,7.1 78.7,7 C78.8,6.9 79,6.8 79.2,6.8 C79.6,6.8 79.9,7.1 79.9,7.7 L80.2,7.6 C80.2,7.2 80.1,7 79.9,6.8 C79.7,6.6 79.5,6.5 79.2,6.5 C78.9,6.5 78.6,6.6 78.5,6.8 C78.3,7 78.2,7.2 78.2,7.5 C78.2,7.7 78.3,7.9 78.4,8.1 L78.9,8.6 L79.4,9 C79.8,9.4 80.1,9.7 80.1,10 C80.1,10.2 80,10.4 79.9,10.5 C79.8,10.6 79.6,10.7 79.4,10.7 C78.9,10.7 78.6,10.4 78.5,9.7 L78.2,9.8 C78.2,10.2 78.4,10.5 78.6,10.7 C78.8,10.9 79.1,11 79.4,11 C79.7,11 80,10.9 80.2,10.7 C80.4,10.5 80.5,10.3 80.5,10 C80.5,9.8 80.5,9.7 80.4,9.6 C80.1,9.6 80.1,9.4 80,9.3 L80,9.3 Z M82.8,7.1 C82.7,6.9 82.6,6.8 82.5,6.7 C82.4,6.6 82.2,6.6 82,6.6 C81.7,6.6 81.4,6.7 81.2,7 L81.2,6.6 L80.8,6.6 L80.8,12.4 L81.2,12.4 L81.2,10.6 C81.4,10.9 81.7,11 82,11 C82.4,11 82.7,10.8 82.8,10.5 C83,10.2 83,9.7 83,9.1 L83,7.5 C82.9,7.4 82.9,7.3 82.8,7.1 Z M82.6,9.3 C82.6,9.9 82.6,10.3 82.5,10.5 C82.4,10.7 82.2,10.9 82,10.9 C81.7,10.9 81.5,10.8 81.2,10.5 L81.2,7.4 C81.4,7.1 81.7,7 82,7 C82.3,7 82.5,7.1 82.5,7.3 C82.6,7.5 82.6,7.9 82.6,8.5 L82.6,9.3 Z M83.7,5.4 L84.1,5.4 L84.1,6.1 L83.7,6.1 L83.7,5.4 Z M86.4,6.6 C86.2,6.6 86,6.7 85.8,6.8 C85.6,6.9 85.5,7.1 85.3,7.3 L85.3,6.7 L84.9,6.7 L84.9,11.2 L85.3,11.2 L85.3,7.6 C85.5,7.2 85.8,7 86.3,7 L86.5,7 L86.4,6.6 Z M89,8.3 C89,7.7 88.9,7.2 88.8,6.9 C88.6,6.6 88.4,6.5 87.9,6.5 L87.5,6.5 C87.4,6.5 87.3,6.6 87.2,6.7 C87.1,6.8 87,6.9 87,7 C86.9,7.1 86.9,7.3 86.9,7.5 C86.9,7.7 86.8,7.9 86.8,8.2 L86.8,9.4 C86.8,9.7 86.8,9.9 86.9,10.1 C86.9,10.3 87,10.5 87,10.6 L87.2,10.9 L87.5,11.1 L87.9,11.1 C88.3,11.1 88.6,11 88.7,10.8 C88.9,10.6 89,10.3 89,9.9 L89,9.6 L88.6,9.6 L88.6,10.3 L88.5,10.6 C88.5,10.7 88.4,10.7 88.3,10.7 L88.1,10.8 L87.9,10.8 C87.6,10.8 87.5,10.7 87.3,10.5 C87.2,10.3 87.1,9.9 87.1,9.4 L87.1,8.7 L88.9,8.7 L89,8.3 L89,8.3 Z M88.6,8.5 L87.2,8.5 L87.2,8.2 C87.2,7.9 87.2,7.6 87.3,7.4 C87.4,7.2 87.4,7.1 87.5,7 C87.6,6.9 87.7,6.9 87.9,6.9 C88,6.9 88.1,6.9 88.2,7 C88.3,7 88.4,7.1 88.4,7.2 L88.5,7.5 C88.5,7.6 88.5,7.7 88.6,7.8 L88.6,8.5 L88.6,8.5 Z M95.6,9.3 C95.5,9.2 95.4,9.1 95.4,9 L95.1,8.7 L94.6,8.2 L94.2,7.8 C94.1,7.7 94.1,7.5 94.1,7.4 C94.1,7.2 94.2,7.1 94.3,7 C94.4,6.9 94.6,6.8 94.8,6.8 C95.2,6.8 95.5,7.1 95.5,7.7 L95.8,7.6 C95.8,7.2 95.7,7 95.5,6.8 C95.3,6.6 95.1,6.5 94.8,6.5 C94.5,6.5 94.2,6.6 94.1,6.8 C93.9,7 93.8,7.2 93.8,7.5 C93.8,7.7 93.9,7.9 94,8.1 C94.1,8.3 94.3,8.4 94.5,8.6 L95,9 C95.4,9.4 95.7,9.7 95.7,10 C95.7,10.2 95.6,10.4 95.5,10.5 C95.4,10.6 95.2,10.7 95,10.7 C94.5,10.7 94.2,10.4 94.1,9.7 L93.8,9.8 C93.8,10.2 94,10.5 94.2,10.7 C94.4,10.9 94.7,11 95,11 C95.3,11 95.6,10.9 95.8,10.7 C96,10.5 96.1,10.3 96.1,10 C96.1,9.8 96.1,9.7 96,9.6 C95.7,9.6 95.6,9.4 95.6,9.3 L95.6,9.3 Z M98.2,7 C98.1,6.9 98,6.7 97.9,6.7 C97.8,6.6 97.6,6.6 97.4,6.6 C97,6.6 96.7,6.7 96.5,7 C96.3,7.3 96.3,7.7 96.3,8.3 L96.3,9.5 C96.3,10.1 96.4,10.5 96.5,10.8 C96.7,11.1 97,11.2 97.4,11.2 C97.8,11.2 98.1,11.1 98.3,10.8 C98.5,10.5 98.5,10.1 98.5,9.5 L98.5,8.3 C98.5,8 98.5,7.8 98.4,7.6 C98.3,7.3 98.3,7.2 98.2,7 L98.2,7 Z M98,9.5 L98,10.2 C98,10.3 98,10.4 97.9,10.5 L97.8,10.7 C97.7,10.8 97.7,10.8 97.6,10.8 L97,10.8 L96.8,10.7 C96.7,10.6 96.7,10.6 96.7,10.5 L96.6,10.2 L96.6,7.4 L96.7,7.1 L96.9,6.9 L97.2,6.8 C97.2,6.8 97.4,6.8 97.5,6.9 C97.6,6.9 97.7,7 97.7,7.1 L97.8,7.4 C97.8,7.5 97.8,7.6 97.9,7.8 L97.9,9.5 L98,9.5 Z M108.1,7 C108,6.9 107.9,6.7 107.8,6.7 C107.7,6.6 107.5,6.6 107.3,6.6 C106.9,6.6 106.6,6.7 106.4,7 C106.2,7.3 106.2,7.7 106.2,8.3 L106.2,9.5 C106.2,10.1 106.3,10.5 106.4,10.8 C106.6,11.1 106.9,11.2 107.3,11.2 C107.7,11.2 108,11.1 108.2,10.8 C108.4,10.5 108.4,10.1 108.4,9.5 L108.4,8.3 C108.4,8 108.4,7.8 108.3,7.6 C108.2,7.3 108.2,7.2 108.1,7 L108.1,7 Z M107.9,9.5 L107.9,10.2 C107.9,10.3 107.9,10.4 107.8,10.5 L107.7,10.7 C107.6,10.8 107.6,10.8 107.5,10.8 L106.9,10.8 L106.7,10.7 C106.6,10.6 106.6,10.6 106.6,10.5 L106.5,10.2 L106.5,7.4 L106.6,7.1 L106.8,6.9 L107.1,6.8 C107.1,6.8 107.3,6.8 107.4,6.9 C107.5,6.9 107.6,7 107.6,7.1 L107.7,7.4 C107.7,7.5 107.7,7.6 107.8,7.8 L107.8,9.5 L107.9,9.5 Z M99.1,4.9 L99.5,4.9 L99.5,11.1 L99.1,11.1 L99.1,4.9 Z M102,10.3 C101.9,10.5 101.7,10.6 101.5,10.7 C101.3,10.8 101.2,10.8 101,10.8 C100.8,10.8 100.7,10.8 100.7,10.7 C100.6,10.6 100.6,10.4 100.6,10.2 L100.6,6.7 L100.2,6.7 L100.2,10.3 C100.2,10.6 100.3,10.9 100.4,11 C100.5,11.2 100.7,11.2 100.9,11.2 C101.1,11.2 101.3,11.1 101.5,11 C101.7,10.9 101.9,10.8 102,10.6 L102,11.2 L102.4,11.2 L102.4,6.7 L102,6.7 L102,10.3 L102,10.3 Z M103.8,5.4 L103.4,5.4 L103.4,6.6 L102.8,6.6 L102.8,7 L103.4,7 L103.4,10.5 C103.4,10.6 103.4,10.7 103.5,10.8 C103.5,10.9 103.6,11 103.6,11 C103.7,11.1 103.7,11.1 103.8,11.1 L104.1,11.1 C104.3,11.1 104.4,11.1 104.5,11 L104.5,10.7 L104.2,10.7 C104,10.7 104,10.7 103.9,10.6 C103.8,10.5 103.8,10.3 103.8,10.1 L103.8,7 L104.5,7 L104.5,6.6 L103.7,6.6 L103.7,5.4 L103.8,5.4 Z M105,6.6 L105.4,6.6 L105.4,11.1 L105,11.1 L105,6.6 Z M105,5.4 L105.4,5.4 L105.4,6.1 L105,6.1 L105,5.4 Z M113.8,9.7 C113.8,9.6 113.7,9.5 113.6,9.3 C113.5,9.2 113.4,9.1 113.4,9 L113.1,8.7 L112.6,8.2 L112.2,7.8 C112.1,7.7 112.1,7.5 112.1,7.4 C112.1,7.2 112.2,7.1 112.3,7 C112.4,6.9 112.6,6.8 112.8,6.8 C113.2,6.8 113.5,7.1 113.5,7.7 L113.8,7.6 C113.8,7.2 113.7,7 113.5,6.8 C113.3,6.6 113.1,6.5 112.8,6.5 C112.5,6.5 112.2,6.6 112.1,6.8 C111.9,7 111.8,7.2 111.8,7.5 C111.8,7.7 111.9,7.9 112,8.1 C112.1,8.3 112.3,8.4 112.5,8.6 L113,9 C113.4,9.4 113.7,9.7 113.7,10 C113.7,10.2 113.6,10.4 113.5,10.5 C113.4,10.6 113.2,10.7 113,10.7 C112.5,10.7 112.2,10.4 112.1,9.7 L111.8,9.8 C111.8,10.2 112,10.5 112.2,10.7 C112.4,10.9 112.7,11 113,11 C113.3,11 113.6,10.9 113.8,10.7 C114,10.5 114.1,10.3 114.1,10 C113.9,10 113.9,9.8 113.8,9.7 L113.8,9.7 Z M110.4,6.6 C110,6.6 109.7,6.8 109.3,7.1 L109.3,6.6 L108.9,6.6 L108.9,11.1 L109.3,11.1 L109.3,7.4 L109.7,7 C109.9,6.9 110,6.9 110.1,6.9 C110.3,6.9 110.4,7 110.4,7.1 C110.5,7.2 110.5,7.4 110.5,7.6 L110.5,11.1 L110.9,11.1 L110.9,7.5 C110.9,7.2 110.8,6.9 110.7,6.8 C110.8,6.7 110.6,6.6 110.4,6.6 L110.4,6.6 Z M83.7,6.6 L83.7,11.1 L84.1,11.1 L84.1,6.6 L83.7,6.6 Z M91.3,4.9 L91.3,7 C91.1,6.7 90.8,6.6 90.5,6.6 C90.1,6.6 89.8,6.7 89.7,7 C89.6,7.3 89.5,7.8 89.5,8.4 L89.5,9.2 C89.5,9.9 89.6,10.4 89.7,10.6 C89.9,10.9 90.1,11 90.5,11 C90.8,11 91.1,10.9 91.3,10.6 L91.3,11 L91.7,11 L91.7,4.8 L91.3,4.8 L91.3,4.9 L91.3,4.9 Z M90.6,10.8 C90.3,10.8 90.1,10.7 90,10.5 C89.9,10.3 89.9,9.9 89.9,9.3 L89.9,8.4 C89.9,7.9 89.9,7.5 90,7.3 C90.1,7.1 90.3,7 90.5,7 C90.7,7 91,7.1 91.2,7.4 L91.2,10.6 C91.1,10.7 90.9,10.8 90.6,10.8 L90.6,10.8 Z" id="Shape" fill="#6199AF"></path>
            </g>
        </g>
    </g>
</svg>