<?xml version="1.0" encoding="utf-8"?>
<!-- Generator: Adobe Illustrator 16.0.0, SVG Export Plug-In . SVG Version: 6.00 Build 0)  -->
<!DOCTYPE svg PUBLIC "-//W3C//DTD SVG 1.1//EN" "http://www.w3.org/Graphics/SVG/1.1/DTD/svg11.dtd">
<svg version="1.1" xmlns="http://www.w3.org/2000/svg" xmlns:xlink="http://www.w3.org/1999/xlink" x="0px" y="0px"
	 width="599.688px" height="876.084px" viewBox="0 0 599.688 876.084" enable-background="new 0 0 599.688 876.084"
	 xml:space="preserve">
<g id="Flayer_Carta">
	<g id="Layer_2">
		<g id="Layer_16" display="none" opacity="0.08">
		</g>
	</g>
	<g id="Sponsors">
		<g id="Apoya">
			<g id="Layer_43">
			</g>
			<g id="Layer_44">
			</g>
		</g>
		<g id="Patrocina">
			<g id="Layer_42">
			</g>
		</g>
		<g id="Layer_45">
			<g id="Organiza">
				<g id="Per">
				</g>
			</g>
		</g>
	</g>
	<g id="Inscripción">
		<g id="PD">
		</g>
	</g>
	<g id="Speaker_copy">
		<g id="Layer_34">
			<g id="Layer_7_copy">
				<g id="Layer_33">
				</g>
			</g>
			<g id="Layer_9_copy">
				<g id="Layer_10_copy">
				</g>
			</g>
		</g>
	</g>
	<g id="Info">
		<g id="Layer_32">
		</g>
		<g id="Workshops">
			<g id="_x23_2">
			</g>
			<g id="_x23_1">
			</g>
		</g>
		<g id="Meetup">
			<g id="item_copy_1_">
			</g>
			<g id="item_copy">
			</g>
		</g>
	</g>
	<g id="Logo_1_">
	</g>
	<g id="Guides">
	</g>
</g>
<g id="Layer_50">
</g>
<g id="Layer_50_copy">
	<g>
		<defs>
			<rect id="SVGID_7_" width="599.688" height="874.981"/>
		</defs>
		<clipPath id="SVGID_2_">
			<use xlink:href="#SVGID_7_"  overflow="visible"/>
		</clipPath>
		<polygon clip-path="url(#SVGID_2_)" fill="#2B6C90" points="195.854,191.418 114.421,233.829 114.421,508.747 195.854,551.385 		
			"/>
		<polygon clip-path="url(#SVGID_2_)" fill="#2B6C90" points="195.854,191.418 274.298,232.271 274.298,510.321 195.854,551.385 		
			"/>
		<polygon clip-path="url(#SVGID_2_)" fill="#FFFFFF" points="126.102,236.1 121.472,238.369 121.472,230.159 126.102,227.748 		"/>
		<polygon clip-path="url(#SVGID_2_)" fill="#FFFFFF" points="141.938,228.334 136.76,230.869 136.76,222.196 141.938,219.5 		"/>
		<polygon clip-path="url(#SVGID_2_)" fill="#FFFFFF" points="159.709,219.618 153.89,222.472 153.89,213.273 159.709,210.242 		"/>
		<polygon clip-path="url(#SVGID_2_)" fill="#FFFFFF" points="169.437,214.848 163.248,217.885 163.248,208.4 169.437,205.174 		"/>
		<polygon clip-path="url(#SVGID_2_)" fill="#FFFFFF" points="118.813,252.598 114.424,254.544 114.424,246.54 118.813,244.467 		
			"/>
		<polygon clip-path="url(#SVGID_2_)" fill="#FFFFFF" points="126.102,249.371 121.472,251.425 121.472,243.213 126.102,241.022 		
			"/>
		<polygon clip-path="url(#SVGID_2_)" fill="#FFFFFF" points="141.938,242.374 136.76,244.66 136.76,235.986 141.938,233.539 		"/>
		<polygon clip-path="url(#SVGID_2_)" fill="#FFFFFF" points="159.709,234.518 153.89,237.086 153.89,227.889 159.709,225.143 		"/>
		<polygon clip-path="url(#SVGID_2_)" fill="#FFFFFF" points="169.437,230.21 163.248,232.949 163.248,223.468 169.437,220.542 		
			"/>
		<polygon clip-path="url(#SVGID_2_)" fill="#40A5DC" points="179.799,225.636 173.198,228.552 173.198,218.768 179.799,215.648 		
			"/>
		<polygon clip-path="url(#SVGID_2_)" fill="#FFFFFF" points="190.853,220.745 183.809,223.855 183.809,213.754 190.853,210.424 		
			"/>
		<polygon clip-path="url(#SVGID_2_)" fill="#FFFFFF" points="118.813,265.521 114.424,267.253 114.424,259.253 118.813,257.39 		
			"/>
		<polygon clip-path="url(#SVGID_2_)" fill="#FFFFFF" points="126.102,262.649 121.472,264.474 121.472,256.263 126.102,254.295 		
			"/>
		<polygon clip-path="url(#SVGID_2_)" fill="#FFFFFF" points="133.797,259.616 128.906,261.541 128.906,253.106 133.797,251.029 		
			"/>
		<polygon clip-path="url(#SVGID_2_)" fill="#40A5DC" points="141.938,256.409 136.76,258.449 136.76,249.775 141.938,247.577 		"/>
		<polygon clip-path="url(#SVGID_2_)" fill="#FFFFFF" points="150.563,253.018 145.072,255.177 145.072,246.246 150.563,243.919 		
			"/>
		<polygon clip-path="url(#SVGID_2_)" fill="#FFFFFF" points="159.709,249.41 153.89,251.704 153.89,242.508 159.709,240.039 		"/>
		<polygon clip-path="url(#SVGID_2_)" fill="#FFFFFF" points="179.799,241.502 173.198,244.095 173.198,234.315 179.799,231.514 		
			"/>
		<polygon clip-path="url(#SVGID_2_)" fill="#FFFFFF" points="190.853,237.145 183.809,239.92 183.809,229.816 190.853,226.827 		
			"/>
		<polygon clip-path="url(#SVGID_2_)" fill="#FFFFFF" points="118.813,278.443 114.424,279.959 114.424,271.962 118.813,270.314 		
			"/>
		<polygon clip-path="url(#SVGID_2_)" fill="#FFFFFF" points="126.102,275.922 121.472,277.524 121.472,269.311 126.102,267.568 		
			"/>
		<polygon clip-path="url(#SVGID_2_)" fill="#FFFFFF" points="133.797,273.263 128.906,274.956 128.906,266.518 133.797,264.678 		
			"/>
		<polygon clip-path="url(#SVGID_2_)" fill="#FFFFFF" points="150.563,267.467 145.072,269.367 145.072,260.437 150.563,258.375 		
			"/>
		<polygon clip-path="url(#SVGID_2_)" fill="#FFFFFF" points="159.709,264.311 153.89,266.322 153.89,257.12 159.709,254.934 		"/>
		<polygon clip-path="url(#SVGID_2_)" fill="#FFFFFF" points="169.437,260.947 163.248,263.088 163.248,253.604 169.437,251.275 		
			"/>
		<polygon clip-path="url(#SVGID_2_)" fill="#FFFFFF" points="179.799,257.368 173.198,259.646 173.198,249.863 179.799,247.385 		
			"/>
		<polygon clip-path="url(#SVGID_2_)" fill="#FFFFFF" points="118.813,291.361 114.424,292.67 114.424,284.675 118.813,283.231 		
			"/>
		<polygon clip-path="url(#SVGID_2_)" fill="#FFFFFF" points="126.102,289.199 121.472,290.578 121.472,282.365 126.102,280.844 		
			"/>
		<polygon clip-path="url(#SVGID_2_)" fill="#40A5DC" points="133.797,286.908 128.906,288.365 128.906,279.925 133.797,278.324 		
			"/>
		<polygon clip-path="url(#SVGID_2_)" fill="#FFFFFF" points="141.938,284.488 136.76,286.03 136.76,277.353 141.938,275.657 		"/>
		<polygon clip-path="url(#SVGID_2_)" fill="#FFFFFF" points="150.563,281.926 145.072,283.556 145.072,274.629 150.563,272.829 		
			"/>
		<polygon clip-path="url(#SVGID_2_)" fill="#FFFFFF" points="169.437,276.313 163.248,278.152 163.248,268.676 169.437,266.646 		
			"/>
		<polygon clip-path="url(#SVGID_2_)" fill="#FFFFFF" points="190.853,269.945 183.809,272.042 183.809,261.936 190.853,259.625 		
			"/>
		<polygon clip-path="url(#SVGID_2_)" fill="#FFFFFF" points="118.813,304.289 114.424,305.377 114.424,297.381 118.813,296.156 		
			"/>
		<polygon clip-path="url(#SVGID_2_)" fill="#FFFFFF" points="126.102,302.473 121.472,303.625 121.472,295.412 126.102,294.118 		
			"/>
		<polygon clip-path="url(#SVGID_2_)" fill="#40A5DC" points="133.797,300.556 128.906,301.771 128.906,293.334 133.797,291.972 		
			"/>
		<polygon clip-path="url(#SVGID_2_)" fill="#FFFFFF" points="141.938,298.529 136.76,299.818 136.76,291.141 141.938,289.696 		"/>
		<polygon clip-path="url(#SVGID_2_)" fill="#FFFFFF" points="150.563,296.381 145.072,297.746 145.072,288.817 150.563,287.283 		
			"/>
		<polygon clip-path="url(#SVGID_2_)" fill="#FFFFFF" points="159.709,294.105 153.89,295.555 153.89,286.357 159.709,284.729 		"/>
		<polygon clip-path="url(#SVGID_2_)" fill="#FFFFFF" points="169.437,291.68 163.248,293.223 163.248,283.744 169.437,282.011 		
			"/>
		<polygon clip-path="url(#SVGID_2_)" fill="#FFFFFF" points="190.853,286.347 183.809,288.102 183.809,277.992 190.853,276.025 		
			"/>
		<polygon clip-path="url(#SVGID_2_)" fill="#FFFFFF" points="118.813,317.21 114.424,318.092 114.424,310.091 118.813,309.082 		
			"/>
		<polygon clip-path="url(#SVGID_2_)" fill="#FFFFFF" points="126.102,315.747 121.472,316.675 121.472,308.465 126.102,307.393 		
			"/>
		<polygon clip-path="url(#SVGID_2_)" fill="#FFFFFF" points="141.938,312.57 136.76,313.604 136.76,304.932 141.938,303.735 		"/>
		<polygon clip-path="url(#SVGID_2_)" fill="#FFFFFF" points="150.563,310.835 145.072,311.936 145.072,303.01 150.563,301.743 		
			"/>
		<polygon clip-path="url(#SVGID_2_)" fill="#FFFFFF" points="169.437,307.048 163.248,308.287 163.248,298.807 169.437,297.379 		
			"/>
		<polygon clip-path="url(#SVGID_2_)" fill="#40A5DC" points="179.799,304.969 173.198,306.288 173.198,296.51 179.799,294.982 		
			"/>
		<polygon clip-path="url(#SVGID_2_)" fill="#FFFFFF" points="190.853,302.75 183.809,304.162 183.809,294.055 190.853,292.43 		"/>
		<polygon clip-path="url(#SVGID_2_)" fill="#FFFFFF" points="118.813,330.135 114.424,330.805 114.424,322.805 118.813,322.005 		
			"/>
		<polygon clip-path="url(#SVGID_2_)" fill="#FFFFFF" points="126.102,329.019 121.472,329.728 121.472,321.515 126.102,320.665 		
			"/>
		<polygon clip-path="url(#SVGID_2_)" fill="#FFFFFF" points="133.797,327.848 128.906,328.595 128.906,320.155 133.797,319.262 		
			"/>
		<polygon clip-path="url(#SVGID_2_)" fill="#FFFFFF" points="141.938,326.607 136.76,327.396 136.76,318.719 141.938,317.774 		"/>
		<polygon clip-path="url(#SVGID_2_)" fill="#FFFFFF" points="150.563,325.292 145.072,326.13 145.072,317.197 150.563,316.195 		
			"/>
		<polygon clip-path="url(#SVGID_2_)" fill="#FFFFFF" points="159.709,323.895 153.89,324.785 153.89,315.585 159.709,314.521 		"/>
		<polygon clip-path="url(#SVGID_2_)" fill="#FFFFFF" points="169.437,322.417 163.248,323.36 163.248,313.875 169.437,312.744 		
			"/>
		<polygon clip-path="url(#SVGID_2_)" fill="#FFFFFF" points="190.853,319.152 183.809,320.223 183.809,310.117 190.853,308.83 		
			"/>
		<polygon clip-path="url(#SVGID_2_)" fill="#FFFFFF" points="118.813,343.052 114.424,343.512 114.424,335.516 118.813,334.922 		
			"/>
		<polygon clip-path="url(#SVGID_2_)" fill="#FFFFFF" points="126.102,342.298 121.472,342.776 121.472,334.564 126.102,333.945 		
			"/>
		<polygon clip-path="url(#SVGID_2_)" fill="#FFFFFF" points="133.797,341.492 128.906,342.004 128.906,333.564 133.797,332.909 		
			"/>
		<polygon clip-path="url(#SVGID_2_)" fill="#40A5DC" points="141.938,340.647 136.76,341.184 136.76,332.509 141.938,331.811 		"/>
		<polygon clip-path="url(#SVGID_2_)" fill="#FFFFFF" points="150.563,339.749 145.072,340.32 145.072,331.389 150.563,330.65 		"/>
		<polygon clip-path="url(#SVGID_2_)" fill="#FFFFFF" points="159.709,338.792 153.89,339.399 153.89,330.204 159.709,329.419 		"/>
		<polygon clip-path="url(#SVGID_2_)" fill="#FFFFFF" points="169.437,337.781 163.248,338.423 163.248,328.943 169.437,328.11 		
			"/>
		<polygon clip-path="url(#SVGID_2_)" fill="#FFFFFF" points="179.724,336.704 173.127,337.39 173.127,327.607 179.724,326.719 		
			"/>
		<polygon clip-path="url(#SVGID_2_)" fill="#FFFFFF" points="190.853,335.547 183.809,336.283 183.809,326.18 190.853,325.234 		
			"/>
		<polygon clip-path="url(#SVGID_2_)" fill="#FFFFFF" points="118.813,355.978 114.424,356.223 114.424,348.226 118.813,347.847 		
			"/>
		<polygon clip-path="url(#SVGID_2_)" fill="#FFFFFF" points="133.797,355.144 128.906,355.416 128.906,346.976 133.797,346.553 		
			"/>
		<polygon clip-path="url(#SVGID_2_)" fill="#FFFFFF" points="141.938,354.684 136.76,354.976 136.76,346.296 141.938,345.852 		"/>
		<polygon clip-path="url(#SVGID_2_)" fill="#FFFFFF" points="150.563,354.203 145.072,354.508 145.072,345.578 150.563,345.104 		
			"/>
		<polygon clip-path="url(#SVGID_2_)" fill="#FFFFFF" points="159.709,353.691 153.89,354.018 153.89,344.818 159.709,344.314 		"/>
		<polygon clip-path="url(#SVGID_2_)" fill="#FFFFFF" points="169.437,353.15 163.248,353.491 163.248,344.016 169.437,343.48 		"/>
		<polygon clip-path="url(#SVGID_2_)" fill="#FFFFFF" points="179.799,352.568 173.198,352.938 173.198,343.154 179.799,342.585 		
			"/>
		<polygon clip-path="url(#SVGID_2_)" fill="#FFFFFF" points="190.853,351.952 183.809,352.345 183.809,342.236 190.853,341.633 		
			"/>
		<polygon clip-path="url(#SVGID_2_)" fill="#FFFFFF" points="118.813,368.9 114.424,368.934 114.424,360.934 118.813,360.77 		"/>
		<polygon clip-path="url(#SVGID_2_)" fill="#FFFFFF" points="126.102,368.843 121.472,368.876 121.472,360.668 126.102,360.491 		
			"/>
		<polygon clip-path="url(#SVGID_2_)" fill="#FFFFFF" points="133.797,368.787 128.906,368.826 128.906,360.385 133.797,360.198 		
			"/>
		<polygon clip-path="url(#SVGID_2_)" fill="#FFFFFF" points="150.563,368.657 145.072,368.698 145.072,359.771 150.563,359.563 		
			"/>
		<polygon clip-path="url(#SVGID_2_)" fill="#FFFFFF" points="169.437,368.515 163.248,368.562 163.248,359.08 169.437,358.848 		
			"/>
		<polygon clip-path="url(#SVGID_2_)" fill="#FFFFFF" points="179.799,368.439 173.198,368.49 173.198,358.702 179.799,358.453 		
			"/>
		<polygon clip-path="url(#SVGID_2_)" fill="#FFFFFF" points="190.853,368.353 183.809,368.404 183.809,358.298 190.853,358.035 		
			"/>
		<polygon clip-path="url(#SVGID_2_)" fill="#FFFFFF" points="118.813,381.823 114.424,381.644 114.424,373.645 118.813,373.693 		
			"/>
		<polygon clip-path="url(#SVGID_2_)" fill="#FFFFFF" points="126.102,382.122 121.472,381.933 121.472,373.724 126.102,373.763 		
			"/>
		<polygon clip-path="url(#SVGID_2_)" fill="#40A5DC" points="133.797,382.434 128.906,382.231 128.906,373.791 133.797,373.846 		
			"/>
		<polygon clip-path="url(#SVGID_2_)" fill="#FFFFFF" points="150.563,383.115 145.072,382.893 145.072,373.963 150.563,374.018 		
			"/>
		<polygon clip-path="url(#SVGID_2_)" fill="#FFFFFF" points="159.709,383.482 153.89,383.249 153.89,374.055 159.709,374.115 		"/>
		<polygon clip-path="url(#SVGID_2_)" fill="#40A5DC" points="179.799,384.304 173.198,384.037 173.198,374.252 179.799,374.32 		
			"/>
		<polygon clip-path="url(#SVGID_2_)" fill="#FFFFFF" points="190.853,384.752 183.809,384.467 183.809,374.365 190.853,374.434 		
			"/>
		<polygon clip-path="url(#SVGID_2_)" fill="#FFFFFF" points="118.813,394.742 114.424,394.354 114.424,386.355 118.813,386.618 		
			"/>
		<polygon clip-path="url(#SVGID_2_)" fill="#FFFFFF" points="126.102,395.394 121.472,394.98 121.472,386.77 126.102,387.041 		"/>
		<polygon clip-path="url(#SVGID_2_)" fill="#FFFFFF" points="133.797,396.079 128.906,395.643 128.906,387.208 133.797,387.495 		
			"/>
		<polygon clip-path="url(#SVGID_2_)" fill="#FFFFFF" points="141.938,396.802 136.76,396.346 136.76,387.668 141.938,387.972 		"/>
		<polygon clip-path="url(#SVGID_2_)" fill="#FFFFFF" points="150.563,397.569 145.072,397.083 145.072,388.151 150.563,388.472 		
			"/>
		<polygon clip-path="url(#SVGID_2_)" fill="#FFFFFF" points="159.709,398.385 153.89,397.865 153.89,388.668 159.709,389.012 		"/>
		<polygon clip-path="url(#SVGID_2_)" fill="#FFFFFF" points="169.437,399.248 163.248,398.697 163.248,389.22 169.437,389.58 		"/>
		<polygon clip-path="url(#SVGID_2_)" fill="#FFFFFF" points="179.799,400.171 173.198,399.585 173.198,389.801 179.799,390.184 		
			"/>
		<polygon clip-path="url(#SVGID_2_)" fill="#FFFFFF" points="190.853,401.157 183.809,400.531 183.809,390.421 190.853,390.836 		
			"/>
		<polygon clip-path="url(#SVGID_2_)" fill="#FFFFFF" points="118.813,407.672 114.424,407.066 114.424,399.065 118.813,399.535 		
			"/>
		<polygon clip-path="url(#SVGID_2_)" fill="#FFFFFF" points="126.102,408.668 121.472,408.033 121.472,399.818 126.102,400.313 		
			"/>
		<polygon clip-path="url(#SVGID_2_)" fill="#40A5DC" points="133.797,409.721 128.906,409.053 128.906,400.615 133.797,401.139 		
			"/>
		<polygon clip-path="url(#SVGID_2_)" fill="#FFFFFF" points="141.938,410.842 136.76,410.131 136.76,401.454 141.938,402.01 		"/>
		<polygon clip-path="url(#SVGID_2_)" fill="#FFFFFF" points="150.563,412.025 145.072,411.273 145.072,402.344 150.563,402.93 		
			"/>
		<polygon clip-path="url(#SVGID_2_)" fill="#FFFFFF" points="159.709,413.281 153.89,412.48 153.89,403.287 159.709,403.91 		"/>
		<polygon clip-path="url(#SVGID_2_)" fill="#40A5DC" points="179.799,416.041 173.198,415.135 173.198,405.351 179.799,406.053 		
			"/>
		<polygon clip-path="url(#SVGID_2_)" fill="#FFFFFF" points="118.813,420.595 114.424,419.777 114.424,411.773 118.813,412.461 		
			"/>
		<polygon clip-path="url(#SVGID_2_)" fill="#FFFFFF" points="126.102,421.941 121.472,421.085 121.472,412.871 126.102,413.586 		
			"/>
		<polygon clip-path="url(#SVGID_2_)" fill="#FFFFFF" points="133.797,423.373 128.906,422.463 128.906,414.028 133.797,414.787 		
			"/>
		<polygon clip-path="url(#SVGID_2_)" fill="#FFFFFF" points="150.563,426.481 145.072,425.462 145.072,416.533 150.563,417.386 		
			"/>
		<polygon clip-path="url(#SVGID_2_)" fill="#FFFFFF" points="159.709,428.178 153.89,427.103 153.89,417.904 159.709,418.807 		"/>
		<polygon clip-path="url(#SVGID_2_)" fill="#FFFFFF" points="169.437,429.988 163.248,428.835 163.248,419.357 169.437,420.315 		
			"/>
		<polygon clip-path="url(#SVGID_2_)" fill="#FFFFFF" points="190.853,433.961 183.809,432.652 183.809,422.546 190.853,423.639 		
			"/>
		<polygon clip-path="url(#SVGID_2_)" fill="#FFFFFF" points="118.813,433.515 114.424,432.484 114.424,424.487 118.813,425.381 		
			"/>
		<polygon clip-path="url(#SVGID_2_)" fill="#FFFFFF" points="126.102,435.221 121.472,434.135 121.472,425.922 126.102,426.865 		
			"/>
		<polygon clip-path="url(#SVGID_2_)" fill="#FFFFFF" points="150.563,440.936 145.072,439.654 145.072,430.728 150.563,431.84 		
			"/>
		<polygon clip-path="url(#SVGID_2_)" fill="#FFFFFF" points="169.437,445.354 163.248,443.901 163.248,434.422 169.437,435.68 		
			"/>
		<polygon clip-path="url(#SVGID_2_)" fill="#40A5DC" points="179.799,447.775 173.198,446.232 173.198,436.447 179.799,437.79 		
			"/>
		<polygon clip-path="url(#SVGID_2_)" fill="#FFFFFF" points="190.853,450.358 183.809,448.712 183.809,438.608 190.853,440.035 		
			"/>
		<polygon clip-path="url(#SVGID_2_)" fill="#FFFFFF" points="126.102,448.492 121.472,447.184 121.472,438.97 126.102,440.137 		
			"/>
		<polygon clip-path="url(#SVGID_2_)" fill="#FFFFFF" points="133.797,450.66 128.906,449.279 128.906,440.846 133.797,442.074 		
			"/>
		<polygon clip-path="url(#SVGID_2_)" fill="#FFFFFF" points="126.102,461.768 121.472,460.235 121.472,452.021 126.102,453.412 		
			"/>
		<polygon clip-path="url(#SVGID_2_)" fill="#FFFFFF" points="190.853,483.161 183.809,480.835 183.809,470.728 190.853,472.842 		
			"/>
		<polygon clip-path="url(#SVGID_2_)" fill="#FFFFFF" points="118.813,472.279 114.424,470.625 114.424,462.622 118.813,464.154 		
			"/>
		<polygon clip-path="url(#SVGID_2_)" fill="#FFFFFF" points="126.102,475.047 121.472,473.289 121.472,465.078 126.102,466.686 		
			"/>
		<polygon clip-path="url(#SVGID_2_)" fill="#40A5DC" points="133.797,477.955 128.906,476.104 128.906,467.666 133.797,469.367 		
			"/>
		<polygon clip-path="url(#SVGID_2_)" fill="#FFFFFF" points="150.563,484.309 145.072,482.229 145.072,473.304 150.563,475.206 		
			"/>
		<polygon clip-path="url(#SVGID_2_)" fill="#FFFFFF" points="169.437,491.452 163.248,489.105 163.248,479.627 169.437,481.779 		
			"/>
		<polygon clip-path="url(#SVGID_2_)" fill="#FFFFFF" points="118.813,485.202 114.424,483.33 114.424,475.333 118.813,477.074 		
			"/>
		<polygon clip-path="url(#SVGID_2_)" fill="#FFFFFF" points="133.797,491.6 128.906,489.512 128.906,481.074 133.797,483.017 		"/>
		<polygon clip-path="url(#SVGID_2_)" fill="#FFFFFF" points="159.709,502.667 153.89,500.181 153.89,490.984 159.709,493.293 		"/>
		<polygon clip-path="url(#SVGID_2_)" fill="#FFFFFF" points="118.813,498.127 114.424,496.041 114.424,488.041 118.813,489.995 		
			"/>
		<polygon clip-path="url(#SVGID_2_)" fill="#FFFFFF" points="133.797,505.248 128.906,502.92 128.906,494.481 133.797,496.662 		
			"/>
		<polygon clip-path="url(#SVGID_2_)" fill="#FFFFFF" points="169.437,522.185 163.248,519.242 163.248,509.762 169.437,512.518 		
			"/>
		<polygon clip-path="url(#SVGID_2_)" fill="#FFFFFF" points="126.102,514.863 121.472,512.444 121.472,504.225 126.102,506.511 		
			"/>
		<polygon clip-path="url(#SVGID_2_)" fill="#FFFFFF" points="179.799,542.979 173.198,539.525 173.198,529.742 179.799,532.992 		
			"/>
		<polygon clip-path="url(#SVGID_2_)" fill="#FFFFFF" points="203.104,205.443 195.854,201.886 195.854,191.418 203.104,195.19 		
			"/>
		<polygon clip-path="url(#SVGID_2_)" fill="#FFFFFF" points="224.248,215.811 217.892,212.689 217.892,202.894 224.248,206.204 		
			"/>
		<polygon clip-path="url(#SVGID_2_)" fill="#FFFFFF" points="233.858,220.526 227.883,217.594 227.883,208.094 233.858,211.21 		
			"/>
		<polygon clip-path="url(#SVGID_2_)" fill="#FFFFFF" points="251.425,229.143 246.115,226.538 246.115,217.594 251.425,220.359 		
			"/>
		<polygon clip-path="url(#SVGID_2_)" fill="#FFFFFF" points="259.475,233.09 254.459,230.632 254.459,221.939 259.475,224.548 		
			"/>
		<polygon clip-path="url(#SVGID_2_)" fill="#FFFFFF" points="274.298,240.361 269.805,238.158 269.805,229.931 274.298,232.271 		
			"/>
		<polygon clip-path="url(#SVGID_2_)" fill="#FFFFFF" points="203.104,221.737 195.854,218.532 195.854,208.059 203.104,211.484 		
			"/>
		<polygon clip-path="url(#SVGID_2_)" fill="#FFFFFF" points="214.016,226.561 207.235,223.562 207.235,213.439 214.016,216.64 		
			"/>
		<polygon clip-path="url(#SVGID_2_)" fill="#FFFFFF" points="224.248,231.086 217.892,228.276 217.892,218.472 224.248,221.477 		
			"/>
		<polygon clip-path="url(#SVGID_2_)" fill="#FFFFFF" points="242.898,239.33 237.271,236.844 237.271,227.628 242.898,230.285 		
			"/>
		<polygon clip-path="url(#SVGID_2_)" fill="#FFFFFF" points="267.088,250.026 262.344,247.932 262.344,239.476 267.088,241.719 		
			"/>
		<polygon clip-path="url(#SVGID_2_)" fill="#FFFFFF" points="274.298,253.215 269.805,251.227 269.805,243.005 274.298,245.128 		
			"/>
		<polygon clip-path="url(#SVGID_2_)" fill="#FFFFFF" points="214.016,242.328 207.235,239.655 207.235,229.528 214.016,232.408 		
			"/>
		<polygon clip-path="url(#SVGID_2_)" fill="#FFFFFF" points="224.248,246.358 217.892,243.852 217.892,234.052 224.248,236.749 		
			"/>
		<polygon clip-path="url(#SVGID_2_)" fill="#FFFFFF" points="233.858,250.139 227.883,247.789 227.883,238.287 233.858,240.824 		
			"/>
		<polygon clip-path="url(#SVGID_2_)" fill="#FFFFFF" points="242.898,253.702 237.271,251.488 237.271,242.273 242.898,244.66 		
			"/>
		<polygon clip-path="url(#SVGID_2_)" fill="#40A5DC" points="251.425,257.058 246.115,254.971 246.115,246.021 251.425,248.275 		
			"/>
		<polygon clip-path="url(#SVGID_2_)" fill="#FFFFFF" points="259.475,260.231 254.459,258.259 254.459,249.565 259.475,251.692 		
			"/>
		<polygon clip-path="url(#SVGID_2_)" fill="#FFFFFF" points="267.088,263.229 262.344,261.359 262.344,252.911 267.088,254.922 		
			"/>
		<polygon clip-path="url(#SVGID_2_)" fill="#FFFFFF" points="274.298,266.074 269.805,264.299 269.805,256.076 274.298,257.982 		
			"/>
		<polygon clip-path="url(#SVGID_2_)" fill="#FFFFFF" points="203.104,254.322 195.854,251.816 195.854,241.346 203.104,244.068 		
			"/>
		<polygon clip-path="url(#SVGID_2_)" fill="#40A5DC" points="214.016,258.096 207.235,255.748 207.235,245.626 214.016,248.173 		
			"/>
		<polygon clip-path="url(#SVGID_2_)" fill="#FFFFFF" points="233.858,264.952 227.883,262.885 227.883,253.383 233.858,255.632 		
			"/>
		<polygon clip-path="url(#SVGID_2_)" fill="#FFFFFF" points="242.898,268.075 237.271,266.132 237.271,256.918 242.898,259.029 		
			"/>
		<polygon clip-path="url(#SVGID_2_)" fill="#FFFFFF" points="251.425,271.021 246.115,269.185 246.115,260.238 251.425,262.237 		
			"/>
		<polygon clip-path="url(#SVGID_2_)" fill="#FFFFFF" points="259.475,273.803 254.459,272.068 254.459,263.379 259.475,265.262 		
			"/>
		<polygon clip-path="url(#SVGID_2_)" fill="#FFFFFF" points="267.088,276.432 262.344,274.795 262.344,266.342 267.088,268.124 		
			"/>
		<polygon clip-path="url(#SVGID_2_)" fill="#FFFFFF" points="274.298,278.926 269.805,277.372 269.805,269.145 274.298,270.835 		
			"/>
		<polygon clip-path="url(#SVGID_2_)" fill="#FFFFFF" points="214.016,273.86 207.235,271.84 207.235,261.713 214.016,263.941 		"/>
		<polygon clip-path="url(#SVGID_2_)" fill="#FFFFFF" points="224.248,276.901 217.892,275.01 217.892,265.205 224.248,267.29 		"/>
		<polygon clip-path="url(#SVGID_2_)" fill="#FFFFFF" points="233.858,279.758 227.883,277.978 227.883,268.48 233.858,270.441 		
			"/>
		<polygon clip-path="url(#SVGID_2_)" fill="#FFFFFF" points="242.898,282.443 237.271,280.77 237.271,271.558 242.898,273.4 		"/>
		<polygon clip-path="url(#SVGID_2_)" fill="#FFFFFF" points="251.425,284.98 246.115,283.405 246.115,274.459 251.425,276.197 		
			"/>
		<polygon clip-path="url(#SVGID_2_)" fill="#FFFFFF" points="267.088,289.635 262.344,288.229 262.344,279.773 267.088,281.326 		
			"/>
		<polygon clip-path="url(#SVGID_2_)" fill="#FFFFFF" points="274.298,291.78 269.805,290.441 269.805,282.22 274.298,283.691 		"/>
		<polygon clip-path="url(#SVGID_2_)" fill="#FFFFFF" points="203.104,286.904 195.854,285.104 195.854,274.629 203.104,276.652 		
			"/>
		<polygon clip-path="url(#SVGID_2_)" fill="#FFFFFF" points="214.016,289.625 207.235,287.938 207.235,277.81 214.016,279.704 		
			"/>
		<polygon clip-path="url(#SVGID_2_)" fill="#FFFFFF" points="224.248,292.172 217.892,290.588 217.892,280.787 224.248,282.563 		
			"/>
		<polygon clip-path="url(#SVGID_2_)" fill="#FFFFFF" points="242.898,296.818 237.271,295.416 237.271,286.199 242.898,287.771 		
			"/>
		<polygon clip-path="url(#SVGID_2_)" fill="#FFFFFF" points="251.425,298.937 246.115,297.62 246.115,288.674 251.425,290.156 		
			"/>
		<polygon clip-path="url(#SVGID_2_)" fill="#FFFFFF" points="259.475,300.945 254.459,299.694 254.459,291.006 259.475,292.402 		
			"/>
		<polygon clip-path="url(#SVGID_2_)" fill="#FFFFFF" points="267.088,302.841 262.344,301.658 262.344,293.209 267.088,294.531 		
			"/>
		<polygon clip-path="url(#SVGID_2_)" fill="#FFFFFF" points="274.298,304.632 269.805,303.516 269.805,295.289 274.298,296.545 		
			"/>
		<polygon clip-path="url(#SVGID_2_)" fill="#40A5DC" points="203.104,303.201 195.854,301.743 195.854,291.273 203.104,292.945 		
			"/>
		<polygon clip-path="url(#SVGID_2_)" fill="#FFFFFF" points="214.016,305.389 207.235,304.027 207.235,293.903 214.016,295.473 		
			"/>
		<polygon clip-path="url(#SVGID_2_)" fill="#FFFFFF" points="233.858,309.371 227.883,308.174 227.883,298.674 233.858,300.058 		
			"/>
		<polygon clip-path="url(#SVGID_2_)" fill="#FFFFFF" points="242.898,311.188 237.271,310.06 237.271,300.846 242.898,302.146 		
			"/>
		<polygon clip-path="url(#SVGID_2_)" fill="#FFFFFF" points="251.425,312.895 246.115,311.836 246.115,302.891 251.425,304.117 		
			"/>
		<polygon clip-path="url(#SVGID_2_)" fill="#FFFFFF" points="259.475,314.516 254.459,313.509 254.459,304.815 259.475,305.974 		
			"/>
		<polygon clip-path="url(#SVGID_2_)" fill="#FFFFFF" points="267.088,316.042 262.344,315.087 262.344,306.639 267.088,307.736 		
			"/>
		<polygon clip-path="url(#SVGID_2_)" fill="#FFFFFF" points="274.298,317.492 269.805,316.588 269.805,308.365 274.298,309.399 		
			"/>
		<polygon clip-path="url(#SVGID_2_)" fill="#FFFFFF" points="214.016,321.153 207.235,320.123 207.235,309.994 214.016,311.237 		
			"/>
		<polygon clip-path="url(#SVGID_2_)" fill="#FFFFFF" points="224.248,322.715 217.892,321.746 217.892,311.944 224.248,313.105 		
			"/>
		<polygon clip-path="url(#SVGID_2_)" fill="#FFFFFF" points="233.858,324.178 227.883,323.271 227.883,313.769 233.858,314.863 		
			"/>
		<polygon clip-path="url(#SVGID_2_)" fill="#40A5DC" points="242.898,325.563 237.271,324.7 237.271,315.489 242.898,316.518 		"/>
		<polygon clip-path="url(#SVGID_2_)" fill="#FFFFFF" points="267.088,329.242 262.344,328.524 262.344,320.07 267.088,320.938 		
			"/>
		<polygon clip-path="url(#SVGID_2_)" fill="#FFFFFF" points="274.298,330.347 269.805,329.661 269.805,321.438 274.298,322.258 		
			"/>
		<polygon clip-path="url(#SVGID_2_)" fill="#FFFFFF" points="203.104,335.782 195.854,335.027 195.854,324.558 203.104,325.535 		
			"/>
		<polygon clip-path="url(#SVGID_2_)" fill="#FFFFFF" points="224.248,337.986 217.892,337.324 217.892,327.521 224.248,328.377 		
			"/>
		<polygon clip-path="url(#SVGID_2_)" fill="#FFFFFF" points="233.858,338.984 227.883,338.365 227.883,328.866 233.858,329.672 		
			"/>
		<polygon clip-path="url(#SVGID_2_)" fill="#FFFFFF" points="242.898,339.927 237.271,339.346 237.271,330.131 242.898,330.887 		
			"/>
		<polygon clip-path="url(#SVGID_2_)" fill="#FFFFFF" points="259.475,341.658 254.459,341.135 254.459,332.441 259.475,333.117 		
			"/>
		<polygon clip-path="url(#SVGID_2_)" fill="#FFFFFF" points="267.088,342.45 262.344,341.956 262.344,333.505 267.088,334.14 		"/>
		<polygon clip-path="url(#SVGID_2_)" fill="#FFFFFF" points="274.298,343.2 269.805,342.729 269.805,334.506 274.298,335.111 		"/>
		<polygon clip-path="url(#SVGID_2_)" fill="#FFFFFF" points="203.104,352.078 195.854,351.674 195.854,341.196 203.104,341.825 		
			"/>
		<polygon clip-path="url(#SVGID_2_)" fill="#FFFFFF" points="214.016,352.688 207.235,352.309 207.235,342.181 214.016,342.767 		
			"/>
		<polygon clip-path="url(#SVGID_2_)" fill="#40A5DC" points="224.248,353.263 217.892,352.904 217.892,343.102 224.248,343.652 		
			"/>
		<polygon clip-path="url(#SVGID_2_)" fill="#FFFFFF" points="251.425,354.777 246.115,354.482 246.115,345.537 251.425,345.996 		
			"/>
		<polygon clip-path="url(#SVGID_2_)" fill="#FFFFFF" points="259.475,355.23 254.459,354.944 254.459,346.255 259.475,346.688 		
			"/>
		<polygon clip-path="url(#SVGID_2_)" fill="#FFFFFF" points="267.088,355.654 262.344,355.387 262.344,346.933 267.088,347.345 		
			"/>
		<polygon clip-path="url(#SVGID_2_)" fill="#FFFFFF" points="274.298,356.055 269.805,355.802 269.805,347.58 274.298,347.965 		
			"/>
		<polygon clip-path="url(#SVGID_2_)" fill="#FFFFFF" points="203.104,368.369 195.854,368.314 195.854,357.841 203.104,358.116 		
			"/>
		<polygon clip-path="url(#SVGID_2_)" fill="#FFFFFF" points="214.016,368.453 207.235,368.4 207.235,358.272 214.016,358.533 		"/>
		<polygon clip-path="url(#SVGID_2_)" fill="#FFFFFF" points="224.248,368.531 217.892,368.482 217.892,358.678 224.248,358.921 		
			"/>
		<polygon clip-path="url(#SVGID_2_)" fill="#FFFFFF" points="233.858,368.6 227.883,368.557 227.883,359.058 233.858,359.288 		"/>
		<polygon clip-path="url(#SVGID_2_)" fill="#FFFFFF" points="242.898,368.674 237.271,368.627 237.271,359.419 242.898,359.631 		
			"/>
		<polygon clip-path="url(#SVGID_2_)" fill="#FFFFFF" points="251.425,368.734 246.115,368.698 246.115,359.754 251.425,359.955 		
			"/>
		<polygon clip-path="url(#SVGID_2_)" fill="#40A5DC" points="259.475,368.801 254.459,368.763 254.459,360.065 259.475,360.258 		
			"/>
		<polygon clip-path="url(#SVGID_2_)" fill="#FFFFFF" points="267.088,368.855 262.344,368.82 262.344,360.372 267.088,360.545 		
			"/>
		<polygon clip-path="url(#SVGID_2_)" fill="#FFFFFF" points="274.298,368.91 269.805,368.876 269.805,360.651 274.298,360.821 		
			"/>
		<polygon clip-path="url(#SVGID_2_)" fill="#FFFFFF" points="214.016,384.219 207.235,384.493 207.235,374.373 214.016,374.299 		
			"/>
		<polygon clip-path="url(#SVGID_2_)" fill="#FFFFFF" points="224.248,383.801 217.892,384.061 217.892,374.261 224.248,374.195 		
			"/>
		<polygon clip-path="url(#SVGID_2_)" fill="#FFFFFF" points="233.858,383.414 227.883,383.654 227.883,374.158 233.858,374.098 		
			"/>
		<polygon clip-path="url(#SVGID_2_)" fill="#FFFFFF" points="242.898,383.046 237.271,383.272 237.271,374.06 242.898,374.001 		
			"/>
		<polygon clip-path="url(#SVGID_2_)" fill="#FFFFFF" points="251.425,382.699 246.115,382.914 246.115,373.968 251.425,373.912 		
			"/>
		<polygon clip-path="url(#SVGID_2_)" fill="#FFFFFF" points="259.475,382.37 254.459,382.574 254.459,373.881 259.475,373.828 		
			"/>
		<polygon clip-path="url(#SVGID_2_)" fill="#FFFFFF" points="267.088,382.059 262.344,382.251 262.344,373.799 267.088,373.752 		
			"/>
		<polygon clip-path="url(#SVGID_2_)" fill="#FFFFFF" points="274.298,381.762 269.805,381.947 269.805,373.724 274.298,373.677 		
			"/>
		<polygon clip-path="url(#SVGID_2_)" fill="#FFFFFF" points="203.104,400.956 195.854,401.604 195.854,391.129 203.104,390.703 		
			"/>
		<polygon clip-path="url(#SVGID_2_)" fill="#40A5DC" points="214.016,399.981 207.235,400.592 207.235,390.459 214.016,390.066 		
			"/>
		<polygon clip-path="url(#SVGID_2_)" fill="#FFFFFF" points="224.248,399.074 217.892,399.642 217.892,389.838 224.248,389.468 		
			"/>
		<polygon clip-path="url(#SVGID_2_)" fill="#40A5DC" points="242.898,397.418 237.271,397.916 237.271,388.701 242.898,388.369 		
			"/>
		<polygon clip-path="url(#SVGID_2_)" fill="#FFFFFF" points="251.425,396.658 246.115,397.131 246.115,388.186 251.425,387.876 		
			"/>
		<polygon clip-path="url(#SVGID_2_)" fill="#FFFFFF" points="267.088,395.263 262.344,395.684 262.344,387.234 267.088,386.955 		
			"/>
		<polygon clip-path="url(#SVGID_2_)" fill="#FFFFFF" points="274.298,394.619 269.805,395.023 269.805,386.798 274.298,386.535 		
			"/>
		<polygon clip-path="url(#SVGID_2_)" fill="#FFFFFF" points="203.104,417.249 195.854,418.241 195.854,407.77 203.104,406.994 		
			"/>
		<polygon clip-path="url(#SVGID_2_)" fill="#FFFFFF" points="224.248,414.342 217.892,415.221 217.892,405.416 224.248,404.736 		
			"/>
		<polygon clip-path="url(#SVGID_2_)" fill="#FFFFFF" points="233.858,413.029 227.883,413.849 227.883,404.353 233.858,403.707 		
			"/>
		<polygon clip-path="url(#SVGID_2_)" fill="#FFFFFF" points="242.898,411.785 237.271,412.559 237.271,403.346 242.898,402.742 		
			"/>
		<polygon clip-path="url(#SVGID_2_)" fill="#FFFFFF" points="251.425,410.613 246.115,411.346 246.115,402.398 251.425,401.836 		
			"/>
		<polygon clip-path="url(#SVGID_2_)" fill="#FFFFFF" points="259.475,409.515 254.459,410.199 254.459,401.507 259.475,400.969 		
			"/>
		<polygon clip-path="url(#SVGID_2_)" fill="#FFFFFF" points="267.088,408.47 262.344,409.115 262.344,400.666 267.088,400.159 		
			"/>
		<polygon clip-path="url(#SVGID_2_)" fill="#FFFFFF" points="274.298,407.476 269.805,408.094 269.805,399.868 274.298,399.387 		
			"/>
		<polygon clip-path="url(#SVGID_2_)" fill="#FFFFFF" points="203.104,433.542 195.854,434.886 195.854,424.418 203.104,423.291 		
			"/>
		<polygon clip-path="url(#SVGID_2_)" fill="#FFFFFF" points="214.016,431.515 207.235,432.773 207.235,422.652 214.016,421.595 		
			"/>
		<polygon clip-path="url(#SVGID_2_)" fill="#FFFFFF" points="224.248,429.617 217.892,430.798 217.892,420.997 224.248,420.011 		
			"/>
		<polygon clip-path="url(#SVGID_2_)" fill="#FFFFFF" points="233.858,427.838 227.883,428.941 227.883,419.441 233.858,418.517 		
			"/>
		<polygon clip-path="url(#SVGID_2_)" fill="#FFFFFF" points="242.898,426.159 237.271,427.2 237.271,417.988 242.898,417.113 		"/>
		<polygon clip-path="url(#SVGID_2_)" fill="#FFFFFF" points="259.475,423.081 254.459,424.011 254.459,415.32 259.475,414.541 		
			"/>
		<polygon clip-path="url(#SVGID_2_)" fill="#FFFFFF" points="274.298,420.334 269.805,421.166 269.805,412.938 274.298,412.244 		
			"/>
		<polygon clip-path="url(#SVGID_2_)" fill="#FFFFFF" points="203.104,449.834 195.854,451.525 195.854,441.057 203.104,439.58 		
			"/>
		<polygon clip-path="url(#SVGID_2_)" fill="#FFFFFF" points="233.858,442.645 227.883,444.041 227.883,434.541 233.858,433.32 		
			"/>
		<polygon clip-path="url(#SVGID_2_)" fill="#FFFFFF" points="242.898,440.529 237.271,441.846 237.271,432.629 242.898,431.486 		
			"/>
		<polygon clip-path="url(#SVGID_2_)" fill="#FFFFFF" points="251.425,438.537 246.115,439.779 246.115,430.83 251.425,429.754 		
			"/>
		<polygon clip-path="url(#SVGID_2_)" fill="#FFFFFF" points="267.088,434.875 262.344,435.981 262.344,427.533 267.088,426.567 		
			"/>
		<polygon clip-path="url(#SVGID_2_)" fill="#FFFFFF" points="274.298,433.189 269.805,434.24 269.805,426.016 274.298,425.101 		
			"/>
		<polygon clip-path="url(#SVGID_2_)" fill="#FFFFFF" points="203.104,466.125 195.854,468.172 195.854,457.698 203.104,455.875 		
			"/>
		<polygon clip-path="url(#SVGID_2_)" fill="#40A5DC" points="242.898,454.9 237.271,456.491 237.271,447.273 242.898,445.855 		"/>
		<polygon clip-path="url(#SVGID_2_)" fill="#FFFFFF" points="259.475,450.224 254.459,451.64 254.459,442.94 259.475,441.685 		"/>
		<polygon clip-path="url(#SVGID_2_)" fill="#FFFFFF" points="274.298,446.042 269.805,447.311 269.805,439.083 274.298,437.953 		
			"/>
		<polygon clip-path="url(#SVGID_2_)" fill="#FFFFFF" points="203.104,482.42 195.854,484.816 195.854,474.338 203.104,472.169 		
			"/>
		<polygon clip-path="url(#SVGID_2_)" fill="#FFFFFF" points="214.016,478.817 207.235,481.053 207.235,470.928 214.016,468.895 		
			"/>
		<polygon clip-path="url(#SVGID_2_)" fill="#FFFFFF" points="233.858,472.256 227.883,474.234 227.883,464.736 233.858,462.943 		
			"/>
		<polygon clip-path="url(#SVGID_2_)" fill="#FFFFFF" points="242.898,469.268 237.271,471.133 237.271,461.918 242.898,460.23 		
			"/>
		<polygon clip-path="url(#SVGID_2_)" fill="#FFFFFF" points="267.088,461.276 262.344,462.844 262.344,454.394 267.088,452.975 		
			"/>
		<polygon clip-path="url(#SVGID_2_)" fill="#40A5DC" points="224.248,490.704 217.892,493.111 217.892,483.311 224.248,481.102 		
			"/>
		<polygon clip-path="url(#SVGID_2_)" fill="#FFFFFF" points="203.104,515 195.854,518.101 195.854,507.627 203.104,504.753 		"/>
		<polygon clip-path="url(#SVGID_2_)" fill="#FFFFFF" points="224.248,505.978 217.892,508.692 217.892,498.89 224.248,496.367 		
			"/>
		<polygon clip-path="url(#SVGID_2_)" fill="#FFFFFF" points="251.425,494.377 246.115,496.641 246.115,487.694 251.425,485.592 		
			"/>
		<polygon clip-path="url(#SVGID_2_)" fill="#FFFFFF" points="267.088,487.686 262.344,489.713 262.344,481.258 267.088,479.379 		
			"/>
		<polygon clip-path="url(#SVGID_2_)" fill="#FFFFFF" points="233.858,516.682 227.883,519.523 227.883,510.021 233.858,507.363 		
			"/>
		<polygon clip-path="url(#SVGID_2_)" fill="#FFFFFF" points="267.088,500.891 262.344,503.143 262.344,494.693 267.088,492.582 		
			"/>
		<polygon clip-path="url(#SVGID_2_)" fill="#FFFFFF" points="274.298,497.464 269.805,499.597 269.805,491.373 274.298,489.374 		
			"/>
		<polygon clip-path="url(#SVGID_2_)" fill="#FFFFFF" points="203.104,547.589 195.854,551.385 195.854,540.912 203.104,537.342 		
			"/>
		<polygon clip-path="url(#SVGID_2_)" fill="#FFFFFF" points="267.088,514.094 262.344,516.578 262.344,508.125 267.088,505.788 		
			"/>
		<polygon clip-path="url(#SVGID_2_)" fill="#2B6C90" points="393.71,108.33 257.164,179.453 257.164,640.428 393.71,711.923 		"/>
		<polygon clip-path="url(#SVGID_2_)" fill="#2B6C90" points="393.71,108.33 525.236,176.838 525.236,643.063 393.71,711.923 		"/>
		<polygon clip-path="url(#SVGID_2_)" fill="#FFFFFF" points="264.522,189.253 257.161,192.863 257.161,179.453 264.522,175.615 		
			"/>
		<polygon clip-path="url(#SVGID_2_)" fill="#FFFFFF" points="276.746,183.258 268.978,187.064 268.978,173.299 276.746,169.25 		
			"/>
		<polygon clip-path="url(#SVGID_2_)" fill="#FFFFFF" points="289.652,176.932 281.449,180.953 281.449,166.803 289.652,162.531 		
			"/>
		<polygon clip-path="url(#SVGID_2_)" fill="#FFFFFF" points="349.408,147.621 339.025,152.711 339.025,136.813 349.408,131.411 		
			"/>
		<polygon clip-path="url(#SVGID_2_)" fill="#FFFFFF" points="366.775,139.104 355.719,144.526 355.719,128.121 366.775,122.361 		
			"/>
		<polygon clip-path="url(#SVGID_2_)" fill="#FFFFFF" points="264.522,210.918 257.161,214.178 257.161,200.768 264.522,197.287 		
			"/>
		<polygon clip-path="url(#SVGID_2_)" fill="#FFFFFF" points="276.746,205.518 268.978,208.953 268.978,195.185 276.746,191.512 		
			"/>
		<polygon clip-path="url(#SVGID_2_)" fill="#FFFFFF" points="289.652,199.809 281.449,203.438 281.449,189.287 289.652,185.415 		
			"/>
		<polygon clip-path="url(#SVGID_2_)" fill="#FFFFFF" points="303.3,193.776 294.622,197.611 294.622,183.063 303.3,178.965 		"/>
		<polygon clip-path="url(#SVGID_2_)" fill="#FFFFFF" points="317.76,187.385 308.562,191.448 308.562,176.478 317.76,172.13 		"/>
		<polygon clip-path="url(#SVGID_2_)" fill="#FFFFFF" points="333.1,180.599 323.336,184.913 323.336,169.493 333.1,164.883 		"/>
		<polygon clip-path="url(#SVGID_2_)" fill="#FFFFFF" points="264.522,232.587 257.161,235.486 257.161,222.077 264.522,218.957 		
			"/>
		<polygon clip-path="url(#SVGID_2_)" fill="#FFFFFF" points="276.746,227.773 268.978,230.837 268.978,217.063 276.746,213.771 		
			"/>
		<polygon clip-path="url(#SVGID_2_)" fill="#FFFFFF" points="303.3,217.317 294.622,220.732 294.622,206.185 303.3,202.502 		"/>
		<polygon clip-path="url(#SVGID_2_)" fill="#FFFFFF" points="317.76,211.621 308.562,215.244 308.562,200.271 317.76,196.37 		"/>
		<polygon clip-path="url(#SVGID_2_)" fill="#FFFFFF" points="349.408,199.158 339.025,203.242 339.025,187.346 349.408,182.942 		
			"/>
		<polygon clip-path="url(#SVGID_2_)" fill="#40A5DC" points="366.775,192.311 355.719,196.668 355.719,180.264 366.775,175.575 		
			"/>
		<polygon clip-path="url(#SVGID_2_)" fill="#FFFFFF" points="264.522,254.254 257.161,256.799 257.161,243.392 264.522,240.623 		
			"/>
		<polygon clip-path="url(#SVGID_2_)" fill="#FFFFFF" points="276.746,250.033 268.978,252.719 268.978,238.947 276.746,236.029 		
			"/>
		<polygon clip-path="url(#SVGID_2_)" fill="#FFFFFF" points="289.652,245.572 281.449,248.412 281.449,234.259 289.652,231.174 		
			"/>
		<polygon clip-path="url(#SVGID_2_)" fill="#FFFFFF" points="303.3,240.857 294.622,243.855 294.622,229.311 303.3,226.044 		"/>
		<polygon clip-path="url(#SVGID_2_)" fill="#FFFFFF" points="317.76,235.862 308.562,239.037 308.562,224.066 317.76,220.61 		"/>
		<polygon clip-path="url(#SVGID_2_)" fill="#40A5DC" points="333.1,230.557 323.336,233.931 323.336,218.508 333.1,214.84 		"/>
		<polygon clip-path="url(#SVGID_2_)" fill="#FFFFFF" points="349.408,224.924 339.025,228.51 339.025,212.61 349.408,208.708 		"/>
		<polygon clip-path="url(#SVGID_2_)" fill="#FFFFFF" points="385.319,212.512 373.509,216.588 373.509,199.645 385.319,195.206 		
			"/>
		<polygon clip-path="url(#SVGID_2_)" fill="#FFFFFF" points="264.522,275.926 257.161,278.116 257.161,264.704 264.522,262.291 		
			"/>
		<polygon clip-path="url(#SVGID_2_)" fill="#FFFFFF" points="276.746,272.293 268.978,274.602 268.978,260.831 276.746,258.287 		
			"/>
		<polygon clip-path="url(#SVGID_2_)" fill="#FFFFFF" points="289.652,268.455 281.449,270.893 281.449,256.746 289.652,254.056 		
			"/>
		<polygon clip-path="url(#SVGID_2_)" fill="#FFFFFF" points="303.3,264.398 294.622,266.975 294.622,252.425 303.3,249.584 		"/>
		<polygon clip-path="url(#SVGID_2_)" fill="#FFFFFF" points="317.76,260.098 308.562,262.831 308.562,247.858 317.76,244.846 		"/>
		<polygon clip-path="url(#SVGID_2_)" fill="#FFFFFF" points="349.408,250.691 339.025,253.773 339.025,237.875 349.408,234.475 		
			"/>
		<polygon clip-path="url(#SVGID_2_)" fill="#FFFFFF" points="366.775,245.521 355.719,248.813 355.719,232.408 366.775,228.785 		
			"/>
		<polygon clip-path="url(#SVGID_2_)" fill="#FFFFFF" points="264.522,297.594 257.161,299.427 257.161,286.016 264.522,283.954 		
			"/>
		<polygon clip-path="url(#SVGID_2_)" fill="#FFFFFF" points="276.746,294.553 268.978,296.483 268.978,282.717 276.746,280.545 		
			"/>
		<polygon clip-path="url(#SVGID_2_)" fill="#FFFFFF" points="289.652,291.337 281.449,293.379 281.449,279.23 289.652,276.941 		
			"/>
		<polygon clip-path="url(#SVGID_2_)" fill="#FFFFFF" points="303.3,287.938 294.622,290.098 294.622,275.556 303.3,273.125 		"/>
		<polygon clip-path="url(#SVGID_2_)" fill="#FFFFFF" points="333.1,280.521 323.336,282.945 323.336,267.528 333.1,264.801 		"/>
		<polygon clip-path="url(#SVGID_2_)" fill="#FFFFFF" points="349.408,276.455 339.025,279.039 339.025,263.142 349.408,260.245 		
			"/>
		<polygon clip-path="url(#SVGID_2_)" fill="#FFFFFF" points="264.522,319.262 257.161,320.735 257.161,307.332 264.522,305.626 		
			"/>
		<polygon clip-path="url(#SVGID_2_)" fill="#FFFFFF" points="276.746,316.806 268.978,318.367 268.978,304.602 276.746,302.801 		
			"/>
		<polygon clip-path="url(#SVGID_2_)" fill="#FFFFFF" points="303.3,311.479 294.622,313.222 294.622,298.67 303.3,296.663 		"/>
		<polygon clip-path="url(#SVGID_2_)" fill="#FFFFFF" points="333.1,305.497 323.336,307.459 323.336,292.034 333.1,289.775 		"/>
		<polygon clip-path="url(#SVGID_2_)" fill="#FFFFFF" points="366.775,298.736 355.719,300.953 355.719,284.549 366.775,281.994 		
			"/>
		<polygon clip-path="url(#SVGID_2_)" fill="#FFFFFF" points="385.319,295.013 373.509,297.381 373.509,280.439 385.319,277.712 		
			"/>
		<polygon clip-path="url(#SVGID_2_)" fill="#FFFFFF" points="264.522,340.93 257.161,342.05 257.161,328.643 264.522,327.296 		"/>
		<polygon clip-path="url(#SVGID_2_)" fill="#FFFFFF" points="276.746,339.067 268.978,340.254 268.978,326.479 276.746,325.062 		
			"/>
		<polygon clip-path="url(#SVGID_2_)" fill="#FFFFFF" points="289.652,337.102 281.449,338.35 281.449,324.203 289.652,322.704 		
			"/>
		<polygon clip-path="url(#SVGID_2_)" fill="#FFFFFF" points="303.3,335.018 294.622,336.336 294.622,321.795 303.3,320.209 		"/>
		<polygon clip-path="url(#SVGID_2_)" fill="#FFFFFF" points="317.76,332.816 308.562,334.215 308.562,319.245 317.76,317.563 		"/>
		<polygon clip-path="url(#SVGID_2_)" fill="#FFFFFF" points="333.1,330.476 323.336,331.966 323.336,316.545 333.1,314.756 		"/>
		<polygon clip-path="url(#SVGID_2_)" fill="#40A5DC" points="385.319,322.514 373.509,324.312 373.509,307.367 385.319,305.209 		
			"/>
		<polygon clip-path="url(#SVGID_2_)" fill="#FFFFFF" points="264.522,362.599 257.161,363.366 257.161,349.953 264.522,348.966 		
			"/>
		<polygon clip-path="url(#SVGID_2_)" fill="#FFFFFF" points="276.746,361.324 268.978,362.132 268.978,348.365 276.746,347.32 		
			"/>
		<polygon clip-path="url(#SVGID_2_)" fill="#FFFFFF" points="289.652,359.986 281.449,360.838 281.449,346.688 289.652,345.585 		
			"/>
		<polygon clip-path="url(#SVGID_2_)" fill="#FFFFFF" points="303.3,358.555 294.622,359.47 294.622,344.914 303.3,343.746 		"/>
		<polygon clip-path="url(#SVGID_2_)" fill="#FFFFFF" points="317.76,357.053 308.562,358.008 308.562,343.038 317.76,341.802 		"/>
		<polygon clip-path="url(#SVGID_2_)" fill="#40A5DC" points="349.408,353.758 339.025,354.834 339.025,338.938 349.408,337.545 		
			"/>
		<polygon clip-path="url(#SVGID_2_)" fill="#FFFFFF" points="385.319,350.016 373.509,351.246 373.509,334.301 385.319,332.712 		
			"/>
		<polygon clip-path="url(#SVGID_2_)" fill="#FFFFFF" points="264.522,384.267 257.161,384.675 257.161,371.268 264.522,370.633 		
			"/>
		<polygon clip-path="url(#SVGID_2_)" fill="#FFFFFF" points="276.746,383.581 268.978,384.015 268.978,370.25 276.746,369.577 		
			"/>
		<polygon clip-path="url(#SVGID_2_)" fill="#FFFFFF" points="289.652,382.862 281.449,383.32 281.449,369.17 289.652,368.463 		"/>
		<polygon clip-path="url(#SVGID_2_)" fill="#FFFFFF" points="317.76,381.291 308.562,381.805 308.562,366.834 317.76,366.036 		"/>
		<polygon clip-path="url(#SVGID_2_)" fill="#FFFFFF" points="333.1,380.436 323.336,380.98 323.336,365.563 333.1,364.712 		"/>
		<polygon clip-path="url(#SVGID_2_)" fill="#FFFFFF" points="385.319,377.519 373.509,378.176 373.509,361.231 385.319,360.211 		
			"/>
		<polygon clip-path="url(#SVGID_2_)" fill="#FFFFFF" points="264.522,405.937 257.161,405.992 257.161,392.584 264.522,392.301 		
			"/>
		<polygon clip-path="url(#SVGID_2_)" fill="#FFFFFF" points="276.746,405.841 268.978,405.9 268.978,392.131 276.746,391.836 		"/>
		<polygon clip-path="url(#SVGID_2_)" fill="#FFFFFF" points="289.652,405.744 281.449,405.805 281.449,391.657 289.652,391.346 		
			"/>
		<polygon clip-path="url(#SVGID_2_)" fill="#FFFFFF" points="317.76,405.529 308.562,405.602 308.562,390.628 317.76,390.282 		"/>
		<polygon clip-path="url(#SVGID_2_)" fill="#40A5DC" points="349.408,405.291 339.025,405.367 339.025,389.477 349.408,389.078 		
			"/>
		<polygon clip-path="url(#SVGID_2_)" fill="#40A5DC" points="366.775,405.159 355.719,405.242 355.719,388.838 366.775,388.418 		
			"/>
		<polygon clip-path="url(#SVGID_2_)" fill="#FFFFFF" points="385.319,405.016 373.509,405.107 373.509,388.159 385.319,387.71 		
			"/>
		<polygon clip-path="url(#SVGID_2_)" fill="#FFFFFF" points="264.522,427.603 257.161,427.307 257.161,413.894 264.522,413.965 		
			"/>
		<polygon clip-path="url(#SVGID_2_)" fill="#FFFFFF" points="276.746,428.104 268.978,427.786 268.978,414.01 276.746,414.096 		
			"/>
		<polygon clip-path="url(#SVGID_2_)" fill="#FFFFFF" points="289.652,428.627 281.449,428.297 281.449,414.145 289.652,414.23 		
			"/>
		<polygon clip-path="url(#SVGID_2_)" fill="#FFFFFF" points="303.3,429.178 294.622,428.827 294.622,414.279 303.3,414.37 		"/>
		<polygon clip-path="url(#SVGID_2_)" fill="#FFFFFF" points="333.1,430.393 323.336,429.999 323.336,414.572 333.1,414.674 		"/>
		<polygon clip-path="url(#SVGID_2_)" fill="#FFFFFF" points="385.319,432.518 373.509,432.039 373.509,415.094 385.319,415.212 		
			"/>
		<polygon clip-path="url(#SVGID_2_)" fill="#FFFFFF" points="264.522,449.272 257.161,448.617 257.161,435.204 264.522,435.636 		
			"/>
		<polygon clip-path="url(#SVGID_2_)" fill="#FFFFFF" points="276.746,450.358 268.978,449.667 268.978,435.896 276.746,436.354 		
			"/>
		<polygon clip-path="url(#SVGID_2_)" fill="#FFFFFF" points="289.652,451.508 281.449,450.778 281.449,436.631 289.652,437.11 		
			"/>
		<polygon clip-path="url(#SVGID_2_)" fill="#FFFFFF" points="303.3,452.72 294.622,451.948 294.622,437.403 303.3,437.91 		"/>
		<polygon clip-path="url(#SVGID_2_)" fill="#FFFFFF" points="317.76,454.01 308.562,453.187 308.562,438.217 317.76,438.758 		"/>
		<polygon clip-path="url(#SVGID_2_)" fill="#FFFFFF" points="349.408,456.831 339.025,455.9 339.025,440.006 349.408,440.613 		"/>
		<polygon clip-path="url(#SVGID_2_)" fill="#FFFFFF" points="385.319,460.019 373.509,458.971 373.509,442.021 385.319,442.712 		
			"/>
		<polygon clip-path="url(#SVGID_2_)" fill="#FFFFFF" points="264.522,470.941 257.161,469.93 257.161,456.522 264.522,457.305 		
			"/>
		<polygon clip-path="url(#SVGID_2_)" fill="#FFFFFF" points="276.746,472.62 268.978,471.551 268.978,457.784 276.746,458.611 		
			"/>
		<polygon clip-path="url(#SVGID_2_)" fill="#FFFFFF" points="289.652,474.388 281.449,473.262 281.449,459.115 289.652,459.995 		
			"/>
		<polygon clip-path="url(#SVGID_2_)" fill="#40A5DC" points="317.76,478.246 308.562,476.985 308.562,462.014 317.76,463 		"/>
		<polygon clip-path="url(#SVGID_2_)" fill="#FFFFFF" points="333.1,480.356 323.336,479.018 323.336,463.598 333.1,464.634 		"/>
		<polygon clip-path="url(#SVGID_2_)" fill="#FFFFFF" points="349.408,482.592 339.025,481.166 339.025,465.27 349.408,466.38 		"/>
		<polygon clip-path="url(#SVGID_2_)" fill="#40A5DC" points="385.319,487.523 373.509,485.901 373.509,468.953 385.319,470.217 		
			"/>
		<polygon clip-path="url(#SVGID_2_)" fill="#FFFFFF" points="264.522,492.606 257.161,491.24 257.161,477.831 264.522,478.973 		
			"/>
		<polygon clip-path="url(#SVGID_2_)" fill="#FFFFFF" points="276.746,494.877 268.978,493.437 268.978,479.664 276.746,480.873 		
			"/>
		<polygon clip-path="url(#SVGID_2_)" fill="#FFFFFF" points="289.652,497.273 281.449,495.745 281.449,481.603 289.652,482.874 		
			"/>
		<polygon clip-path="url(#SVGID_2_)" fill="#FFFFFF" points="303.3,499.803 294.622,498.192 294.622,483.643 303.3,484.992 		"/>
		<polygon clip-path="url(#SVGID_2_)" fill="#FFFFFF" points="317.76,502.486 308.562,500.779 308.562,485.807 317.76,487.233 		"/>
		<polygon clip-path="url(#SVGID_2_)" fill="#FFFFFF" points="366.775,511.581 355.719,509.531 355.719,493.124 366.775,494.843 		
			"/>
		<polygon clip-path="url(#SVGID_2_)" fill="#FFFFFF" points="385.319,515.017 373.509,512.83 373.509,495.886 385.319,497.719 		
			"/>
		<polygon clip-path="url(#SVGID_2_)" fill="#FFFFFF" points="264.522,514.273 257.161,512.554 257.161,499.142 264.522,500.64 		
			"/>
		<polygon clip-path="url(#SVGID_2_)" fill="#FFFFFF" points="276.746,517.137 268.978,515.318 268.978,501.547 276.746,503.126 		
			"/>
		<polygon clip-path="url(#SVGID_2_)" fill="#FFFFFF" points="317.76,526.724 308.562,524.573 308.562,509.602 317.76,511.472 		"/>
		<polygon clip-path="url(#SVGID_2_)" fill="#FFFFFF" points="333.1,530.31 323.336,528.029 323.336,512.609 333.1,514.596 		"/>
		<polygon clip-path="url(#SVGID_2_)" fill="#FFFFFF" points="349.408,534.125 339.025,531.701 339.025,515.801 349.408,517.912 		
			"/>
		<polygon clip-path="url(#SVGID_2_)" fill="#FFFFFF" points="385.319,542.526 373.509,539.763 373.509,522.813 385.319,525.218 		
			"/>
		<polygon clip-path="url(#SVGID_2_)" fill="#FFFFFF" points="264.522,535.945 257.161,533.869 257.161,520.456 264.522,522.31 		
			"/>
		<polygon clip-path="url(#SVGID_2_)" fill="#FFFFFF" points="276.746,539.393 268.978,537.201 268.978,523.434 276.746,525.384 		
			"/>
		<polygon clip-path="url(#SVGID_2_)" fill="#FFFFFF" points="289.652,543.032 281.449,540.718 281.449,526.572 289.652,528.634 		
			"/>
		<polygon clip-path="url(#SVGID_2_)" fill="#FFFFFF" points="317.76,550.962 308.562,548.367 308.562,533.395 317.76,535.711 		"/>
		<polygon clip-path="url(#SVGID_2_)" fill="#FFFFFF" points="385.319,570.025 373.509,566.692 373.509,549.746 385.319,552.723 		
			"/>
		<polygon clip-path="url(#SVGID_2_)" fill="#FFFFFF" points="264.522,557.617 257.161,555.18 257.161,541.771 264.522,543.976 		
			"/>
		<polygon clip-path="url(#SVGID_2_)" fill="#FFFFFF" points="276.746,561.654 268.978,559.087 268.978,545.314 276.746,547.646 		
			"/>
		<polygon clip-path="url(#SVGID_2_)" fill="#FFFFFF" points="289.652,565.913 281.449,563.206 281.449,549.055 289.652,551.52 		
			"/>
		<polygon clip-path="url(#SVGID_2_)" fill="#FFFFFF" points="303.3,570.427 294.622,567.556 294.622,553.008 303.3,555.61 		"/>
		<polygon clip-path="url(#SVGID_2_)" fill="#FFFFFF" points="317.76,575.199 308.562,572.165 308.562,557.19 317.76,559.954 		"/>
		<polygon clip-path="url(#SVGID_2_)" fill="#40A5DC" points="366.775,591.396 355.719,587.744 355.719,571.336 366.775,574.659 		
			"/>
		<polygon clip-path="url(#SVGID_2_)" fill="#FFFFFF" points="264.522,579.283 257.161,576.492 257.161,563.084 264.522,565.643 		
			"/>
		<polygon clip-path="url(#SVGID_2_)" fill="#FFFFFF" points="276.746,583.908 268.978,580.969 268.978,567.201 276.746,569.905 		
			"/>
		<polygon clip-path="url(#SVGID_2_)" fill="#FFFFFF" points="289.652,588.797 281.449,585.688 281.449,571.539 289.652,574.401 		
			"/>
		<polygon clip-path="url(#SVGID_2_)" fill="#FFFFFF" points="303.3,593.963 294.622,590.68 294.622,576.127 303.3,579.154 		"/>
		<polygon clip-path="url(#SVGID_2_)" fill="#40A5DC" points="333.1,605.248 323.336,601.553 323.336,586.133 333.1,589.534 		"/>
		<polygon clip-path="url(#SVGID_2_)" fill="#FFFFFF" points="385.319,625.023 373.509,620.557 373.509,603.606 385.319,607.719 		
			"/>
		<polygon clip-path="url(#SVGID_2_)" fill="#FFFFFF" points="264.522,600.949 257.161,597.812 257.161,584.398 264.522,587.315 		
			"/>
		<polygon clip-path="url(#SVGID_2_)" fill="#FFFFFF" points="276.746,606.168 268.978,602.854 268.978,589.083 276.746,592.162 		
			"/>
		<polygon clip-path="url(#SVGID_2_)" fill="#FFFFFF" points="289.652,611.676 281.449,608.177 281.449,594.027 289.652,597.278 		
			"/>
		<polygon clip-path="url(#SVGID_2_)" fill="#FFFFFF" points="276.746,628.427 268.978,624.735 268.978,610.965 276.746,614.421 		
			"/>
		<polygon clip-path="url(#SVGID_2_)" fill="#40A5DC" points="303.3,641.047 294.622,636.918 294.622,622.373 303.3,626.235 		"/>
		<polygon clip-path="url(#SVGID_2_)" fill="#FFFFFF" points="385.319,680.028 373.509,674.417 373.509,657.471 385.319,662.724 		
			"/>
		<polygon clip-path="url(#SVGID_2_)" fill="#FFFFFF" points="264.522,644.282 257.161,640.432 257.161,627.021 264.522,630.648 		
			"/>
		<polygon clip-path="url(#SVGID_2_)" fill="#FFFFFF" points="289.652,657.441 281.449,653.146 281.449,638.999 289.652,643.045 		
			"/>
		<polygon clip-path="url(#SVGID_2_)" fill="#FFFFFF" points="333.1,680.19 323.336,675.082 323.336,659.656 333.1,664.468 		"/>
		<polygon clip-path="url(#SVGID_2_)" fill="#FFFFFF" points="349.408,688.727 339.025,683.291 339.025,667.391 349.408,672.518 		
			"/>
		<polygon clip-path="url(#SVGID_2_)" fill="#FFFFFF" points="385.319,707.531 373.509,701.345 373.509,684.402 385.319,690.223 		
			"/>
		<polygon clip-path="url(#SVGID_2_)" fill="#FFFFFF" points="405.863,131.855 393.71,125.893 393.71,108.33 405.863,114.664 		"/>
		<polygon clip-path="url(#SVGID_2_)" fill="#FFFFFF" points="424.161,140.828 412.79,135.252 412.79,118.272 424.161,124.2 		"/>
		<polygon clip-path="url(#SVGID_2_)" fill="#FFFFFF" points="441.316,149.243 430.649,144.011 430.649,127.574 441.316,133.133 		
			"/>
		<polygon clip-path="url(#SVGID_2_)" fill="#FFFFFF" points="472.583,164.577 463.152,159.948 463.152,144.502 472.583,149.415 		
			"/>
		<polygon clip-path="url(#SVGID_2_)" fill="#FFFFFF" points="486.878,171.589 477.984,167.229 477.984,152.227 486.878,156.86 		
			"/>
		<polygon clip-path="url(#SVGID_2_)" fill="#FFFFFF" points="513.144,184.467 505.19,180.57 505.19,166.398 513.144,170.534 		"/>
		<polygon clip-path="url(#SVGID_2_)" fill="#40A5DC" points="525.23,190.4 517.701,186.705 517.701,172.91 525.23,176.838 		"/>
		<polygon clip-path="url(#SVGID_2_)" fill="#FFFFFF" points="405.863,159.174 393.71,153.803 393.71,136.239 405.863,141.985 		"/>
		<polygon clip-path="url(#SVGID_2_)" fill="#FFFFFF" points="457.425,181.974 447.41,177.542 447.41,161.617 457.425,166.352 		"/>
		<polygon clip-path="url(#SVGID_2_)" fill="#FFFFFF" points="486.878,194.998 477.984,191.065 477.984,176.065 486.878,180.268 		
			"/>
		<polygon clip-path="url(#SVGID_2_)" fill="#FFFFFF" points="500.376,200.963 491.975,197.246 491.975,182.673 500.376,186.646 		
			"/>
		<polygon clip-path="url(#SVGID_2_)" fill="#FFFFFF" points="525.23,211.953 517.701,208.623 517.701,194.834 525.23,198.391 		"/>
		<polygon clip-path="url(#SVGID_2_)" fill="#FFFFFF" points="405.863,186.488 393.71,181.706 393.71,164.144 405.863,169.304 		"/>
		<polygon clip-path="url(#SVGID_2_)" fill="#FFFFFF" points="457.425,206.803 447.41,202.857 447.41,186.927 457.425,191.18 		"/>
		<polygon clip-path="url(#SVGID_2_)" fill="#FFFFFF" points="472.583,212.773 463.152,209.055 463.152,193.611 472.583,197.611 		
			"/>
		<polygon clip-path="url(#SVGID_2_)" fill="#FFFFFF" points="500.376,223.719 491.975,220.406 491.975,205.84 500.376,209.402 		
			"/>
		<polygon clip-path="url(#SVGID_2_)" fill="#FFFFFF" points="525.23,233.51 517.701,230.543 517.701,216.752 525.23,219.95 		"/>
		<polygon clip-path="url(#SVGID_2_)" fill="#FFFFFF" points="405.863,213.812 393.71,209.609 393.71,192.057 405.863,196.623 		"/>
		<polygon clip-path="url(#SVGID_2_)" fill="#FFFFFF" points="424.161,220.137 412.79,216.207 412.79,199.229 424.161,203.503 		"/>
		<polygon clip-path="url(#SVGID_2_)" fill="#40A5DC" points="457.425,231.633 447.41,228.17 447.41,212.239 457.425,216.01 		"/>
		<polygon clip-path="url(#SVGID_2_)" fill="#FFFFFF" points="472.583,236.869 463.152,233.611 463.152,218.164 472.583,221.709 		
			"/>
		<polygon clip-path="url(#SVGID_2_)" fill="#FFFFFF" points="486.878,241.812 477.984,238.734 477.984,223.736 486.878,227.08 		
			"/>
		<polygon clip-path="url(#SVGID_2_)" fill="#FFFFFF" points="500.376,246.475 491.975,243.572 491.975,228.994 500.376,232.155 		
			"/>
		<polygon clip-path="url(#SVGID_2_)" fill="#FFFFFF" points="525.23,255.066 517.701,252.46 517.701,238.671 525.23,241.502 		"/>
		<polygon clip-path="url(#SVGID_2_)" fill="#FFFFFF" points="405.863,241.129 393.71,237.518 393.71,219.96 405.863,223.943 		"/>
		<polygon clip-path="url(#SVGID_2_)" fill="#FFFFFF" points="424.161,246.57 412.79,243.19 412.79,226.211 424.161,229.938 		"/>
		<polygon clip-path="url(#SVGID_2_)" fill="#FFFFFF" points="441.316,251.671 430.649,248.501 430.649,232.065 441.316,235.561 		
			"/>
		<polygon clip-path="url(#SVGID_2_)" fill="#FFFFFF" points="472.583,260.967 463.152,258.163 463.152,242.716 472.583,245.803 		
			"/>
		<polygon clip-path="url(#SVGID_2_)" fill="#FFFFFF" points="500.376,269.229 491.975,266.734 491.975,252.16 500.376,254.913 		
			"/>
		<polygon clip-path="url(#SVGID_2_)" fill="#FFFFFF" points="513.144,273.027 505.19,270.664 505.19,256.49 513.144,259.097 		"/>
		<polygon clip-path="url(#SVGID_2_)" fill="#FFFFFF" points="525.23,276.618 517.701,274.38 517.701,260.59 525.23,263.06 		"/>
		<polygon clip-path="url(#SVGID_2_)" fill="#FFFFFF" points="405.863,268.453 393.71,265.424 393.71,247.865 405.863,251.26 		"/>
		<polygon clip-path="url(#SVGID_2_)" fill="#FFFFFF" points="457.425,281.29 447.41,278.798 447.41,262.866 457.425,265.671 		"/>
		<polygon clip-path="url(#SVGID_2_)" fill="#FFFFFF" points="472.583,285.066 463.152,282.717 463.152,267.269 472.583,269.904 		
			"/>
		<polygon clip-path="url(#SVGID_2_)" fill="#FFFFFF" points="486.878,288.627 477.984,286.41 477.984,271.412 486.878,273.896 		
			"/>
		<polygon clip-path="url(#SVGID_2_)" fill="#FFFFFF" points="525.23,298.176 517.701,296.297 517.701,282.509 525.23,284.615 		"/>
		<polygon clip-path="url(#SVGID_2_)" fill="#FFFFFF" points="405.863,295.771 393.71,293.329 393.71,275.769 405.863,278.577 		"/>
		<polygon clip-path="url(#SVGID_2_)" fill="#FFFFFF" points="424.161,299.441 412.79,297.158 412.79,280.178 424.161,282.809 		"/>
		<polygon clip-path="url(#SVGID_2_)" fill="#FFFFFF" points="441.316,302.887 430.649,300.741 430.649,284.307 441.316,286.775 		
			"/>
		<polygon clip-path="url(#SVGID_2_)" fill="#FFFFFF" points="457.425,306.119 447.41,304.104 447.41,288.182 457.425,290.496 		"/>
		<polygon clip-path="url(#SVGID_2_)" fill="#FFFFFF" points="486.878,312.033 477.984,310.251 477.984,295.246 486.878,297.304 		
			"/>
		<polygon clip-path="url(#SVGID_2_)" fill="#FFFFFF" points="500.376,314.742 491.975,313.055 491.975,298.481 500.376,300.425 		
			"/>
		<polygon clip-path="url(#SVGID_2_)" fill="#FFFFFF" points="513.144,317.303 505.19,315.709 505.19,301.539 513.144,303.372 		"/>
		<polygon clip-path="url(#SVGID_2_)" fill="#FFFFFF" points="525.23,319.73 517.701,318.221 517.701,304.43 525.23,306.167 		"/>
		<polygon clip-path="url(#SVGID_2_)" fill="#FFFFFF" points="424.161,325.877 412.79,324.145 412.79,307.167 424.161,309.247 		"/>
		<polygon clip-path="url(#SVGID_2_)" fill="#FFFFFF" points="441.316,328.49 430.649,326.868 430.649,310.434 441.316,312.383 		
			"/>
		<polygon clip-path="url(#SVGID_2_)" fill="#FFFFFF" points="472.583,333.265 463.152,331.819 463.152,316.375 472.583,318.102 		
			"/>
		<polygon clip-path="url(#SVGID_2_)" fill="#FFFFFF" points="486.878,335.442 477.984,334.087 477.984,319.088 486.878,320.711 		
			"/>
		<polygon clip-path="url(#SVGID_2_)" fill="#FFFFFF" points="525.23,341.284 517.701,340.139 517.701,326.347 525.23,327.725 		"/>
		<polygon clip-path="url(#SVGID_2_)" fill="#40A5DC" points="405.863,350.408 393.71,349.143 393.71,331.582 405.863,333.219 		"/>
		<polygon clip-path="url(#SVGID_2_)" fill="#FFFFFF" points="424.161,352.315 412.79,351.131 412.79,334.152 424.161,335.684 		"/>
		<polygon clip-path="url(#SVGID_2_)" fill="#FFFFFF" points="441.316,354.098 430.649,352.99 430.649,336.551 441.316,337.986 		
			"/>
		<polygon clip-path="url(#SVGID_2_)" fill="#FFFFFF" points="486.878,358.848 477.984,357.92 477.984,342.922 486.878,344.119 		
			"/>
		<polygon clip-path="url(#SVGID_2_)" fill="#FFFFFF" points="500.376,360.252 491.975,359.377 491.975,344.804 500.376,345.937 		
			"/>
		<polygon clip-path="url(#SVGID_2_)" fill="#FFFFFF" points="513.144,361.58 505.19,360.755 505.19,346.584 513.144,347.653 		"/>
		<polygon clip-path="url(#SVGID_2_)" fill="#FFFFFF" points="525.23,362.844 517.701,362.057 517.701,348.268 525.23,349.282 		"/>
		<polygon clip-path="url(#SVGID_2_)" fill="#FFFFFF" points="405.863,377.727 393.71,377.048 393.71,359.49 405.863,360.535 		"/>
		<polygon clip-path="url(#SVGID_2_)" fill="#40A5DC" points="457.425,380.607 447.41,380.045 447.41,364.121 457.425,364.983 		"/>
		<polygon clip-path="url(#SVGID_2_)" fill="#FFFFFF" points="472.583,381.453 463.152,380.924 463.152,365.477 472.583,366.291 		
			"/>
		<polygon clip-path="url(#SVGID_2_)" fill="#FFFFFF" points="500.376,383.01 491.975,382.537 491.975,367.963 500.376,368.686 		
			"/>
		<polygon clip-path="url(#SVGID_2_)" fill="#FFFFFF" points="513.144,383.724 505.19,383.274 505.19,369.104 513.144,369.787 		"/>
		<polygon clip-path="url(#SVGID_2_)" fill="#FFFFFF" points="525.23,384.396 517.701,383.977 517.701,370.186 525.23,370.831 		"/>
		<polygon clip-path="url(#SVGID_2_)" fill="#FFFFFF" points="424.161,405.187 412.79,405.098 412.79,388.115 424.161,388.551 		"/>
		<polygon clip-path="url(#SVGID_2_)" fill="#FFFFFF" points="441.316,405.318 430.649,405.234 430.649,388.797 441.316,389.205 		
			"/>
		<polygon clip-path="url(#SVGID_2_)" fill="#FFFFFF" points="472.583,405.551 463.152,405.483 463.152,390.031 472.583,390.391 		
			"/>
		<polygon clip-path="url(#SVGID_2_)" fill="#FFFFFF" points="486.878,405.66 477.984,405.593 477.984,390.595 486.878,390.932 		
			"/>
		<polygon clip-path="url(#SVGID_2_)" fill="#FFFFFF" points="525.23,405.955 517.701,405.897 517.701,392.1 525.23,392.391 		"/>
		<polygon clip-path="url(#SVGID_2_)" fill="#FFFFFF" points="405.863,432.366 393.71,432.861 393.71,415.302 405.863,415.178 		"/>
		<polygon clip-path="url(#SVGID_2_)" fill="#FFFFFF" points="424.161,431.623 412.79,432.084 412.79,415.105 424.161,414.987 		"/>
		<polygon clip-path="url(#SVGID_2_)" fill="#FFFFFF" points="441.316,430.922 430.649,431.36 430.649,414.922 441.316,414.812 		
			"/>
		<polygon clip-path="url(#SVGID_2_)" fill="#FFFFFF" points="457.425,430.268 447.41,430.674 447.41,414.748 457.425,414.645 		"/>
		<polygon clip-path="url(#SVGID_2_)" fill="#FFFFFF" points="486.878,429.072 477.984,429.43 477.984,414.432 486.878,414.342 		
			"/>
		<polygon clip-path="url(#SVGID_2_)" fill="#FFFFFF" points="513.144,428 505.19,428.32 505.19,414.153 513.144,414.068 		"/>
		<polygon clip-path="url(#SVGID_2_)" fill="#40A5DC" points="525.23,427.51 517.701,427.815 517.701,414.02 525.23,413.944 		"/>
		<polygon clip-path="url(#SVGID_2_)" fill="#FFFFFF" points="405.863,459.684 393.71,460.769 393.71,443.207 405.863,442.495 		"/>
		<polygon clip-path="url(#SVGID_2_)" fill="#FFFFFF" points="457.425,455.098 447.41,455.986 447.41,440.058 457.425,439.473 		"/>
		<polygon clip-path="url(#SVGID_2_)" fill="#FFFFFF" points="472.583,453.748 463.152,454.584 463.152,439.14 472.583,438.586 		
			"/>
		<polygon clip-path="url(#SVGID_2_)" fill="#FFFFFF" points="486.878,452.479 477.984,453.27 477.984,438.27 486.878,437.752 		"/>
		<polygon clip-path="url(#SVGID_2_)" fill="#FFFFFF" points="500.376,451.275 491.975,452.021 491.975,437.447 500.376,436.955 		
			"/>
		<polygon clip-path="url(#SVGID_2_)" fill="#FFFFFF" points="525.23,449.064 517.701,449.731 517.701,435.94 525.23,435.501 		"/>
		<polygon clip-path="url(#SVGID_2_)" fill="#FFFFFF" points="405.863,487.004 393.71,488.671 393.71,471.117 405.863,469.814 		"/>
		<polygon clip-path="url(#SVGID_2_)" fill="#FFFFFF" points="441.316,482.139 430.649,483.604 430.649,467.167 441.316,466.026 		
			"/>
		<polygon clip-path="url(#SVGID_2_)" fill="#FFFFFF" points="457.425,479.929 447.41,481.301 447.41,465.373 457.425,464.302 		"/>
		<polygon clip-path="url(#SVGID_2_)" fill="#FFFFFF" points="486.878,475.886 477.984,477.104 477.984,462.104 486.878,461.153 		
			"/>
		<polygon clip-path="url(#SVGID_2_)" fill="#FFFFFF" points="500.376,474.028 491.975,475.184 491.975,460.611 500.376,459.711 		
			"/>
		<polygon clip-path="url(#SVGID_2_)" fill="#FFFFFF" points="513.144,472.279 505.19,473.372 505.19,459.199 513.144,458.346 		"/>
		<polygon clip-path="url(#SVGID_2_)" fill="#FFFFFF" points="525.23,470.617 517.701,471.655 517.701,457.861 525.23,457.06 		"/>
		<polygon clip-path="url(#SVGID_2_)" fill="#FFFFFF" points="405.863,514.322 393.71,516.582 393.71,499.02 405.863,497.131 		"/>
		<polygon clip-path="url(#SVGID_2_)" fill="#FFFFFF" points="424.161,510.926 412.79,513.037 412.79,496.058 424.161,494.294 		"/>
		<polygon clip-path="url(#SVGID_2_)" fill="#FFFFFF" points="457.425,504.756 447.41,506.612 447.41,490.684 457.425,489.134 		"/>
		<polygon clip-path="url(#SVGID_2_)" fill="#40A5DC" points="472.583,501.946 463.152,503.693 463.152,488.246 472.583,486.777 		
			"/>
		<polygon clip-path="url(#SVGID_2_)" fill="#FFFFFF" points="500.376,496.784 491.975,498.348 491.975,483.77 500.376,482.471 		
			"/>
		<polygon clip-path="url(#SVGID_2_)" fill="#FFFFFF" points="513.144,494.416 505.19,495.897 505.19,481.718 513.144,480.482 		"/>
		<polygon clip-path="url(#SVGID_2_)" fill="#FFFFFF" points="525.23,492.174 517.701,493.572 517.701,479.778 525.23,478.611 		"/>
		<polygon clip-path="url(#SVGID_2_)" fill="#FFFFFF" points="405.863,541.643 393.71,544.484 393.71,526.922 405.863,524.454 		"/>
		<polygon clip-path="url(#SVGID_2_)" fill="#FFFFFF" points="441.316,533.355 430.649,535.848 430.649,519.409 441.316,517.239 		
			"/>
		<polygon clip-path="url(#SVGID_2_)" fill="#FFFFFF" points="457.425,529.585 447.41,531.928 447.41,516 457.425,513.96 		"/>
		<polygon clip-path="url(#SVGID_2_)" fill="#FFFFFF" points="486.878,522.695 477.984,524.777 477.984,509.779 486.878,507.971 		
			"/>
		<polygon clip-path="url(#SVGID_2_)" fill="#FFFFFF" points="500.376,519.542 491.975,521.504 491.975,506.934 500.376,505.225 		
			"/>
		<polygon clip-path="url(#SVGID_2_)" fill="#FFFFFF" points="513.144,516.558 505.19,518.415 505.19,504.245 513.144,502.626 		"/>
		<polygon clip-path="url(#SVGID_2_)" fill="#FFFFFF" points="525.23,513.729 517.701,515.49 517.701,501.699 525.23,500.166 		"/>
		<polygon clip-path="url(#SVGID_2_)" fill="#FFFFFF" points="424.161,563.798 412.79,567.005 412.79,550.027 424.161,547.164 		"/>
		<polygon clip-path="url(#SVGID_2_)" fill="#FFFFFF" points="472.583,550.136 463.152,552.796 463.152,537.346 472.583,534.976 		
			"/>
		<polygon clip-path="url(#SVGID_2_)" fill="#FFFFFF" points="513.144,538.697 505.19,540.936 505.19,526.766 513.144,524.768 		"/>
		<polygon clip-path="url(#SVGID_2_)" fill="#FFFFFF" points="525.23,535.289 517.701,537.411 517.701,523.62 525.23,521.722 		"/>
		<polygon clip-path="url(#SVGID_2_)" fill="#FFFFFF" points="424.161,590.232 412.79,593.993 412.79,577.013 424.161,573.604 		"/>
		<polygon clip-path="url(#SVGID_2_)" fill="#FFFFFF" points="472.583,574.234 463.152,577.35 463.152,561.901 472.583,559.07 		"/>
		<polygon clip-path="url(#SVGID_2_)" fill="#FFFFFF" points="500.376,565.054 491.975,567.83 491.975,553.254 500.376,550.734 		
			"/>
		<polygon clip-path="url(#SVGID_2_)" fill="#FFFFFF" points="525.23,556.84 517.701,559.326 517.701,545.538 525.23,543.276 		"/>
		<polygon clip-path="url(#SVGID_2_)" fill="#FFFFFF" points="405.863,623.598 393.71,628.203 393.71,610.642 405.863,606.413 		"/>
		<polygon clip-path="url(#SVGID_2_)" fill="#FFFFFF" points="513.144,582.975 505.19,585.986 505.19,571.813 513.144,569.042 		"/>
		<polygon clip-path="url(#SVGID_2_)" fill="#FFFFFF" points="525.23,578.396 517.701,581.248 517.701,567.454 525.23,564.833 		"/>
		<polygon clip-path="url(#SVGID_2_)" fill="#FFFFFF" points="405.863,650.921 393.71,656.107 393.71,638.549 405.863,633.732 		"/>
		<polygon clip-path="url(#SVGID_2_)" fill="#FFFFFF" points="441.316,635.78 430.649,640.338 430.649,623.898 441.316,619.667 		
			"/>
		<polygon clip-path="url(#SVGID_2_)" fill="#FFFFFF" points="486.878,616.323 477.984,620.126 477.984,605.127 486.878,601.6 		"/>
		<polygon clip-path="url(#SVGID_2_)" fill="#FFFFFF" points="513.144,605.113 505.19,608.506 505.19,594.337 513.144,591.188 		"/>
		<polygon clip-path="url(#SVGID_2_)" fill="#FFFFFF" points="525.23,599.953 517.701,603.166 517.701,589.375 525.23,586.389 		"/>
		<polygon clip-path="url(#SVGID_2_)" fill="#FFFFFF" points="472.583,646.528 463.152,651.01 463.152,635.563 472.583,631.365 		
			"/>
		<polygon clip-path="url(#SVGID_2_)" fill="#FFFFFF" points="500.376,633.318 491.975,637.315 491.975,622.736 500.376,619.004 		
			"/>
		<polygon clip-path="url(#SVGID_2_)" fill="#FFFFFF" points="457.425,678.561 447.41,683.809 447.41,667.881 457.425,662.936 		"/>
		<polygon clip-path="url(#SVGID_2_)" fill="#FFFFFF" points="486.878,663.139 477.984,667.799 477.984,652.801 486.878,648.414 		
			"/>
		<polygon clip-path="url(#SVGID_2_)" fill="#FFFFFF" points="500.376,656.076 491.975,660.473 491.975,645.9 500.376,641.757 		"/>
		<polygon clip-path="url(#SVGID_2_)" fill="#FFFFFF" points="513.144,649.394 505.19,653.554 505.19,639.38 513.144,635.46 		"/>
		<polygon clip-path="url(#SVGID_2_)" fill="#2B6C90" points="736.566,-12.592 527.99,96.045 527.99,800.2 736.566,909.4 		"/>
		<polygon clip-path="url(#SVGID_2_)" fill="#FFFFFF" points="557.903,101.855 546.039,107.674 546.039,86.641 557.903,80.465 		"/>
		<polygon clip-path="url(#SVGID_2_)" fill="#FFFFFF" points="598.463,81.964 585.208,88.463 585.208,66.24 598.463,59.335 		"/>
		<polygon clip-path="url(#SVGID_2_)" fill="#FFFFFF" points="539.234,144.11 527.99,149.083 527.99,128.598 539.234,123.285 		"/>
		<polygon clip-path="url(#SVGID_2_)" fill="#FFFFFF" points="557.903,135.855 546.039,141.102 546.039,120.068 557.903,114.462 		
			"/>
		<polygon clip-path="url(#SVGID_2_)" fill="#FFFFFF" points="598.463,117.923 585.208,123.786 585.208,101.561 598.463,95.295 		
			"/>
		<polygon clip-path="url(#SVGID_2_)" fill="#FFFFFF" points="539.234,177.209 527.99,181.638 527.99,161.154 539.234,156.383 		"/>
		<polygon clip-path="url(#SVGID_2_)" fill="#FFFFFF" points="557.903,169.859 546.039,174.527 546.039,153.498 557.903,148.461 		
			"/>
		<polygon clip-path="url(#SVGID_2_)" fill="#FFFFFF" points="577.614,162.091 565.084,167.027 565.084,145.415 577.614,140.098 		
			"/>
		<polygon clip-path="url(#SVGID_2_)" fill="#40A5DC" points="598.463,153.88 585.208,159.098 585.208,136.879 598.463,131.255 		
			"/>
		<polygon clip-path="url(#SVGID_2_)" fill="#FFFFFF" points="539.234,210.306 527.99,214.193 527.99,193.713 539.234,189.481 		"/>
		<polygon clip-path="url(#SVGID_2_)" fill="#FFFFFF" points="557.903,203.855 546.039,207.959 546.039,186.923 557.903,182.463 		
			"/>
		<polygon clip-path="url(#SVGID_2_)" fill="#FFFFFF" points="577.614,197.046 565.084,201.373 565.084,179.76 577.614,175.049 		
			"/>
		<polygon clip-path="url(#SVGID_2_)" fill="#FFFFFF" points="539.234,243.412 527.99,246.748 527.99,226.267 539.234,222.579 		"/>
		<polygon clip-path="url(#SVGID_2_)" fill="#FFFFFF" points="557.903,237.854 546.039,241.382 546.039,220.348 557.903,216.463 		
			"/>
		<polygon clip-path="url(#SVGID_2_)" fill="#40A5DC" points="577.614,231.994 565.084,235.724 565.084,214.111 577.614,210.006 		
			"/>
		<polygon clip-path="url(#SVGID_2_)" fill="#FFFFFF" points="598.463,225.798 585.208,229.74 585.208,207.514 598.463,203.172 		
			"/>
		<polygon clip-path="url(#SVGID_2_)" fill="#FFFFFF" points="539.234,276.504 527.99,279.304 527.99,258.824 539.234,255.683 		"/>
		<polygon clip-path="url(#SVGID_2_)" fill="#FFFFFF" points="557.903,271.854 546.039,274.813 546.039,253.776 557.903,250.461 		
			"/>
		<polygon clip-path="url(#SVGID_2_)" fill="#40A5DC" points="577.614,266.946 565.084,270.068 565.084,248.456 577.614,244.956 		
			"/>
		<polygon clip-path="url(#SVGID_2_)" fill="#FFFFFF" points="598.463,261.754 585.208,265.059 585.208,242.829 598.463,239.131 		
			"/>
		<polygon clip-path="url(#SVGID_2_)" fill="#FFFFFF" points="539.234,309.604 527.99,311.864 527.99,291.378 539.234,288.779 		"/>
		<polygon clip-path="url(#SVGID_2_)" fill="#FFFFFF" points="557.903,305.858 546.039,308.238 546.039,287.203 557.903,284.465 		
			"/>
		<polygon clip-path="url(#SVGID_2_)" fill="#FFFFFF" points="598.463,297.713 585.208,300.376 585.208,278.152 598.463,275.089 		
			"/>
		<polygon clip-path="url(#SVGID_2_)" fill="#FFFFFF" points="539.234,342.703 527.99,344.421 527.99,323.932 539.234,321.881 		"/>
		<polygon clip-path="url(#SVGID_2_)" fill="#FFFFFF" points="557.903,339.857 546.039,341.668 546.039,320.631 557.903,318.465 		
			"/>
		<polygon clip-path="url(#SVGID_2_)" fill="#FFFFFF" points="577.614,336.854 565.084,338.76 565.084,317.154 577.614,314.86 		"/>
		<polygon clip-path="url(#SVGID_2_)" fill="#FFFFFF" points="598.463,333.673 585.208,335.693 585.208,313.471 598.463,311.047 		
			"/>
		<polygon clip-path="url(#SVGID_2_)" fill="#FFFFFF" points="539.234,375.804 527.99,376.974 527.99,356.491 539.234,354.976 		"/>
		<polygon clip-path="url(#SVGID_2_)" fill="#FFFFFF" points="557.903,373.856 546.039,375.096 546.039,354.058 557.903,352.464 		
			"/>
		<polygon clip-path="url(#SVGID_2_)" fill="#FFFFFF" points="577.614,371.807 565.084,373.107 565.084,351.498 577.614,349.813 		
			"/>
		<polygon clip-path="url(#SVGID_2_)" fill="#40A5DC" points="598.463,369.628 585.208,371.015 585.208,348.793 598.463,347.004 		
			"/>
		<polygon clip-path="url(#SVGID_2_)" fill="#FFFFFF" points="539.234,408.897 527.99,409.528 527.99,389.047 539.234,388.074 		"/>
		<polygon clip-path="url(#SVGID_2_)" fill="#FFFFFF" points="577.614,406.757 565.084,407.456 565.084,385.846 577.614,384.76 		
			"/>
		<polygon clip-path="url(#SVGID_2_)" fill="#FFFFFF" points="598.463,405.593 585.208,406.335 585.208,384.11 598.463,382.967 		
			"/>
		<polygon clip-path="url(#SVGID_2_)" fill="#FFFFFF" points="539.234,441.999 527.99,442.085 527.99,421.602 539.234,421.174 		"/>
		<polygon clip-path="url(#SVGID_2_)" fill="#FFFFFF" points="557.903,441.862 546.039,441.95 546.039,420.917 557.903,420.466 		
			"/>
		<polygon clip-path="url(#SVGID_2_)" fill="#FFFFFF" points="577.614,441.711 565.084,441.808 565.084,420.194 577.614,419.719 		
			"/>
		<polygon clip-path="url(#SVGID_2_)" fill="#FFFFFF" points="539.234,475.098 527.99,474.639 527.99,454.158 539.234,454.272 		"/>
		<polygon clip-path="url(#SVGID_2_)" fill="#FFFFFF" points="557.903,475.857 546.039,475.377 546.039,454.346 557.903,454.468 		
			"/>
		<polygon clip-path="url(#SVGID_2_)" fill="#40A5DC" points="577.614,476.661 565.084,476.149 565.084,454.541 577.614,454.667 		
			"/>
		<polygon clip-path="url(#SVGID_2_)" fill="#FFFFFF" points="539.234,508.204 527.99,507.198 527.99,486.711 539.234,487.374 		"/>
		<polygon clip-path="url(#SVGID_2_)" fill="#FFFFFF" points="557.903,509.858 546.039,508.803 546.039,487.768 557.903,488.463 		
			"/>
		<polygon clip-path="url(#SVGID_2_)" fill="#FFFFFF" points="577.614,511.615 565.084,510.501 565.084,488.887 577.614,489.621 		
			"/>
		<polygon clip-path="url(#SVGID_2_)" fill="#FFFFFF" points="598.463,513.467 585.208,512.287 585.208,490.068 598.463,490.844 		
			"/>
		<polygon clip-path="url(#SVGID_2_)" fill="#FFFFFF" points="539.234,541.297 527.99,539.754 527.99,519.269 539.234,520.473 		"/>
		<polygon clip-path="url(#SVGID_2_)" fill="#FFFFFF" points="557.903,543.858 546.039,542.23 546.039,521.199 557.903,522.463 		
			"/>
		<polygon clip-path="url(#SVGID_2_)" fill="#40A5DC" points="577.614,546.563 565.084,544.845 565.084,523.235 577.614,524.573 		
			"/>
		<polygon clip-path="url(#SVGID_2_)" fill="#FFFFFF" points="598.463,549.426 585.208,547.611 585.208,525.384 598.463,526.799 		
			"/>
		<polygon clip-path="url(#SVGID_2_)" fill="#FFFFFF" points="539.234,574.396 527.99,572.313 527.99,551.826 539.234,553.57 		"/>
		<polygon clip-path="url(#SVGID_2_)" fill="#FFFFFF" points="557.903,577.86 546.039,575.66 546.039,554.623 557.903,556.466 		"/>
		<polygon clip-path="url(#SVGID_2_)" fill="#FFFFFF" points="577.614,581.518 565.084,579.192 565.084,557.582 577.614,559.525 		
			"/>
		<polygon clip-path="url(#SVGID_2_)" fill="#FFFFFF" points="539.234,607.493 527.99,604.863 527.99,584.382 539.234,586.674 		"/>
		<polygon clip-path="url(#SVGID_2_)" fill="#FFFFFF" points="557.903,611.86 546.039,609.091 546.039,588.055 557.903,590.47 		"/>
		<polygon clip-path="url(#SVGID_2_)" fill="#FFFFFF" points="557.903,645.86 546.039,642.515 546.039,621.479 557.903,624.466 		
			"/>
		<polygon clip-path="url(#SVGID_2_)" fill="#FFFFFF" points="577.614,651.424 565.084,647.887 565.084,626.278 577.614,629.43 		
			"/>
		<polygon clip-path="url(#SVGID_2_)" fill="#FFFFFF" points="557.903,679.864 546.039,675.938 546.039,654.904 557.903,658.469 		
			"/>
		<polygon clip-path="url(#SVGID_2_)" fill="#FFFFFF" points="539.234,706.793 527.99,702.535 527.99,682.047 539.234,685.965 		"/>
		<polygon clip-path="url(#SVGID_2_)" fill="#FFFFFF" points="557.903,713.861 546.039,709.365 546.039,688.334 557.903,692.471 		
			"/>
		<polygon clip-path="url(#SVGID_2_)" fill="#40A5DC" points="577.614,721.329 565.084,716.579 565.084,694.969 577.614,699.336 		
			"/>
		<polygon clip-path="url(#SVGID_2_)" fill="#FFFFFF" points="539.234,739.888 527.99,735.089 527.99,714.607 539.234,719.063 		"/>
		<polygon clip-path="url(#SVGID_2_)" fill="#FFFFFF" points="577.614,756.277 565.084,750.929 565.084,729.318 577.614,734.287 		
			"/>
		<polygon clip-path="url(#SVGID_2_)" fill="#FFFFFF" points="539.234,772.99 527.99,767.643 527.99,747.16 539.234,752.164 		"/>
		<polygon clip-path="url(#SVGID_2_)" fill="#FFFFFF" points="577.614,791.229 565.084,785.274 565.084,763.662 577.614,769.236 		
			"/>
		<polygon clip-path="url(#SVGID_2_)" fill="#FFFFFF" points="557.903,815.863 546.039,809.649 546.039,788.62 557.903,794.47 		"/>
	</g>
</g>
<g id="Layer_46">
	<g id="Layer_48" display="none">
	</g>
	<g id="Layer_7_copy_2">
		<g id="Layer_33_copy">
		</g>
	</g>
</g>
<g id="Layer_49">
</g>
<g id="NgMeetup_copy">
	<g id="Layer_2_copy">
	</g>
	<g id="Logo">
		<g id="Layer_6_copy">
		</g>
	</g>
	<g id="Speaker">
		<g id="Layer_7">
		</g>
		<g id="Layer_9">
			<g id="Layer_10">
			</g>
		</g>
	</g>
	<g id="Meetup_1_">
		<g id="item_copy_2_1_">
		</g>
		<g id="item_copy_2">
		</g>
	</g>
	<g id="Info_copy">
	</g>
	<g id="Guides_copy">
	</g>
</g>
<g>
</g>
</svg>
